<svg xmlns="http://www.w3.org/2000/svg" viewBox="0 0 351.32 301.83"><title>Asset 1</title><g id="Layer_2" data-name="Layer 2"><g id="Layer_1-2" data-name="Layer 1"><path d="M198,285.62c2.45,0,4.67-.12,6.87,0,7.53.46,12.2,6,11.08,13.39-.16,1-1.73,2.59-2.67,2.61-9.74.19-19.49.1-29.24.12-2.81,0-2.71-1.94-2.79-3.87a155.24,155.24,0,0,1,4.24-43.12c2-8.1,4.37-16.1,6.79-24.94-6.61-1.73-13.24-3.81-20-5.18-13.81-2.79-27.34-.3-40.75,3-4.11,1-6.58,4-8.2,7.66a85.16,85.16,0,0,1-17.94,27,4,4,0,0,0-.44,3.72c2.56,4.72,5.28,9.38,8.29,13.81.91,1.33,2.88,2.05,4.49,2.76,3.61,1.59,7.58,2.54,10.88,4.59,4.14,2.58,5.64,6.95,4.85,11.77-.18,1.06-1.66,2.67-2.58,2.7-6.49.23-13,.13-19.49.07a5,5,0,0,1-2.15-.6c-11.81-6-22.75-13.1-30.72-24a28.79,28.79,0,0,1-6-18.51c.27-7.61.07-15.25,0-22.87,0-1.32-.13-2.64-.23-4.6a45.89,45.89,0,0,0-4.46,2.23c-11.46,7.57-23,15-34.27,22.85-7.15,5-7.8,14-2.65,21.2,2.1,2.95,3.35,6.55,4.68,10,.86,2.22-.46,3.17-2.71,3.15-5.38-.05-10.75.07-16.13-.07-4-.1-6.75-2.38-8.58-5.79-3.69-6.88-3.95-14.12-1.82-21.46,5.56-19.12,16-35.45,29.45-49.88a194.38,194.38,0,0,1,15-14.17c2.63-2.28,3.62-4.73,2.79-7.89-2.93-11.13-.39-21.48,4.15-31.64a38.9,38.9,0,0,0-11.47-47c-4.78-3.79-10-7-15.13-10.39-13.49-8.8-23.88-20-28.51-35.86-5.44-18.62-2.07-36.1,7-52.73A28.27,28.27,0,0,1,25.39.55C28.94-.73,31.7.27,34,3.09c4.42,5.32,5.11,12.5,1.22,19.27A58.17,58.17,0,0,1,28,31.86C20,40.79,18.5,51,24.19,61.59A43.4,43.4,0,0,0,48.34,82.47C68.05,89.54,77.12,104.53,80.42,124c.55,3.29,1.47,4.29,5.06,3.6,23.36-4.46,46.69-3,70,.83,19.24,3.18,38.31,6.9,56.61,13.94,7.18,2.76,14.78,3.5,22.49,3.22A42,42,0,0,0,262,134.19q20-18.14,40-36.29c.89-.82,1.84-1.57,3.23-2.74,0,2.92.13,5.22,0,7.51-.5,7.74,2.26,13.74,8.63,18.39,6.05,4.42,11.72,9.35,17.53,14.08a20.66,20.66,0,0,1,2.39,2.38c4,4.57,7.81,9,5.32,16-2.84,8-7.72,13.13-16.32,13.87a50.63,50.63,0,0,1-13.08-.2c-6.18-1.14-10.48,1.23-14,5.72-4.74,6-6.39,13.16-7.47,20.52-3.62,24.62,4.15,45.87,19.46,64.73,6.84,8.44,14.07,16.58,21.42,24.57,1.68,1.82,4.55,2.67,7,3.59,2.9,1.07,6.19,1.3,8.86,2.73a12.83,12.83,0,0,1,5.28,5.49c2.45,5.28,1,7.25-4.75,7.26-7.25,0-14.5.12-21.75-.09a11.49,11.49,0,0,1-5.9-1.77c-26.68-18.18-50.61-39.13-67.48-67.17-.57-.94-1.82-2.09-2.74-2.08-6.1,0-12.32-.3-18.26.79C221.05,233,215,238.29,212,246.08c-4.84,12.31-9.16,24.84-13.67,37.28A13.09,13.09,0,0,0,198,285.62Z"/></g></g></svg>