<svg xmlns="http://www.w3.org/2000/svg" viewBox="0 0 433 429"><title>Asset 1</title><g id="Layer_2" data-name="Layer 2"><g id="Layer_1-2" data-name="Layer 1"><path d="M318,429H295a12,12,0,0,0-2.1-1.31c-9.54-3.62-13.55-10.64-13.15-20.65.19-4.82.54-9.77-.28-14.47-3.36-19.3-.31-38.56-.35-57.84,0-10.28-.38-20.58-1.09-30.83-.58-8.43-2.46-16.8-2.66-25.23-.1-4-.86-5.06-4.67-5.54-18.65-2.36-37.4-4.24-55.83-7.8-16.75-3.24-32.08-.2-47.06,6.58a16.13,16.13,0,0,0-7,6.7c-6.61,12.57-16.69,21.31-28.71,28.43a320.69,320.69,0,0,0-27.53,18.09c-7.27,5.39-13.7,12-15.21,21.53-2.34,14.69,0,28.2,11.31,39a47.15,47.15,0,0,1,3.33,3.73c3.59,4.3,2.94,7.36-2.52,8.75-9.79,2.48-19.51,2.12-28.57-3-4.41-2.47-6.67-6-6.13-11.49,1.16-11.76,2-23.55,2.76-35.34.25-3.65,0-7.32,0-11.5-8.33,4.53-15.95,15.3-17.09,24.1-1.9,14.77-1.1,29,9.64,40.87a47.29,47.29,0,0,1,2.93,4c3.37,4.67,2.77,8.78-2.85,9.73-7.15,1.2-15.1,1.64-22-.28-9.1-2.54-11.59-10.26-10.29-22.18C32,374,35.16,354.79,35.31,335.57c.1-12.5,4.86-19.44,14.17-26.72,17.22-13.45,28.17-30.68,28.57-54,.3-17.73,6.56-34.24,17.63-48.54,1.84-2.37,3.64-4.76,5.66-7.43-11.62,1.08-22.09-.67-31-7.28-13.65-10.1-27.33-20.23-40.2-31.29C16.49,148.57,5.07,134.88,0,117V93c2-4.52,3.55-9.37,6.22-13.48,3.3-5.07,8.37-5.18,12.75-1a29.67,29.67,0,0,1,3.56,4.18c8.92,12.45,17.72,25,26.74,37.39,3.9,5.37,7.65,11,12.46,15.53,17.41,16.24,37.54,28.65,58.45,39.81a17.42,17.42,0,0,0,7.61,2.14c12.82.18,25.74,1,38.46-.19a252.67,252.67,0,0,0,115.84-40.16c3-1.93,3.57-3.93,3.14-7.44-.75-6.19-1.88-12.81-.49-18.7C291,84.69,303,60.79,318.61,38.77c2.82-4,7.89-6.37,11.85-9.57,1.35-1.1,3.11-2.24,3.6-3.72,1.78-5.33,3-10.84,4.62-16.23.93-3.13,2.2-6.17,3.32-9.25h4c8.66,3.93,11.65,11.44,12.21,20.14.24,3.82,1.62,5.94,5,7.66a85,85,0,0,1,31.28,27.12c2,2.85,5.43,5.1,8.66,6.66C413,66.31,423,70.56,433,75v7c-4.12,8-8.94,15.33-17.49,19.16-11.05,5-22.74,6-34.63,4.76-5.47-.58-6-.28-4.68,5,4.86,19.53,9.8,39.05,14.51,58.61,2.67,11.06,4.11,22.24,2,33.62-3.85,20.48-14.8,37-29.49,51.07-7.53,7.22-15.44,14.54-24.42,19.6-7.07,4-12,8.73-15,15.79-2.14,5-4.45,10.17-5.46,15.5-4,21.21-7.36,42.56-11.42,63.77-2.95,15.38,1.74,27.85,12.75,38.4.72.7,1.42,1.42,2.08,2.16,2,2.26,2,4.3-.28,6.54-.91.91-1.88,3.06-1.43,3.82C322.38,423.7,320.84,426.42,318,429Z"/></g></g></svg>