<svg xmlns="http://www.w3.org/2000/svg" viewBox="0 0 750 500"><g id="freepik--background-complete--inject-23"><polygon points="107.47 123.39 107.47 135.97 110.04 136.98 107.47 138.6 107.47 147.13 128.11 149.57 107.47 154.04 107.47 170.69 118.77 172.92 107.47 176.17 107.47 188.72 150.65 185.51 257.06 188.72 303.44 182.67 303.44 166.42 291.37 167.84 303.44 162.16 303.44 148.15 297.26 145.51 303.11 142.87 303.11 129.67 293.4 127.84 303.11 126.22 303.11 123.39 153.23 126.34 107.47 123.39" style="fill:#ebebeb"></polygon><path d="M304,150.2c0,.15-39.34.27-87.86.27s-87.86-.12-87.86-.27,39.33-.26,87.86-.26S304,150.06,304,150.2Z" style="fill:#e0e0e0"></path><path d="M291.37,167.84a2.56,2.56,0,0,1-.45,0l-1.31,0-5.05.07c-4.39,0-10.73.16-18.58.35-15.68.36-37.33,1.24-61.24,2.33s-45.59,1.91-61.28,2.18c-7.84.14-14.19.2-18.58.18l-5,0-1.31,0-.45,0a2.56,2.56,0,0,1,.45,0l1.31,0,5-.07c4.39,0,10.73-.16,18.57-.35,15.69-.36,37.34-1.24,61.26-2.33S250.29,168.23,266,168c7.84-.14,14.19-.2,18.58-.18l5.05,0,1.31,0Z" style="fill:#e0e0e0"></path><path d="M295.37,128.21l-.48,0-1.41,0-5.41.1-3.92.06-4.65.14c-3.34.1-7.15.2-11.35.4-8.4.3-18.4.88-29.51,1.55s-23.29,1.56-36.1,2.47-25,1.76-36.12,2.44-21.11,1.18-29.52,1.44c-4.21.18-8,.25-11.35.32l-4.66.1H110.15l-.48,0,.48,0,1.41,0,5.41-.1,3.92-.06,4.65-.14c3.34-.1,7.14-.2,11.34-.4,8.41-.3,18.41-.88,29.52-1.55s23.3-1.56,36.11-2.48,25-1.75,36.11-2.43,21.11-1.18,29.52-1.44c4.2-.18,8-.25,11.35-.32l4.66-.1h10.74Z" style="fill:#e0e0e0"></path><path d="M175.56,153.25h-6.12l-1.08,2.81h-5.53l7-16.11h5.34l7,16.11h-5.61Zm-1.5-3.91-1.56-4.05-1.57,4.05Z" style="fill:#fff"></path><path d="M196.86,148.88v7.18h-5.2v-6.29c0-1.56-.6-2.16-1.54-2.16s-2,.67-2,2.53v5.92H183V143.47h4.95v1.24a5.25,5.25,0,0,1,3.8-1.47C194.61,143.24,196.86,144.92,196.86,148.88Z" style="fill:#fff"></path><path d="M198.59,139.81c0-1.49,1.22-2.65,3.12-2.65s3.13,1.06,3.13,2.56-1.21,2.74-3.13,2.74S198.59,141.31,198.59,139.81Zm.52,3.66h5.21v12.59h-5.21Z" style="fill:#fff"></path><path d="M228.29,148.88v7.18h-5.2v-6.29c0-1.56-.57-2.16-1.4-2.16s-1.64.62-1.64,2.3v6.15h-5.2v-6.29c0-1.56-.53-2.16-1.4-2.16s-1.63.62-1.63,2.3v6.15h-5.21V143.47h4.95v1.17a4.94,4.94,0,0,1,3.57-1.4,4.5,4.5,0,0,1,3.93,1.91,5.35,5.35,0,0,1,4.21-1.91C226.13,143.24,228.29,144.92,228.29,148.88Z" style="fill:#fff"></path><path d="M243,149.29v6.77h-4.83V154.4c-.6,1.26-1.8,1.89-3.57,1.89-3.08,0-4.67-1.75-4.67-3.92,0-2.43,1.84-3.79,5.75-3.79h2.1c-.16-1-.9-1.48-2.37-1.48a5.66,5.66,0,0,0-3.22,1l-1.66-3.42a11.4,11.4,0,0,1,5.66-1.43C240.51,143.24,243,145.1,243,149.29Zm-5.2,2.67v-.87H236.5c-1.1,0-1.59.36-1.59,1s.46,1,1.25,1A1.65,1.65,0,0,0,237.79,152Z" style="fill:#fff"></path><path d="M245.24,139h5.2v17.08h-5.2Z" style="fill:#fff"></path><path d="M175.53,171.08l.7-1.46a6.74,6.74,0,0,0,4.33,1.52c2.26,0,3.24-.88,3.24-2,0-3.21-8-1.18-8-6.06,0-2,1.58-3.74,5-3.74a7.72,7.72,0,0,1,4.22,1.16l-.62,1.5a6.76,6.76,0,0,0-3.6-1.07c-2.22,0-3.18.94-3.18,2.08,0,3.2,7.94,1.2,7.94,6,0,2-1.61,3.73-5.07,3.73A7.77,7.77,0,0,1,175.53,171.08Z" style="fill:#fff"></path><path d="M197.53,166.87v5.71h-1.8v-5.51c0-1.94-1-2.9-2.68-2.9-1.91,0-3.14,1.14-3.14,3.3v5.11h-1.8v-13.9h1.8v5.38a4.28,4.28,0,0,1,3.5-1.5C195.83,162.56,197.53,164,197.53,166.87Z" style="fill:#fff"></path><path d="M209.86,168.22H201.8a3.37,3.37,0,0,0,3.6,2.9,3.7,3.7,0,0,0,2.87-1.2l1,1.16a5.4,5.4,0,0,1-9.25-3.46,4.86,4.86,0,0,1,5-5.06,4.79,4.79,0,0,1,4.91,5.11A5.48,5.48,0,0,1,209.86,168.22Zm-8.06-1.3h6.37a3.21,3.21,0,0,0-6.37,0Z" style="fill:#fff"></path><path d="M212.39,158.68h1.8v13.9h-1.8Z" style="fill:#fff"></path><path d="M223.45,172a3.41,3.41,0,0,1-2.18.7,2.84,2.84,0,0,1-3.15-3.11v-5.46h-1.68v-1.48h1.68v-2.17h1.8v2.17h2.85v1.48h-2.85v5.38a1.47,1.47,0,0,0,1.56,1.67,2.25,2.25,0,0,0,1.4-.47Z" style="fill:#fff"></path><path d="M234.22,168.22h-8.06a3.37,3.37,0,0,0,3.6,2.9,3.7,3.7,0,0,0,2.87-1.2l1,1.16a5.41,5.41,0,0,1-9.26-3.46,4.87,4.87,0,0,1,5-5.06,4.79,4.79,0,0,1,4.91,5.11A5.48,5.48,0,0,1,234.22,168.22Zm-8.06-1.3h6.37a3.21,3.21,0,0,0-6.37,0Z" style="fill:#fff"></path><path d="M242.09,162.56v1.74a3,3,0,0,0-.41,0c-1.93,0-3.13,1.18-3.13,3.36v4.94h-1.8v-9.93h1.72v1.67A3.8,3.8,0,0,1,242.09,162.56Z" style="fill:#fff"></path><polygon points="45.83 254.06 81.93 216.15 186.37 216.15 149.46 254.09 45.83 254.06" style="fill:#ebebeb"></polygon><rect x="45.83" y="254.06" width="104.4" height="163.25" style="fill:#f5f5f5"></rect><polygon points="185.65 216.15 219.89 251.82 217.32 417.49 150.23 417.49 150.23 254.3 185.65 216.15" style="fill:#f5f5f5"></polygon><rect x="165.03" y="262.98" width="40.69" height="153.86" style="fill:#ebebeb"></rect><polygon points="381.35 254.06 417.44 216.15 521.89 216.15 484.97 254.09 381.35 254.06" style="fill:#ebebeb"></polygon><rect x="381.35" y="254.06" width="104.4" height="163.25" style="fill:#f5f5f5"></rect><polygon points="521.17 216.15 555.41 251.82 552.83 417.49 485.75 417.49 485.75 254.3 521.17 216.15" style="fill:#f5f5f5"></polygon><rect x="500.55" y="262.98" width="40.69" height="153.86" style="fill:#ebebeb"></rect><path d="M509.51,131.45c.93-6.72-8.56-12.25-15.69-12.83-3.4-.27-6.93.25-10.16-.87-7-2.44-9.76-11.45-16.57-14.33-5.1-2.14-11-.23-15.89,2.25s-9.82,5.61-15.33,6c-4.8.3-10-1.48-14.2.87-3.13,1.74-4.77,5.35-7.65,7.47s-6.5,2.52-10,2.71-7.12.23-10.31,1.69-5.82,4.83-5.16,8.27Z" style="fill:#f5f5f5"></path><path d="M322.3,93.48c.68-5-6.34-9.07-11.62-9.5-2.51-.2-5.13.18-7.51-.65-5.17-1.8-7.23-8.47-12.27-10.6-3.77-1.59-8.11-.17-11.76,1.67s-7.27,4.15-11.35,4.41c-3.55.23-7.4-1.09-10.51.65-2.31,1.29-3.53,4-5.66,5.53s-4.81,1.86-7.4,2-5.27.17-7.63,1.25-4.31,3.57-3.82,6.12Z" style="fill:#ebebeb"></path><path d="M161.11,85c.54-3.91-5-7.13-9.13-7.47-2-.16-4,.15-5.9-.51-4.07-1.41-5.69-6.66-9.65-8.33-3-1.25-6.37-.14-9.24,1.31s-5.71,3.26-8.92,3.47c-2.79.18-5.82-.86-8.27.51-1.82,1-2.77,3.11-4.45,4.34a10.6,10.6,0,0,1-5.81,1.58,16.33,16.33,0,0,0-6,1c-1.85.85-3.39,2.81-3,4.81Z" style="fill:#f5f5f5"></path><path d="M661.89,78.43c.69-5-6.34-9.07-11.61-9.49-2.52-.2-5.13.18-7.52-.65-5.16-1.8-7.23-8.48-12.27-10.6-3.77-1.59-8.11-.18-11.76,1.66s-7.26,4.16-11.34,4.42c-3.56.22-7.41-1.09-10.52.64-2.31,1.29-3.52,4-5.66,5.53s-4.81,1.87-7.4,2-5.27.17-7.63,1.25-4.3,3.57-3.82,6.12Z" style="fill:#ebebeb"></path></g><g id="freepik--Character--inject-23"><path d="M659.27,118.53c-5.71.92-11.89,5.14-14.12,10.48s-2,12.2-1.89,18c1.76-.36,2.87.47,4.67.35a4.39,4.39,0,0,0,2.86-1.85,29.73,29.73,0,0,0,4-7.2q3.9-9,7.67-18" style="fill:#263238"></path><path d="M650.62,127.22c-9,5.81-6.7,16.57-8.45,19.1a6.93,6.93,0,0,0-1.61,3.21c-.06,1.29.85,2.49.87,3.79,0,1.8-1.58,3.24-2.62,4.8a8.41,8.41,0,0,0-1.13,7.12,2,2,0,0,0,.88,1.28,2.87,2.87,0,0,0,1.21.23q12.78.58,25.58.26a12.48,12.48,0,0,0,5.64-1c2.25-1.23,3.16-3.63,3.92-5.84s1.59-4.67,2.39-7a27,27,0,0,0,1.28-4.61,49.63,49.63,0,0,0,.12-6.57,56.44,56.44,0,0,0,.09-6.1,8.83,8.83,0,0,0-2.39-5.62" style="fill:#263238"></path><path d="M676.63,136A14.32,14.32,0,0,0,662,121.43a14.74,14.74,0,0,0-14.4,14c-.33,6.69-.5,13.42-.22,15.83.85,7.27,5.48,9.65,7.33,10.32a9.54,9.54,0,0,0,2,.27h0s0,0,0,0l-.77,8.53c-.18,5.55,3.44,10.11,9.09,10.33s9.59-4.44,9.87-10Z" style="fill:#ffbe9d"></path><path d="M651.08,139.33a1.17,1.17,0,0,0,1.09,1.22,1.14,1.14,0,0,0,1.26-1,1.16,1.16,0,0,0-1.09-1.21A1.13,1.13,0,0,0,651.08,139.33Z" style="fill:#263238"></path><path d="M649.43,137c.1.17,1.11,0,2.32.37s1.94,1.18,2.1,1.1,0-.28-.31-.63a3.92,3.92,0,0,0-1.64-1,3.67,3.67,0,0,0-1.89-.14C649.57,136.79,649.38,137,649.43,137Z" style="fill:#263238"></path><path d="M663.63,139.61a1.16,1.16,0,0,0,1.09,1.21,1.13,1.13,0,0,0,1.26-1,1.17,1.17,0,0,0-1.09-1.22A1.13,1.13,0,0,0,663.63,139.61Z" style="fill:#263238"></path><path d="M662.22,139c.19.07,1-.64,2.32-1s2.43-.17,2.55-.32-.16-.22-.65-.31a5,5,0,0,0-2.08.12,4.65,4.65,0,0,0-1.8.93C662.22,138.7,662.14,138.92,662.22,139Z" style="fill:#263238"></path><path d="M657,147.09a8.31,8.31,0,0,0-2-.45c-.32,0-.63-.12-.67-.34a1.56,1.56,0,0,1,.26-.94l1.06-2.39a41.07,41.07,0,0,0,2.44-6.28,41.13,41.13,0,0,0-2.94,6.07c-.36.85-.71,1.65-1,2.42a1.77,1.77,0,0,0-.22,1.24.78.78,0,0,0,.51.49,2.48,2.48,0,0,0,.55.1A8.8,8.8,0,0,0,657,147.09Z" style="fill:#263238"></path><path d="M656.76,161.9s4.9.59,11.2-2.8c0,0-2.22,6.31-11.41,5.1Z" style="fill:#eb996e"></path><path d="M657.4,150.13a2.3,2.3,0,0,1,2.09-.76,2.1,2.1,0,0,1,1.42.82,1.28,1.28,0,0,1,0,1.49,1.57,1.57,0,0,1-1.69.35,4.76,4.76,0,0,1-1.58-1,1.4,1.4,0,0,1-.35-.38.42.42,0,0,1,0-.47" style="fill:#eb996e"></path><path d="M660.7,148.1c-.2,0-.27,1.34-1.49,2.26s-2.69.71-2.71.9.32.27.94.31a3.47,3.47,0,0,0,2.26-.67,3,3,0,0,0,1.16-1.9C660.94,148.44,660.8,148.1,660.7,148.1Z" style="fill:#263238"></path><path d="M661.87,134c.15.33,1.41.06,2.91.12s2.74.35,2.91,0c.08-.15-.16-.46-.67-.74a5.16,5.16,0,0,0-4.43-.12C662.06,133.56,661.8,133.85,661.87,134Z" style="fill:#263238"></path><path d="M649.77,133.11c.21.3,1.1,0,2.16.06s1.94.27,2.16,0,0-.43-.41-.72a3.1,3.1,0,0,0-1.74-.53,3,3,0,0,0-1.74.51C649.81,132.68,649.68,133,649.77,133.11Z" style="fill:#263238"></path><path d="M659,117.87a7.7,7.7,0,0,0,3.59,9.95c1.55.82,3.52,1.27,4.3,2.85.6,1.22.26,2.79,1,3.91s2.16,1.35,3.2,2.11a6.27,6.27,0,0,1,2.14,4.65,46,46,0,0,0,.33,5.26c.35,1.73,1.38,3.48,3.06,4,1.06-5,2-10,1.76-15.12s-1.92-10.26-5.46-13.92-9.18-5.49-13.94-3.68" style="fill:#263238"></path><path d="M664.12,117.22c6.12.23,13,4.39,15,10.15,1.05,2.9,1.3,6.23,3.33,8.56,1.28,1.46,3.16,2.37,4.21,4,2.24,3.5-.34,8.32,1.06,12.24.62,1.75,2,3.13,3,4.66s1.84,3.51,1.12,5.23a4.6,4.6,0,0,1-2.87,2.44,13.75,13.75,0,0,1-3.84.54l-19.77.89a5.6,5.6,0,0,1,.37-4.55c1.3-2.09,4.53-4,3.82-7s-2.19-2.61-2.23-5.73,2.11-6.09,1.75-8.79-1.25-2.08-2.38-6.34-3.52-5.42-3.52-5.42l1.86-10.21" style="fill:#263238"></path><path d="M641.73,148.44c.71-1.08,1.45-2.3,1.22-3.57a22.18,22.18,0,0,0-1.05-2.48,4.26,4.26,0,0,1,.32-3.31c.42-1.06,1-2.05,1.32-3.13.27-.86.39-1.77.74-2.6a2.73,2.73,0,0,1,1.91-1.77c.62,4-.94,8-1.15,12.11a7,7,0,0,1-.41,2.62,1.94,1.94,0,0,1-2.14,1.2" style="fill:#263238"></path><path d="M678.36,127.24a3.17,3.17,0,0,0-.28-.83,2.61,2.61,0,0,0-1.94-1.19,13.08,13.08,0,0,0-3.57.47,15.41,15.41,0,0,1-4.52.08,10.84,10.84,0,0,1-4.27-1.5,9.06,9.06,0,0,1-2.69-2.54,7.4,7.4,0,0,1-1.08-2.24,4.45,4.45,0,0,1-.13-.67c0-.15,0-.23,0-.23a10.62,10.62,0,0,0,1.46,3,9.35,9.35,0,0,0,2.66,2.38,10.92,10.92,0,0,0,4.12,1.41,15.71,15.71,0,0,0,4.4,0,12.49,12.49,0,0,1,3.67-.37,2.69,2.69,0,0,1,2,1.4,1.45,1.45,0,0,1,.17.67C678.39,127.16,678.37,127.24,678.36,127.24Z" style="fill:#455a64"></path><path d="M679.62,129.27a3.6,3.6,0,0,1-.89.48,12.57,12.57,0,0,1-2.65.82,13.79,13.79,0,0,1-15.23-7.7,13.3,13.3,0,0,1-.91-2.62,4.36,4.36,0,0,1-.14-1,24.23,24.23,0,0,0,1.32,3.48A13.94,13.94,0,0,0,676,130.27,21.86,21.86,0,0,0,679.62,129.27Z" style="fill:#455a64"></path><polygon points="645.39 168.92 657.09 167.15 674.24 167.15 688.06 173.95 658.42 208.27 645.39 168.92" style="fill:#ffbe9d"></polygon><path d="M675.1,167.57l-3.6,1.88a19.62,19.62,0,0,1-20.43-1.39l-9,1.41c-3.14.46-8.07.46-13.45,14.36s-8.07,23.1-8.07,23.1l15.55,1.92s1.87,6.38,3.68,10.74l-3.52,15.56s41,5.41,45.72,2l1.37-36.76,5.8-27.14Z" style="fill:#5B9BD5"></path><path d="M674,216.22a4.84,4.84,0,0,1-1.74.22,12.35,12.35,0,0,1-7.89-2.82,4.64,4.64,0,0,1-1.21-1.27,19.17,19.17,0,0,0,5.05,3A19.41,19.41,0,0,0,674,216.22Z" style="fill:#263238"></path><path d="M638.91,217.2a2.7,2.7,0,0,1-.36-.72c-.21-.47-.49-1.16-.81-2a57.18,57.18,0,0,1-2.11-6.88,52,52,0,0,1-1.17-7.1c-.09-.91-.13-1.66-.15-2.17a3.09,3.09,0,0,1,0-.8,26.66,26.66,0,0,1,.43,2.94,70.16,70.16,0,0,0,1.29,7c.64,2.71,1.4,5.13,2,6.88A26,26,0,0,1,638.91,217.2Z" style="fill:#263238"></path><path d="M647.06,391.85l1.25,16.21s-16.09,5.53-16.15,8.55l31.55-.11-.91-25.34Z" style="fill:#5B9BD5"></path><g style="opacity:0.30000000000000004"><path d="M647.06,391.85l1.25,16.21s-16.09,5.53-16.15,8.55l31.55-.11-.91-25.34Z"></path></g><path d="M658,406.3a1.28,1.28,0,0,1,1,1.43,1.22,1.22,0,0,1-1.41.95,1.36,1.36,0,0,1-1-1.52,1.3,1.3,0,0,1,1.58-.83" style="fill:#263238"></path><path d="M663.71,416.5l-.09-2.55-30.46,1.17a2.16,2.16,0,0,0-1.16,1.72Z" style="fill:#263238"></path><path d="M647.79,407.92c0,.16.79.2,1.57.66s1.2,1.09,1.34,1-.12-.95-1.08-1.5S647.76,407.78,647.79,407.92Z" style="fill:#263238"></path><path d="M644.54,409.43c0,.15.65.38,1.2,1s.73,1.31.88,1.3.22-.89-.48-1.66S644.54,409.28,644.54,409.43Z" style="fill:#263238"></path><path d="M642.83,413.46c.14,0,.32-.75-.11-1.58s-1.16-1.13-1.22-1,.4.56.75,1.25S642.68,413.45,642.83,413.46Z" style="fill:#263238"></path><path d="M647.92,404.2c.07.13.77-.11,1.64-.08s1.56.27,1.64.13-.6-.66-1.63-.67S647.84,404.08,647.92,404.2Z" style="fill:#263238"></path><path d="M647.73,400.92a2.83,2.83,0,0,0,1.58-.07,7,7,0,0,0,1.63-.58,6.65,6.65,0,0,0,.88-.51,2,2,0,0,0,.47-.39.69.69,0,0,0,0-.83.87.87,0,0,0-.69-.32,2,2,0,0,0-.59.11,6.39,6.39,0,0,0-1,.37,5.65,5.65,0,0,0-1.42,1c-.7.7-.93,1.29-.87,1.32s.4-.45,1.12-1a6.55,6.55,0,0,1,1.38-.85,6.25,6.25,0,0,1,.89-.32c.33-.1.62-.11.71,0s0,.08,0,.18a1.75,1.75,0,0,1-.34.29,8.17,8.17,0,0,1-2.31,1.15A10.9,10.9,0,0,0,647.73,400.92Z" style="fill:#263238"></path><path d="M647.94,401.13a2.49,2.49,0,0,0,.35-1.54,5.21,5.21,0,0,0-.28-1.72,5,5,0,0,0-.45-.94,1.29,1.29,0,0,0-1-.75.73.73,0,0,0-.64.46,2,2,0,0,0-.13.59,3.11,3.11,0,0,0,0,1.06,3.45,3.45,0,0,0,.74,1.6c.65.8,1.3.95,1.31.9s-.5-.35-1-1.12a3.87,3.87,0,0,1-.56-1.46,3.15,3.15,0,0,1,0-.92c0-.33.15-.61.27-.58s.44.23.58.5a5.07,5.07,0,0,1,.42.84,5.64,5.64,0,0,1,.37,1.56C648,400.53,647.85,401.11,647.94,401.13Z" style="fill:#263238"></path><path d="M657.29,391.82,658.54,408s-16.09,5.53-16.15,8.55l31.55-.11L673,391.14Z" style="fill:#5B9BD5"></path><path d="M668.23,406.27a1.28,1.28,0,0,1,.95,1.43,1.24,1.24,0,0,1-1.41,1,1.38,1.38,0,0,1-1-1.53,1.3,1.3,0,0,1,1.58-.83" style="fill:#263238"></path><path d="M673.94,416.47l-.09-2.55-30.46,1.17a2.16,2.16,0,0,0-1.16,1.72Z" style="fill:#263238"></path><path d="M658,407.89c0,.16.79.2,1.57.66s1.2,1.09,1.34,1-.12-.95-1.08-1.49S658,407.75,658,407.89Z" style="fill:#263238"></path><path d="M654.77,409.4c0,.15.65.38,1.2,1s.73,1.31.88,1.3.22-.89-.48-1.66S654.77,409.25,654.77,409.4Z" style="fill:#263238"></path><path d="M653.06,413.43c.14,0,.32-.75-.11-1.58s-1.16-1.13-1.22-1,.4.56.75,1.25S652.9,413.42,653.06,413.43Z" style="fill:#263238"></path><path d="M658.15,404.17c.07.14.77-.11,1.64-.08s1.56.27,1.64.13-.6-.65-1.63-.67S658.07,404.05,658.15,404.17Z" style="fill:#263238"></path><path d="M658,400.89a2.83,2.83,0,0,0,1.58-.07,6.94,6.94,0,0,0,1.63-.57,8.1,8.1,0,0,0,.88-.52,2,2,0,0,0,.47-.39.69.69,0,0,0,0-.83.87.87,0,0,0-.69-.32,2,2,0,0,0-.59.11,6.39,6.39,0,0,0-1,.37,5.65,5.65,0,0,0-1.42,1c-.7.71-.93,1.29-.88,1.32s.41-.45,1.13-1a6.55,6.55,0,0,1,1.38-.85,7.77,7.77,0,0,1,.89-.32c.33-.1.62-.11.71,0s0,.08,0,.18a1.75,1.75,0,0,1-.34.29,8.17,8.17,0,0,1-2.31,1.15A10.9,10.9,0,0,0,658,400.89Z" style="fill:#263238"></path><path d="M658.17,401.11a2.58,2.58,0,0,0,.35-1.55,5.21,5.21,0,0,0-.28-1.72,5,5,0,0,0-.45-.94,1.29,1.29,0,0,0-1-.75.73.73,0,0,0-.64.46,2.49,2.49,0,0,0-.14.59,3.38,3.38,0,0,0,0,1.06,3.54,3.54,0,0,0,.74,1.61c.65.79,1.3.94,1.31.89s-.5-.35-1-1.12a3.87,3.87,0,0,1-.56-1.46,3.08,3.08,0,0,1,0-.91c0-.34.15-.62.27-.59s.44.23.58.5a5.07,5.07,0,0,1,.42.84,5.64,5.64,0,0,1,.37,1.56C658.22,400.5,658.08,401.09,658.17,401.11Z" style="fill:#263238"></path><path d="M636.28,235.15s-9.38,21.28-9.38,36.27,10.71,64,10.71,64S639,349,640.46,367.05a216.35,216.35,0,0,0,5.47,33.54h10.71l17.36.47s7.38-30.21,6.9-41.63-2.38-24.5-2.38-24.5,9.28-37.82,11-44.72.95-32.59,0-33.3L682,237.2Z" style="fill:#263238"></path><path d="M656.43,282.67c.12,0,.22,26.33.22,58.8s-.1,58.81-.22,58.81-.21-26.32-.21-58.81S656.31,282.67,656.43,282.67Z" style="fill:#455a64"></path><path d="M652.35,271.87a8.1,8.1,0,0,1-.23-1.33c-.13-.86-.27-2.1-.4-3.65a80.51,80.51,0,0,1-.08-12.1,82.13,82.13,0,0,1,1.73-12c.34-1.51.65-2.73.89-3.56a7.48,7.48,0,0,1,.42-1.28,8.41,8.41,0,0,1-.26,1.32c-.19.84-.46,2.07-.76,3.58a96.42,96.42,0,0,0-1.59,11.95,95.29,95.29,0,0,0-.05,12.05c.09,1.54.18,2.79.26,3.65A7.19,7.19,0,0,1,652.35,271.87Z" style="fill:#455a64"></path><path d="M687.9,256.59a2.2,2.2,0,0,1-.74.45,5.71,5.71,0,0,1-2.35.39,13.61,13.61,0,0,1-7.16-2.92,16.76,16.76,0,0,1-4.95-6,13.52,13.52,0,0,1-.88-2.19,3.45,3.45,0,0,1-.18-.85c.08,0,.38,1.18,1.32,2.9a17.9,17.9,0,0,0,4.95,5.77,14.15,14.15,0,0,0,6.92,3A6.55,6.55,0,0,0,687.9,256.59Z" style="fill:#455a64"></path><path d="M641.74,241.79a3.34,3.34,0,0,1-.18.76,14.17,14.17,0,0,1-.75,2,21.42,21.42,0,0,1-9.48,10.12,15.57,15.57,0,0,1-2,.88,2.54,2.54,0,0,1-.75.22c0-.07,1-.48,2.55-1.36a23.58,23.58,0,0,0,9.36-10C641.33,242.82,641.66,241.76,641.74,241.79Z" style="fill:#455a64"></path><path d="M660.82,243.66s-.05-.17-.14-.44a1.94,1.94,0,0,0-.69-.93,1.73,1.73,0,0,0-1.6-.2,1.67,1.67,0,0,0,0,3.13,1.73,1.73,0,0,0,1.6-.2,1.94,1.94,0,0,0,.69-.93c.09-.27.1-.44.14-.43s.07.16,0,.47a1.88,1.88,0,0,1-.67,1.13,2,2,0,0,1-1.92.33,2.05,2.05,0,0,1,0-3.87,2,2,0,0,1,1.92.34,1.84,1.84,0,0,1,.67,1.12C660.89,243.49,660.84,243.66,660.82,243.66Z" style="fill:#455a64"></path><path d="M673.19,334.24a109.13,109.13,0,0,1-11.72,6.5,53.52,53.52,0,0,1,5.76-3.44A51.27,51.27,0,0,1,673.19,334.24Z" style="fill:#455a64"></path><path d="M649.21,203.59h-1.85l-.32.85h-1.67l2.12-4.85h1.61l2.12,4.85h-1.69Zm-.45-1.18-.48-1.22-.47,1.22Z" style="fill:#fff"></path><path d="M655.62,202.28v2.16h-1.56v-1.89c0-.48-.18-.66-.47-.66s-.58.21-.58.77v1.78h-1.57v-3.79h1.49V201a1.57,1.57,0,0,1,1.14-.44A1.48,1.48,0,0,1,655.62,202.28Z" style="fill:#fff"></path><path d="M656.15,199.55a.84.84,0,0,1,.94-.8c.57,0,.94.32.94.77a.84.84,0,0,1-.94.82A.83.83,0,0,1,656.15,199.55Zm.16,1.1h1.56v3.79h-1.56Z" style="fill:#fff"></path><path d="M665.09,202.28v2.16h-1.56v-1.89c0-.48-.18-.66-.43-.66s-.49.19-.49.7v1.85h-1.56v-1.89c0-.48-.16-.66-.43-.66s-.49.19-.49.7v1.85h-1.56v-3.79h1.49V201a1.47,1.47,0,0,1,1.07-.42,1.35,1.35,0,0,1,1.18.57,1.64,1.64,0,0,1,1.27-.57C664.44,200.58,665.09,201.08,665.09,202.28Z" style="fill:#fff"></path><path d="M669.52,202.4v2h-1.45v-.5a1.07,1.07,0,0,1-1.08.57c-.92,0-1.4-.53-1.4-1.18s.55-1.15,1.73-1.15H668c-.05-.29-.27-.44-.71-.44a1.69,1.69,0,0,0-1,.3l-.5-1a3.38,3.38,0,0,1,1.7-.43C668.77,200.58,669.52,201.14,669.52,202.4Zm-1.56.8v-.26h-.39c-.33,0-.48.11-.48.32s.14.3.38.3A.5.5,0,0,0,668,203.2Z" style="fill:#fff"></path><path d="M670.2,199.3h1.57v5.14H670.2Z" style="fill:#fff"></path><path d="M649.2,209l.21-.44a2,2,0,0,0,1.3.46c.69,0,1-.26,1-.61,0-1-2.39-.35-2.39-1.82,0-.61.47-1.13,1.51-1.13a2.3,2.3,0,0,1,1.27.35l-.18.45a2.07,2.07,0,0,0-1.09-.32c-.67,0-1,.28-1,.63,0,1,2.39.36,2.39,1.81,0,.6-.48,1.12-1.53,1.12A2.32,2.32,0,0,1,649.2,209Z" style="fill:#fff"></path><path d="M655.83,207.69v1.73h-.54v-1.66c0-.59-.3-.88-.81-.88a.89.89,0,0,0-1,1v1.55H653v-4.19h.54v1.62a1.3,1.3,0,0,1,1.06-.45A1.15,1.15,0,0,1,655.83,207.69Z" style="fill:#fff"></path><path d="M659.54,208.1h-2.42a1,1,0,0,0,1.08.88,1.09,1.09,0,0,0,.86-.37l.3.35a1.49,1.49,0,0,1-1.18.49,1.5,1.5,0,0,1-1.61-1.53,1.46,1.46,0,0,1,1.51-1.52,1.44,1.44,0,0,1,1.48,1.54A1,1,0,0,1,659.54,208.1Zm-2.42-.39H659a.94.94,0,0,0-1-.86A.93.93,0,0,0,657.12,207.71Z" style="fill:#fff"></path><path d="M660.31,205.23h.54v4.19h-.54Z" style="fill:#fff"></path><path d="M663.64,209.24a1,1,0,0,1-.66.21.86.86,0,0,1-1-.94v-1.64h-.5v-.45h.5v-.65h.55v.65h.85v.45h-.85v1.62c0,.32.16.5.46.5a.69.69,0,0,0,.43-.14Z" style="fill:#fff"></path><path d="M666.88,208.1h-2.42a1,1,0,0,0,1.08.88,1.09,1.09,0,0,0,.86-.37l.3.35a1.49,1.49,0,0,1-1.18.49,1.5,1.5,0,0,1-1.61-1.53,1.46,1.46,0,0,1,1.51-1.52,1.44,1.44,0,0,1,1.48,1.54A1,1,0,0,1,666.88,208.1Zm-2.42-.39h1.92a.94.94,0,0,0-1-.86A.93.93,0,0,0,664.46,207.71Z" style="fill:#fff"></path><path d="M669.26,206.4v.52h-.13a.9.9,0,0,0-.94,1v1.49h-.54v-3h.52v.51A1.14,1.14,0,0,1,669.26,206.4Z" style="fill:#fff"></path><path d="M653.14,187.74l-.89,2H652l-.89-2h.31l.73,1.67.74-1.67Z" style="fill:#fff"></path><path d="M653.22,188.76a1,1,0,0,1,1.08-1,1,1,0,1,1,0,2.08A1,1,0,0,1,653.22,188.76Zm1.86,0a.79.79,0,1,0-.78.78A.76.76,0,0,0,655.08,188.76Z" style="fill:#fff"></path><path d="M655.82,187.74h.29v1.78h1.1v.25h-1.39Z" style="fill:#fff"></path><path d="M657.5,188.9v-1.16h.29v1.15c0,.45.2.65.57.65s.57-.2.57-.65v-1.15h.28v1.16a.86.86,0,1,1-1.71,0Z" style="fill:#fff"></path><path d="M661.56,187.74v2h-.24l-1.22-1.51v1.51h-.29v-2h.24l1.22,1.52v-1.52Z" style="fill:#fff"></path><path d="M662.57,188h-.69v-.26h1.68V188h-.7v1.77h-.29Z" style="fill:#fff"></path><path d="M665.07,189.27H664l-.22.5h-.3l.92-2h.29l.92,2h-.31ZM665,189l-.44-1-.44,1Z" style="fill:#fff"></path><path d="M667.26,189.77l-.44-.62h-.63v.61h-.29v-2h.79c.53,0,.85.27.85.71a.63.63,0,0,1-.44.64l.48.68Zm0-1.32c0-.29-.19-.45-.56-.45h-.5v.91h.5C667.06,188.91,667.25,188.74,667.25,188.45Z" style="fill:#fff"></path><path d="M668.76,189.07v.7h-.28v-.7l-.81-1.33H668l.65,1.07.65-1.07h.29Z" style="fill:#fff"></path><path d="M698.91,172.08s-3-.61-4.25-2.3-6.12-12.87-6.12-12.87,1.34-.93,3,.89a51.45,51.45,0,0,1,3.42,4.67s-.87-7-1.17-9.45c-.26-2.12-.53-5.35.5-5.77s1.63,3.67,2.22,5.34,1.39,4,1.39,4-.85-8.39-.45-10.72c.29-1.7,2.38-1.07,2.44.91,0,0,.8-2,1.73-.56s1.64,9.72,2.2,9.57.37-6.9,1.25-7.53c.5-.36,1.17.28,1.3,2s1,14.66.71,16.45a4.3,4.3,0,0,1-1,2.44Z" style="fill:#ffbe9d"></path><path d="M713.37,196.3a291.13,291.13,0,0,0-7.91-30.18h-9.92l4.51,27.44-2.13-3.46-10.33,9.6s7.67,10.26,11.35,12.14C710.73,217.88,715.2,205.41,713.37,196.3Z" style="fill:#ffbe9d"></path><path d="M697.23,176.06a1.77,1.77,0,0,0,0,.31q.06.31.15.87c.13.77.33,1.86.56,3.19.46,2.7,1.13,6.43,1.67,10.57.06.52.12,1,.17,1.54s.1,1,.12,1.49c0,.25,0,.49,0,.73s0,.47-.06.7c-.08.47-.19.91-.31,1.35-.23.87-.48,1.7-.64,2.5a11.17,11.17,0,0,0-.19,2.24,10.3,10.3,0,0,0,.55,3.2,6.74,6.74,0,0,0,.32.82,1.13,1.13,0,0,0,.14.28l-.11-.29c-.07-.19-.17-.47-.29-.83a11.59,11.59,0,0,1-.49-3.18,11.19,11.19,0,0,1,.22-2.22c.16-.78.41-1.6.65-2.48a13.53,13.53,0,0,0,.32-1.36c0-.23,0-.48.06-.73s0-.49,0-.73c0-.5-.07-1-.11-1.51s-.11-1-.17-1.54c-.54-4.15-1.23-7.87-1.72-10.57-.26-1.35-.47-2.43-.62-3.18q-.12-.55-.18-.87l-.06-.22Z" style="fill:#eb996e"></path><path d="M698.81,166.45s.14-.36.41-.9a7.32,7.32,0,0,1,3.27-3.27c.54-.27.91-.39.9-.42a1,1,0,0,0-.27,0,7.06,7.06,0,0,0-.68.25,6.82,6.82,0,0,0-2,1.36,7,7,0,0,0-1.36,2,4.79,4.79,0,0,0-.24.68C698.81,166.35,698.79,166.44,698.81,166.45Z" style="fill:#eb996e"></path><path d="M695.86,163.68s.76.44,1.56,1.16,1.29,1.45,1.34,1.41a5.52,5.52,0,0,0-2.9-2.57Z" style="fill:#eb996e"></path><path d="M699.72,146.13c-.05,0,.09,2.3.32,5.12s.45,5.11.5,5.11-.09-2.3-.32-5.12S699.77,146.13,699.72,146.13Z" style="fill:#eb996e"></path><path d="M689.17,173.3a12.39,12.39,0,0,1,3,3c1.55,2.14,7.86,17.22,7.86,17.22L687.59,211l-6.86-11Z" style="fill:#5B9BD5"></path><path d="M679,128.39a4.4,4.4,0,0,1,3.15-3.22,4.67,4.67,0,0,1,4.37,1.2,5,5,0,0,1,1.34,4.36,3.79,3.79,0,0,1-2.22,2.91,4.74,4.74,0,0,1-2.86,0,11.91,11.91,0,0,1-4.51-2.36" style="fill:#263238"></path><polygon points="620.57 206.93 624.13 207.37 624.13 207.35 620.57 206.93" style="fill:#ffbe9d"></polygon><path d="M638.91,217.2l-2.79-8.35-12-1.48-7,59.53s-4.65,11.21-3.94,13,.91,7.78,2.32,5.11-.84-5.11-.84-5.11,4.65,5.07,4.9,2.8-.93-7.4-.93-7.4,5.5-5.51,7.17-8.16C627,265.13,635.08,232.89,638.91,217.2Z" style="fill:#ffbe9d"></path><path d="M623.84,267.65s4.61,5.94,3.11,5.73-4.68-3.38-4.68-3.38Z" style="fill:#ffbe9d"></path></g><g id="freepik--dog-4--inject-23"><path d="M488.61,324.24c.18-.06-1-2.66-1.06-6.09s1-6.08.81-6.14a11,11,0,0,0-1.41,6.15A10.85,10.85,0,0,0,488.61,324.24Z" style="fill:#455a64"></path><path d="M485,321.83c.18,0-.41-2.35-.08-5.2s1.37-5,1.2-5.06-1.48,2-1.79,5S484.89,321.9,485,321.83Z" style="fill:#455a64"></path><path d="M547,347.62c-.72.41-15,11.13-18.7,19.9-2.85,6.69-5.69,25.61-5.69,25.61l3,18.59s7.53.86,8,5.51L521.18,417s-5.84-22.15-8.69-24.06c0,0,4-26.12,1.29-35.55A93.42,93.42,0,0,0,509,343.58l33.4-1.66Z" style="fill:#5B9BD5"></path><path d="M621.49,348.82c-.73.41-1.6,11.49-2.62,18.7s-2.3,25-2.3,25l1.89,17s7.81,3.15,8.29,7.55l-15-.19s-2.21-14.28-5.06-16.19c0,0,.29-33.88-2.37-43.31a95,95,0,0,0-4.77-13.79l25.67-2.85Z" style="fill:#5B9BD5"></path><path d="M616.44,352.13c-.77.33-5.82,8.66-7.64,15.71s-5,24.57-5,24.57v17.12s7.26,3,7.26,7.46H596.62s-.91-15.31-3.53-17.53c0,0,4-33.63,2.42-43.3a94.57,94.57,0,0,0-3.22-14.24h25.84Z" style="fill:#5B9BD5"></path><path d="M666.13,280.94a53.78,53.78,0,0,0-7.7-2.95c-2.61-.56-8.16-2.6-9.07-3.74a17.18,17.18,0,0,1-1.81-3.28s-5.33-3.29-8.62-3.86a56.94,56.94,0,0,0-13.14,0c-2.16.46-4.08,3.74-4.08,3.74s-6.24,6.12-7.83,10.77-7.7,15.76-7.7,15.76l21.53,21.88s4.54-9.3,4.65-12.36,3.8-11,3.8-11v-1.7l10-1.38a9.88,9.88,0,0,0,3.62,1c1.25-.11,3.4-1.92,3.4-1.92s2,1.54,3.74.88,5.94-2.12,7.41-5.52S667.05,281.36,666.13,280.94Z" style="fill:#5B9BD5"></path><path d="M664.77,286.24a1.61,1.61,0,0,1-1.17-2c.06-.16.15-.35.06-.5a.56.56,0,0,0-.31-.2,2.07,2.07,0,0,1-1.32-1.91,1.8,1.8,0,0,1,1.5-1.71,3.2,3.2,0,0,1,1.82.52c.59.3,1.25.7,1.35,1.35a1.93,1.93,0,0,1-.21,1.05,26.29,26.29,0,0,1-1.72,3.44" style="fill:#263238"></path><path d="M627.75,319.09a7,7,0,0,0,0,3.85c.66,1.49.65,9,0,12s-3.46,12-7.58,15.17-18.36,6.93-21.54,7.68-43.82-8.43-50.37-8.8-15.92,1.12-20.79,7.86-9.36,17.23-17,19.29-21,13.48-22.47,17.6-2.25,17-2.25,17,5.78,2.17,5.09,6.3h0l-13-.07,2.08-32.07s14.24-10.11,17.42-17.23,6.55-17,6.55-17,.38-23,4.69-26.22,13.1-10.86,34.64-9.36,34.64-3,35.39-3.37,11.43-4.12,17-5.81,10.61-8.63,10.61-8.63Z" style="fill:#5B9BD5"></path><path d="M511.63,324.05a17.5,17.5,0,0,1-19.06-13.8c-2.9,2.08-3.05,4.62-1,8.66a16.07,16.07,0,0,0,6,6.65,66.14,66.14,0,0,0,12.12,5.12" style="fill:#5B9BD5"></path><path d="M644.86,275.75a2.47,2.47,0,0,1-.25,1.13.91.91,0,0,1-.75.56.73.73,0,0,1-.65-.43c-.2-.46-.48-1.27,0-1.57a1.3,1.3,0,0,1,1.69.35" style="fill:#263238"></path><path d="M653.1,292c0-.18-2.15-.42-4.68-1.23s-4.44-1.85-4.53-1.7A14.25,14.25,0,0,0,653.1,292Z" style="fill:#263238"></path><path d="M591.9,346a7.87,7.87,0,0,0,.64,2.06c.46,1.25,1.14,2.95,1.78,4.86a28.66,28.66,0,0,1,1.23,5,12.25,12.25,0,0,0,.3,2.13,5.87,5.87,0,0,0,.12-2.17,20.27,20.27,0,0,0-1.08-5.12,46.94,46.94,0,0,0-2-4.83A8,8,0,0,0,591.9,346Z" style="fill:#263238"></path><path d="M628.24,331s-.12.79-.41,2.21a50.08,50.08,0,0,1-1.64,5.88,34.71,34.71,0,0,1-3.82,8.13,30.76,30.76,0,0,1-3.54,4,36,36,0,0,0-3.94,4.27,40.83,40.83,0,0,0-5,10,74.89,74.89,0,0,0-2.44,8.79c-.55,2.53-.92,4.59-1.17,6-.1.66-.19,1.2-.26,1.65a2.31,2.31,0,0,0,0,.58,2.18,2.18,0,0,0,.17-.56l.37-1.62c.32-1.42.75-3.47,1.35-6a82.47,82.47,0,0,1,2.55-8.7,41.61,41.61,0,0,1,5-9.83c2.34-3.11,5.48-5.38,7.45-8.27a33.9,33.9,0,0,0,3.77-8.33,40.9,40.9,0,0,0,1.47-6,14.36,14.36,0,0,0,.18-1.67A2.14,2.14,0,0,0,628.24,331Z" style="fill:#263238"></path><path d="M499.4,382.19c0,.05.74-.49,2.08-1.36a51.51,51.51,0,0,1,5.92-3.28c2.54-1.29,5.78-2.53,8.85-4.88a18.76,18.76,0,0,0,4.06-4.42,53.8,53.8,0,0,0,3.12-5.61c2-3.86,3.76-7.77,6.91-9.88a20.67,20.67,0,0,1,9.23-3.44,54.25,54.25,0,0,1,6.75-.46l1.84,0a2.84,2.84,0,0,0,.65-.06,3,3,0,0,0-.65-.07c-.42,0-1-.05-1.84-.06a47.25,47.25,0,0,0-6.81.26,20.84,20.84,0,0,0-9.49,3.42,14.24,14.24,0,0,0-4.07,4.43c-1.12,1.76-2.07,3.68-3.06,5.63a55.27,55.27,0,0,1-3.07,5.56,18.29,18.29,0,0,1-3.92,4.31c-2.95,2.3-6.16,3.59-8.69,4.93a42.83,42.83,0,0,0-5.86,3.47c-.67.45-1.14.86-1.47,1.12A3.15,3.15,0,0,0,499.4,382.19Z" style="fill:#263238"></path><path d="M643.22,288c0-.08-.21-.1-.44.05a1.16,1.16,0,0,0-.54.91,1.23,1.23,0,0,0,.39,1c.22.17.4.18.44.11s-.28-.53-.23-1.05S643.28,288.13,643.22,288Z" style="fill:#263238"></path><path d="M625,272.13a2.81,2.81,0,0,0-.54.42,10.89,10.89,0,0,0-1.35,1.43,21,21,0,0,0-3.31,6.42c-.5,1.45-1,3-1.47,4.76a8.37,8.37,0,0,0,.08,5.77,7.61,7.61,0,0,0,2,2.43,8,8,0,0,1,2,2.4c.52.93.93,2,1.54,3a5.48,5.48,0,0,0,2.63,2.41,3.46,3.46,0,0,0,1.86.19,3,3,0,0,0,1.62-.92,8,8,0,0,0,1.57-3.05,45.64,45.64,0,0,0,1.5-6.17,16.55,16.55,0,0,0,.2-5.76,8,8,0,0,0-.88-2.51,17.1,17.1,0,0,0-1.39-2,6.06,6.06,0,0,1-1.42-3.65,9.4,9.4,0,0,1,.41-3c.49-1.61.92-2.46.87-2.48a2.68,2.68,0,0,0-.34.6,14.77,14.77,0,0,0-.76,1.81,8.93,8.93,0,0,0-.51,3.09,6.34,6.34,0,0,0,.33,2,7.57,7.57,0,0,0,1.08,1.93,18.06,18.06,0,0,1,1.33,1.95,7.55,7.55,0,0,1,.79,2.36,16.13,16.13,0,0,1-.26,5.58,43.51,43.51,0,0,1-1.51,6.08,7.44,7.44,0,0,1-1.44,2.83,2.51,2.51,0,0,1-2.84.58,4.92,4.92,0,0,1-2.33-2.16c-.58-.94-1-2-1.54-2.95a8.68,8.68,0,0,0-2.1-2.54,7.2,7.2,0,0,1-1.92-2.24,7.9,7.9,0,0,1-.1-5.4c.46-1.71.93-3.32,1.39-4.76a22.12,22.12,0,0,1,3.09-6.4C624.31,272.77,625.05,272.17,625,272.13Z" style="fill:#263238"></path><path d="M640.47,274.47c-.16-.15-.07-.55.33-1a4,4,0,0,1,2-1.14,3.88,3.88,0,0,1,2.32.14c.56.23.82.55.74.75-.16.41-1.36.31-2.7.64S640.8,274.76,640.47,274.47Z" style="fill:#263238"></path></g><g id="freepik--dog-3--inject-23"><path d="M527,282.71c-1.11-.78-2.52-5.47-3.64-5.9a11.15,11.15,0,0,0-1.76-.5l-1-.14L520,261.36s-4.63,4.51-6.33,9.9l-.5-10.72s-5.45,5.31-6.71,11.29c-.41,1.95-.79,3.67-1.11,5.11l-.43.15a12,12,0,0,0-2.65,1.52,11.26,11.26,0,0,0-2.7,2.88l-1.35,2a26.21,26.21,0,0,0-2.56,5.07,18.27,18.27,0,0,0-.64,1.89l-7.72,16.62-2.52,1.62-6.46,4.1-1.44.93c-9.83,6.24-29.24,9.88-41,10.7l-6.49.44-12.16.86A13.87,13.87,0,0,0,411,327.6l-.57-.14-7.08-1.58a5.1,5.1,0,0,0-2.86.07,2.8,2.8,0,0,0-2,1.95V328a2.58,2.58,0,0,0,.71,2.33A5.13,5.13,0,0,0,402,331.9l2.95,1.21c-.18.11-.34.22-.5.34a9.55,9.55,0,0,0-2.83,3,4.5,4.5,0,0,0-.51,1.19,4.25,4.25,0,0,0-.11.44l.32-.32a4,4,0,0,1,.91-.74,7.15,7.15,0,0,1,.83-.43,23.28,23.28,0,0,0-2.77,5.07,34.16,34.16,0,0,1-2.81,6,8.59,8.59,0,0,1-1.35,1.69l-.61.59.75-.39a10.62,10.62,0,0,0,1.85-1.34,18.73,18.73,0,0,0,2.2-2.29c-.24.53-.49,1.07-.71,1.62a24.13,24.13,0,0,0-1.42,5.74c-.11.76-.09,1.42-.12,1.88s0,.7,0,.7l.25-.66a17.93,17.93,0,0,1,.71-1.71c.21-.44.48-.92.76-1.44-.17.82-.35,1.69-.57,2.6-.32.73-.64,1.44-.92,2.06a19.46,19.46,0,0,1-1.17,2.17l-.45.76.62-.62c.32-.3.73-.73,1.18-1.24a31.69,31.69,0,0,1-1.53,4.37c-.29.73-.62,1.26-.82,1.69l-.34.62.52-.48c.32-.34.83-.76,1.35-1.37.28-.3.57-.64.87-1-2.9,4.09-6.74,9.53-7.2,10.2.43-.3,2.24-1.68,4.46-3.37-.3.64-.6,1.22-.89,1.77-.24.25-.48.5-.74.75-1.23,1.16-2.58,2.24-3.59,3s-1.53,1.19-1.67,1.32l2.06-.57c.58-.16,1.28-.36,2-.59-1.16,1.35-2,2.38-2.17,2.56.09,0,.48-.23,1.05-.53l-1.16,1.3-1.07,1c-2.15,2-4.07,3.8-4.33,4.07l5.05-2.08a26.46,26.46,0,0,1-3.42,2.63c-1.47,1-2.56,1.64-2.77,1.76.18,0,.92-.27,2-.62-.18.11-.36.21-.54.34l-4.71,2.81s1.23-.06,2.85-.11l-.06,0a6.81,6.81,0,0,0-1.19,1.32c-1.07.71-1.79,1.23-2,1.35.18-.05,1-.3,2.1-.62-1.87,1.94-3.67,3.8-3.93,4.11.19-.08,1-.36,2.13-.75a12.43,12.43,0,0,0-.84,1.67c-.51,1.1-.85,1.85-.85,1.85s.61-.53,1.51-1.35c.14-.14.34-.29.5-.43,0,.48,0,1-.05,1.51-.23.45-.47.89-.68,1.34a36.52,36.52,0,0,0-1.72,4.48c-.32,1.06-.55,1.81-.61,2,.13-.13.62-.73,1.34-1.59a16.53,16.53,0,0,1,1.26-1.4c-.3.76-.57,1.56-.84,2.33-.51,1.67-1,3.25-1.49,4.43s-.89,1.92-.89,1.92.66-.54,1.6-1.46c.48-.48,1-1.1,1.62-1.76,0,.19,0,.41,0,.6-.12.84-.35,2.17-.71,3.89-.69,3.35,1.55,6.37,3.91,6.37l6.31.18c3.54,0,4.63-3,3.08-5.07-1.23-1.62-3.81-2.51-4.34-4.18.14-.35.36-.85.61-1.42.44,1.44.76,2.53.76,2.53s.62-2.35,1.26-4.73c.27-.73.52-1.44.75-2.12.09.3.19.61.27.85a1,1,0,0,1,0,.72.37.37,0,0,1-.25.17.46.46,0,0,0,.4,0,1.5,1.5,0,0,0,.67-.83c.29-.72.66-1.68,1-2.65s.7-1.82,1-2.55c.2,1.41.34,2.46.34,2.46l.48-1c.19-.39.42-.89.67-1.43a2.68,2.68,0,0,0,.48-.24c0,.12,0,.24-.07.37-.16,1-.28,1.65-.28,1.65s.42-.51,1.05-1.3,1.51-1.88,2.25-3c.27-.36.52-.73.77-1.08,0,.49.07,1,.12,1.31a2.14,2.14,0,0,1-.07,1c-.09.2-.16.32-.18.38a2.38,2.38,0,0,0,1.09-1.25c.37-1,1-2,1.53-3.15a7.5,7.5,0,0,1,.48-.88l.19-.15a7.13,7.13,0,0,0,.91-.85c0,.05,0,.11,0,.16-.48,1.3-.89,2.24-.89,2.24l.64-.5a2.77,2.77,0,0,0,0,.3c-.13,1.27-.2,2.12-.2,2.12s.39-.75,1-1.87a15.12,15.12,0,0,1,1.65-2.59l.85-.82a7.64,7.64,0,0,1-.33,1c-.36,1-.61,1.65-.64,1.78.12-.13.62-.62,1.35-1.34a14.92,14.92,0,0,0,1.94-2.22c-.24.71-.38,1.19-.38,1.19s1.87-1.44,3.7-2.88c-.27,1.16-.52,2-.57,2.15l.37-.49c.24-.34.61-.8,1-1.39,0,.32,0,.64-.07.92a11.74,11.74,0,0,1-.25,1.34c-.07.32-.1.51-.1.51l.3-.41a9.66,9.66,0,0,0,.84-1.15c.58-1,1.44-2.31,2.25-3.57A32.65,32.65,0,0,1,420,382c.27-.36.52-.64.71-.91l-.14.6c-.11.29-.21.54-.3.73-.16.41-.27.64-.27.64s.18-.18.46-.51l.56-.63.56-.9A54.71,54.71,0,0,0,424,375.8c.07-.15.12-.29.18-.43a4.83,4.83,0,0,1-.09,1,.34.34,0,0,1-.27.25.41.41,0,0,0,.46-.12,5.33,5.33,0,0,0,.7-1c.55-.85,1.26-2,2-3.14.83-1.52,1.62-3.15,2.08-4.16.32-.57.64-1.18,1-1.82,0,.75-.07,1.25-.07,1.25l.21-.32c.09.64.14,1.05.14,1.05s.25-.47.64-1.16a22.57,22.57,0,0,1,1.6-2.38l.32-.38c0,.95,0,1.55,0,1.55l.83-1.47a17.9,17.9,0,0,1,2.15-2.92,18.34,18.34,0,0,1,3.77-2.88,115.38,115.38,0,0,1,12.25,2.45c3,.68,6,1.32,8.93,2.1.19.05,10.57,3.59,11.48,3.27.05.2.37,1.51.55,1.41s.07-.8.29-1.12c0,0,.8,2.25.8,2.25l.76-1.13c.75,1.67.69.71.68,2.11-.2.7,1.47-1.05,1.47-1.05l-.11,2.49s2-1.62,2.08-1.74c-.07,1.07-.12,2.08-.17,2.88-.07,1.24-.13,2.06-.13,2.06s.38-.73.93-1.85c.26-.49.53-1.05.85-1.65-.18,1.19-.23,2.13-.23,2.13s.75-.53,1.67-1.12c-.11.29-.2.48-.2.48s.31-.19.8-.55c-.14.29-.26.57-.4.84-1,2.93-2,5.81-2,5.81l1.68-1.69c-.18.66-.38,1.32-.61,2a43.4,43.4,0,0,1-2,4.68c-.66,1.26-1.08,2.1-1.08,2.1l1.74-1.6a11.44,11.44,0,0,0,1.1-1l-1.1,3s.18-.18.44-.48c-1,2.88-1.93,5.45-2,5.83l2.17-2.55a22.28,22.28,0,0,1-1.17,3c-.54,1-1,1.68-1,1.68a17.73,17.73,0,0,0,1.61-1.17c.41-.32.87-.75,1.35-1.19-.83,2-1.49,3.57-1.58,3.82.2-.18,1-1,2.1-2,0,.1-.07.23-.12.33-.54,1.44-1,2.87-1.44,3.91a4.59,4.59,0,0,1-.59,1.2c-.18.26-.27.42-.27.42l.43-.26a5.2,5.2,0,0,0,1.12-.88l.35-.33c-.33,1.44-.64,2.79-1,3.82s-.6,1.65-.64,1.78a17.38,17.38,0,0,0,1.37-1.37c.18-.2.39-.45.61-.68,0,.23,0,.48,0,.71-.09,2.24-.17,4.45-.17,4.45s.26-.36.69-.91v.37c0,.57-.13,1-.14,1.39s-.09.53-.09.53a1.24,1.24,0,0,0,.14-.21c-.3,1.05-.53,1.78-.59,2l1.39-1.71a13.7,13.7,0,0,0,1.23-1.78,10.53,10.53,0,0,1-.45,2.24c-.23.84-.39,1.44-.41,1.57l1.16-1.16a2.64,2.64,0,0,0,.46-.48,12.53,12.53,0,0,1-.3,2.74,8.25,8.25,0,0,1-.34,1l-.14.35.3-.19a5.86,5.86,0,0,0,.87-.66,10.53,10.53,0,0,0,1.51-1.67c.09.89.22,1.74.23,2.35a4,4,0,0,1-.16,1,4.4,4.4,0,0,0,.93-.7c.14-.14.3-.35.46-.53.75,2.4,2.22,5.32,5,5.32l5.46.23a8.85,8.85,0,0,0,1.23-.09c3.64-.5,2.88-3.36,1.4-5.3a7.63,7.63,0,0,0-2.91-2,1,1,0,0,1,0-.13,6.3,6.3,0,0,0-.34-1.19,20.43,20.43,0,0,0-1.12-2.26.5.5,0,0,0,0-.19,3.06,3.06,0,0,0-.11-1.09c-.23-.85-.53-2-.83-3.11-.13-.44-.25-.89-.38-1.31v-.09h0c-.34-1.18-.63-2.24-.8-2.83,0-.71,0-1.47,0-2.22,0-.34,0-.68.08-1a6.6,6.6,0,0,1,.46,1.51c.19,1.13.34,1.9.34,1.9s.19-.77.49-1.9a8.6,8.6,0,0,0,.27-2.08c0-.39.05-.8.07-1.23s-.05-.8-.07-1.21-.07-.8-.11-1.17c.07.25.15.5.2.67l.14.54s0-.2.09-.54a6.5,6.5,0,0,0,.18-1.42,31,31,0,0,0-.38-4.35c0-.45-.05-.91-.05-1.34.21.78.36,1.26.36,1.26s.39-3.85.76-7.64l.57,1.81s.37-3.11.76-6.27c0-.22.09-.43.15-.64.12.41.21.82.28,1.19.25,1.12.43,1.87.43,1.87s.16-.75.42-1.89.48-2.67.73-4.25a2.72,2.72,0,0,0,0-.39l0,.07.45-1.44a14.72,14.72,0,0,0,.41-1.58,2.55,2.55,0,0,0,.07-.32.57.57,0,0,0,.05.12s0-.81,0-2.06v-.55c.12.36.23.68.3,1,.23.84.39,1.39.39,1.39l.45-1.39c.3-.87.55-2,.85-3.15.14-.56.32-1.08.48-1.58.07-.25.16-.48.23-.71s.2-.37.3-.53.15-.29.22-.41c.32-.25.6-.48.87-.68.05,2.88.11,5.35.11,5.35s.72-1.92,1.65-4.28c.09.44.19.84.25,1.12l.16.62s0-.23.07-.64a14.69,14.69,0,0,1,.27-1.67c.24-1.35.85-3.13,1.33-5,.09-.29.16-.59.23-.89-.05.55-.14,1-.18,1.37s-.1.71-.1.71l.32-.62a12.59,12.59,0,0,0,.81-1.75,19.8,19.8,0,0,0,1.12-5.84v-.08a7,7,0,0,1,.18,1,9.41,9.41,0,0,1,0,1.8c0,.44,0,.71,0,.71l.25-.66a8.56,8.56,0,0,0,.6-1.79,18.14,18.14,0,0,0,.27-4.7.79.79,0,0,0,0,.2c.48,2,.78,3.38.78,3.38l0-3.49c0-1,.06-2.06,0-3.3v-.31c0-.33,0-.67,0-1s-.1-.73-.16-1.1a7.15,7.15,0,0,0-.33-1.51c.17.39.33.76.46,1.14a8.8,8.8,0,0,1,.41,1.35,5.73,5.73,0,0,1,.19,1.08l.11,1s.05-.35.12-1a6.28,6.28,0,0,0,.08-1.14,10,10,0,0,0-.08-1.49,29,29,0,0,0-2.13-7.39c0-.73-.11-1.27-.11-1.27l-.17-10.43,6.54-14.9,1.78.59c.46.81,1,1.7,1.53,2.54a10.67,10.67,0,0,1,.9,1.69,12.24,12.24,0,0,1,.28,2.77c0,1.69,2-2.24,2-2.24s.45,2,.67,3.7,2.58-2.47,2.58-2.47a11.18,11.18,0,0,0,.12,3.82c.45,1.35,2.36-2.92,2.36-2.92l1.12,4.16,2.92-3.26a11.47,11.47,0,0,0,.22,3.71c.45,1.12,3.11-6.74,3.11-6.74a.41.41,0,0,0,.07-.11c.07-.19.18-.39.27-.58a.35.35,0,0,1,0-.06c.57-1.29,1.14-2.61,1.64-3.73A4,4,0,0,0,541,302a.07.07,0,0,0,0-.06,2.67,2.67,0,0,0,.25-.51l3-7.2.19-.43a4.52,4.52,0,0,0-3.16-6.13l-5.51-1.35-1.46-.36-3.91-1a8.19,8.19,0,0,1-3.38-2.24l.08,0,.52.17,0,0M497.4,409.27l.42.43-.41-.2C497.41,409.43,497.4,409.34,497.4,409.27Z" style="fill:#455a64"></path><path d="M543.49,295.12A1.63,1.63,0,0,1,542.3,293c.06-.16.15-.35.06-.51a.56.56,0,0,0-.31-.2,2.1,2.1,0,0,1-1.35-1.95,1.83,1.83,0,0,1,1.52-1.74,3.31,3.31,0,0,1,1.86.53c.6.31,1.28.71,1.38,1.38a2.13,2.13,0,0,1-.22,1.07,26,26,0,0,1-1.75,3.5" style="fill:#263238"></path><path d="M522.32,284.31a2.43,2.43,0,0,1-.25,1.15,1,1,0,0,1-.77.57.72.72,0,0,1-.65-.44c-.21-.46-.49-1.29,0-1.6a1.33,1.33,0,0,1,1.72.36" style="fill:#263238"></path><path d="M518.05,284.9c-.19-.09-.24-.5,0-1.07a4,4,0,0,1,1.56-1.78,4,4,0,0,1,2.28-.64c.62,0,1,.26,1,.47,0,.46-1.22.76-2.39,1.53S518.47,285.08,518.05,284.9Z" style="fill:#263238"></path></g><g id="freepik--dog-2--inject-23"><path d="M342.46,338.94c0,.44,9.29,68.48,9.29,68.48s12.33,1,14,9.81H343.61s-13.59-40-17.82-43.34a61.16,61.16,0,0,0-11-6.4l6.2-2.61-4.23-5.35s2,2.25,4.51-1.41" style="fill:#5B9BD5"></path><path d="M362.68,417.23c-.08,0-.15-.67-.5-1.68a8.48,8.48,0,0,0-5.76-5.48c-1-.3-1.7-.34-1.69-.42a3.56,3.56,0,0,1,1.78.07,7.88,7.88,0,0,1,6,5.73A3.58,3.58,0,0,1,362.68,417.23Z" style="fill:#263238"></path><path d="M341.92,346.2a4.88,4.88,0,0,1,.27,1.1,27.81,27.81,0,0,1,.45,3.09,36.44,36.44,0,0,1,.16,4.62,42.07,42.07,0,0,1-.55,5.64,42.49,42.49,0,0,1-1.37,5.5,37.82,37.82,0,0,1-1.7,4.3,27.37,27.37,0,0,1-1.45,2.75,4.93,4.93,0,0,1-.63.95,5.31,5.31,0,0,1,.47-1c.34-.65.8-1.61,1.32-2.81a44.43,44.43,0,0,0,1.59-4.29,45.86,45.86,0,0,0,1.32-5.45,46.64,46.64,0,0,0,.58-5.58,42.13,42.13,0,0,0-.06-4.58c-.09-1.3-.2-2.35-.3-3.08A5.9,5.9,0,0,1,341.92,346.2Z" style="fill:#263238"></path><path d="M251.35,376.35c-7.36,2.32-15.29-3.87-17.44-11.29s0-15.37,2.69-22.6,6.1-14.42,6.49-22.13c.46-8.86-3.61-18.15-11.22-22.71s-18.59-3.33-24.09,3.63-3.41,18.94,4.63,22.68c-2.15-1.19-4.41-2.42-6.87-2.5s-5.16,1.4-5.6,3.82,1.41,4.58,3.36,6,4.24,2.62,5.45,4.73c1.91,3.31.44,7.43-.46,11.14a34.91,34.91,0,0,0,51.55,38.37" style="fill:#5B9BD5"></path><g style="opacity:0.30000000000000004"><path d="M249.43,376.9c-.89.68-2.2-.29-3.27,0-.8.24-1.21,1.11-1.49,1.9a11.86,11.86,0,0,0-.71,6.3,5.61,5.61,0,0,0,4.13,4.43,1.41,1.41,0,0,0,1.51-.45,1.6,1.6,0,0,0,.13-.87q-.14-5.4-.29-10.82"></path></g><path d="M281.25,417.23l-5.66-33.72,22.64-6c4.54,1.24,8.57,4.94,10.75,9.86s1.24,13.3-.46,18.48a45.63,45.63,0,0,1,13.39,1.56c4.2,1.44,8.33,4.63,7.72,9.8Z" style="fill:#5B9BD5"></path><g style="opacity:0.30000000000000004"><path d="M281.25,417.23l-5.66-33.72,22.64-6c4.54,1.24,8.57,4.94,10.75,9.86s1.24,13.3-.46,18.48a45.63,45.63,0,0,1,13.39,1.56c4.2,1.44,8.33,4.63,7.72,9.8Z"></path></g><path d="M260.22,417.23H315.3c-.27-12.78-9.58-11.37-9.58-11.37H293c7-3.93,9-13.9,9-13.9,13.3-3.56,23.93-19.32,23.93-19.32l10.37-21.4.53,7.73,4.78-9.81c4.52-17.24-9-42.51-9-42.51l10.63.3c0-5.65-6.91-5.65-12-6.84s-3.19-7.73-3.19-7.73,12,1.49,16.75-4.16,2.39-13.68,2.39-13.68l-17.28,2.08c-2.4-2.67-10.9-6.54-16.49-5.05s-15.95,9.51-17.81,14S293,304.27,292,316.46s-8.62,20.21-15.53,27.94-17,13.08-23.93,21.4c-2.16,2.6-3.22,7.09-3.67,12a56.36,56.36,0,0,0,9.2,36.2Z" style="fill:#5B9BD5"></path><path d="M337.44,341.92c0,.44.33,65.5.33,65.5s12.34,1,14,9.81H329.63s-13.59-40-17.81-43.34a61.16,61.16,0,0,0-11-6.4l6.19-2.61-4.22-5.35s2,2.25,4.5-1.41" style="fill:#5B9BD5"></path><path d="M311.06,278.75a2.66,2.66,0,0,1,0,.52c0,.4,0,.89,0,1.49,0,1.36,0,3.21,0,5.46v8.11a41.92,41.92,0,0,1-.19,4.81,13.17,13.17,0,0,1-1.44,5,7,7,0,0,1-4,3.3,8.1,8.1,0,0,1-4.86-.15,8.53,8.53,0,0,1-3.68-2.4,10,10,0,0,1-1.94-3.3,12.81,12.81,0,0,1-.64-5.44,12.37,12.37,0,0,1,.23-1.48,1.89,1.89,0,0,1,.15-.5s-.11.71-.18,2a13.14,13.14,0,0,0,.78,5.31,9.86,9.86,0,0,0,1.91,3.14,8.31,8.31,0,0,0,3.52,2.24,7.72,7.72,0,0,0,4.57.11,6.52,6.52,0,0,0,3.72-3.07,13,13,0,0,0,1.4-4.81,45.57,45.57,0,0,0,.21-4.75c0-3,.08-5.78.11-8.11s.09-4.1.12-5.46c0-.6.05-1.09.06-1.49A1.81,1.81,0,0,1,311.06,278.75Z" style="fill:#263238"></path><path d="M342,275.24a3.46,3.46,0,0,0,.63,2.55,4.88,4.88,0,0,0,2,1.5,4.65,4.65,0,0,0,3.21.48,13.18,13.18,0,0,0-.16-4.06,1.5,1.5,0,0,0-.57-1.07,1.47,1.47,0,0,0-.68-.15,10.73,10.73,0,0,0-4.45.75" style="fill:#263238"></path><path d="M337.44,403.45c-.14,0-.18-13.91-.09-31.06s.28-31.07.42-31.07.18,13.91.09,31.07S337.58,403.45,337.44,403.45Z" style="fill:#263238"></path><path d="M312.23,417.23c-.08,0,.06-.68,0-1.73a7.61,7.61,0,0,0-1.33-3.81,7.48,7.48,0,0,0-3.13-2.54c-1-.43-1.64-.52-1.63-.6a3.36,3.36,0,0,1,1.76.26,7,7,0,0,1,4.69,6.68A3.22,3.22,0,0,1,312.23,417.23Z" style="fill:#263238"></path><path d="M277.11,377.35a2.2,2.2,0,0,1,.47-.22c.31-.14.78-.31,1.39-.51a20.9,20.9,0,0,1,5.38-.92,18.77,18.77,0,0,1,8,1.36,17.12,17.12,0,0,1,7.74,6.12,13.6,13.6,0,0,1,2,4.78,15.06,15.06,0,0,1,.15,4.81,16.78,16.78,0,0,1-2.92,7.54,25.21,25.21,0,0,1-3.74,4c-.49.43-.87.75-1.13,1a2.42,2.42,0,0,1-.42.3,2.41,2.41,0,0,1,.35-.38l1.06-1a28.32,28.32,0,0,0,3.58-4,16.7,16.7,0,0,0,2.75-7.39,14.35,14.35,0,0,0-.17-4.65,13.18,13.18,0,0,0-1.94-4.59,16.85,16.85,0,0,0-7.5-6,19.06,19.06,0,0,0-7.78-1.43,22.44,22.44,0,0,0-5.33.75C277.79,377.14,277.13,377.39,277.11,377.35Z" style="fill:#263238"></path><path d="M318.9,385.63a1.46,1.46,0,0,1-.2-.28l-.51-.82c-.43-.73-1.05-1.81-1.79-3.18s-1.62-3-2.55-5a51.42,51.42,0,0,1-2.73-6.6l.44,0-1.86,3.53-.23.43-.22-.44a10.5,10.5,0,0,1-1-5.71,10,10,0,0,1,.35-1.83l.45.22-3.21,4.19-.35.45-.09-.56a39,39,0,0,1,.35-14.52,35.53,35.53,0,0,1,1.12-4.08c.16-.47.31-.83.4-1.07s.15-.36.17-.35a12.89,12.89,0,0,1-.41,1.47c-.27.94-.64,2.33-1,4.1a40.84,40.84,0,0,0-.17,14.37l-.43-.11c1-1.33,2.09-2.74,3.19-4.2l.83-1.08-.38,1.31a10.1,10.1,0,0,0-.34,1.74,10.23,10.23,0,0,0,.94,5.45h-.44l1.88-3.52.27-.51.17.55a54.42,54.42,0,0,0,2.63,6.57c.9,1.93,1.74,3.61,2.45,5l1.67,3.24A8.56,8.56,0,0,1,318.9,385.63Z" style="fill:#263238"></path><path d="M348.71,417.23c-.08,0-.15-.67-.5-1.68a8.53,8.53,0,0,0-5.76-5.48c-1-.3-1.7-.34-1.7-.42a3.61,3.61,0,0,1,1.79.07,7.89,7.89,0,0,1,6,5.73A3.52,3.52,0,0,1,348.71,417.23Z" style="fill:#263238"></path><g style="opacity:0.30000000000000004"><path d="M306.31,351a30.66,30.66,0,0,0-4.08,11.09,14.58,14.58,0,0,0,2.94,11.18A23,23,0,0,0,309.7,377l4.68,3.23a13.57,13.57,0,0,0-3.31-9.69l-1.08,3a8.26,8.26,0,0,1-1.59-7q-1.62,1.72-3.23,3.46A96.34,96.34,0,0,1,307,351.11"></path></g><g style="opacity:0.30000000000000004"><path d="M294.46,297.23c.1,3,.54,6.44,2.33,8.91a8.58,8.58,0,0,0,7.87,3.74c3.71-.54,6.39-4.11,7.11-7.79s-.08-7.47-.89-11.13c.19,3.42.37,7-.81,10.16s-4.06,6.06-7.49,6.07a7.51,7.51,0,0,1-6-3.35,10.9,10.9,0,0,1-2.14-6.61"></path></g><path d="M264.26,357.48a8.47,8.47,0,0,1,1.6-2.43,8.58,8.58,0,0,1,2-2.11,8.5,8.5,0,0,1-1.6,2.43A8.38,8.38,0,0,1,264.26,357.48Z" style="fill:#263238"></path><path d="M265.53,357.9c-.12-.08.29-.85.9-1.72s1.2-1.5,1.31-1.42-.28.85-.9,1.72S265.64,358,265.53,357.9Z" style="fill:#263238"></path><path d="M268.79,358.44c-.13,0-.16-.73-.06-1.59s.3-1.55.44-1.53.17.73.06,1.59S268.93,358.45,268.79,358.44Z" style="fill:#263238"></path><path d="M294.66,340.24a10.11,10.11,0,0,1-.17-4.51,5.25,5.25,0,0,1,.34,2.24A5.39,5.39,0,0,1,294.66,340.24Z" style="fill:#263238"></path><path d="M296.43,340.75a3.68,3.68,0,0,1-.86-2.27,3.6,3.6,0,0,1,.32-2.41,19.59,19.59,0,0,1,.19,2.35A16.11,16.11,0,0,1,296.43,340.75Z" style="fill:#263238"></path><path d="M299.21,341.26a4.28,4.28,0,0,1-1.49-2.11,4.37,4.37,0,0,1-.49-2.55,14.31,14.31,0,0,1,1,2.35A14.5,14.5,0,0,1,299.21,341.26Z" style="fill:#263238"></path><path d="M319.84,313.69c0,.12-1-.26-1.69-1.26a2.5,2.5,0,0,1-.6-2c.15,0,.39.85,1,1.73S319.92,313.56,319.84,313.69Z" style="fill:#263238"></path><path d="M321.22,313.35c-.05.13-.78-.11-1.4-.79s-.8-1.41-.68-1.46.5.52,1.05,1.12S321.29,313.23,321.22,313.35Z" style="fill:#263238"></path><path d="M324,313.7a5,5,0,0,1-3.3-3.46c.13-.07.68.86,1.58,1.8S324.07,313.57,324,313.7Z" style="fill:#263238"></path><path d="M299.11,293.07c-.14,0-.32-.67-.41-1.53s-.05-1.58.09-1.59.33.67.41,1.54S299.25,293.06,299.11,293.07Z" style="fill:#263238"></path><path d="M300.59,292.37c-.13.05-.51-.65-.61-1.6s.13-1.72.26-1.69.15.75.25,1.64S300.72,292.32,300.59,292.37Z" style="fill:#263238"></path><path d="M302.15,293.06c-.11.07-.65-.69-.91-1.8s-.11-2,0-2,.22.87.47,1.9S302.28,293,302.15,293.06Z" style="fill:#263238"></path><path d="M268.46,393.64a7.4,7.4,0,0,1,.28-2.65,6.86,6.86,0,0,1,.77-2.55,7.4,7.4,0,0,1-.28,2.65A6.86,6.86,0,0,1,268.46,393.64Z" style="fill:#263238"></path><path d="M270.06,392.09c-.13,0-.13-.67,0-1.44s.38-1.36.51-1.34.14.67,0,1.44S270.2,392.11,270.06,392.09Z" style="fill:#263238"></path><path d="M211.28,340.31c-.15,0,0-1.76-.37-3.85s-1.14-3.66-1-3.73a7.4,7.4,0,0,1,1.5,3.64A7.13,7.13,0,0,1,211.28,340.31Z" style="fill:#263238"></path><path d="M347.8,281.11a2.66,2.66,0,0,1-.1.88,16.09,16.09,0,0,1-2.27,5.52,10.29,10.29,0,0,1-3.11,3.13,14.12,14.12,0,0,1-4.1,1.61,20.78,20.78,0,0,1-3.53.52,17.88,17.88,0,0,1-2.41,0,2.37,2.37,0,0,1-.88-.12c0-.08,1.26,0,3.25-.26a23.2,23.2,0,0,0,3.46-.62,14.3,14.3,0,0,0,3.94-1.59,10,10,0,0,0,3-2.95,17.24,17.24,0,0,0,1.66-3.08C347.48,282.32,347.71,281.09,347.8,281.11Z" style="fill:#263238"></path><path d="M323,280.76a1.53,1.53,0,1,0,.11,0" style="fill:#263238"></path><path d="M317,281.88c-.2,0-.48-.23-.65-.8a3.79,3.79,0,0,1,.09-2.24,3.88,3.88,0,0,1,1.3-1.84c.49-.34.88-.38,1-.22.26.35-.44,1.28-.85,2.55S317.44,281.75,317,281.88Z" style="fill:#263238"></path><path d="M284.43,335.17a25.54,25.54,0,0,1-11.08,7.09,5,5,0,0,0,2.64.85,16.65,16.65,0,0,1-5.37,2.14,8.35,8.35,0,0,0,12-7.2" style="fill:#5B9BD5"></path><path d="M192.08,322a6.18,6.18,0,0,1-.54-1.18,13.8,13.8,0,0,1-.52-1.43c-.17-.57-.4-1.21-.56-1.94a30.64,30.64,0,0,1-.83-5.2,35.3,35.3,0,0,1,.16-6.44,34.69,34.69,0,0,1,1.45-6.28,30.66,30.66,0,0,1,2.1-4.83c.33-.67.71-1.23,1-1.74a12.53,12.53,0,0,1,.86-1.25,5.22,5.22,0,0,1,.82-1c.08.06-1,1.53-2.38,4.17a33.58,33.58,0,0,0-2,4.8,38.28,38.28,0,0,0-1.38,6.2,37.35,37.35,0,0,0-.2,6.35,33.71,33.71,0,0,0,.71,5.15C191.45,320.21,192.18,321.92,192.08,322Z" style="fill:#263238"></path><path d="M184.8,317.84a3,3,0,0,1-.36-.78,16.29,16.29,0,0,1-.67-2.24,23,23,0,0,1-.46-7.68,23.37,23.37,0,0,1,2.07-7.41,16.43,16.43,0,0,1,1.13-2c.31-.46.49-.71.52-.69s-.56,1.09-1.32,2.88a26.7,26.7,0,0,0-1.9,7.32,26.23,26.23,0,0,0,.31,7.55C184.48,316.66,184.88,317.81,184.8,317.84Z" style="fill:#263238"></path><path d="M252.62,319.78c-.11,0,.11-1.77-.17-4.6a21.77,21.77,0,0,0-.33-2.29c-.13-.82-.37-1.68-.61-2.59a30.5,30.5,0,0,0-2.29-5.62,31,31,0,0,0-3.45-5c-.63-.69-1.21-1.37-1.83-1.93a22.71,22.71,0,0,0-1.74-1.53c-2.21-1.78-3.81-2.57-3.76-2.66a5.82,5.82,0,0,1,1.13.53,10.88,10.88,0,0,1,1.26.74,24.22,24.22,0,0,1,3.39,2.62,24.7,24.7,0,0,1,1.9,1.92,29.26,29.26,0,0,1,3.54,5.07,29.91,29.91,0,0,1,2.31,5.75,24.09,24.09,0,0,1,.56,2.64,24.18,24.18,0,0,1,.34,4.27,10.24,10.24,0,0,1-.08,1.46A6.39,6.39,0,0,1,252.62,319.78Z" style="fill:#263238"></path></g><g id="freepik--dog-1--inject-23"><path d="M139.34,392.85v10s-8.54-.72-8.79,7h9.39l7.58-5.77.72-13Z" style="fill:#455a64"></path><path d="M113.4,384.75s0,5.51-4.56,13.53l-3.3,4.72,3.89,9.72s6,.34,6.51,4.27h-9.77l-7.08-11.31a15.69,15.69,0,0,0,1.57-9.76,76.82,76.82,0,0,0-3.3-13.05l6.88-2.26Z" style="fill:#455a64"></path><path d="M108.17,346.24a19.61,19.61,0,0,0-4-2.72,13.38,13.38,0,0,0-16.92,19.61l3.23-2.54a5.09,5.09,0,0,1,.57-4.56,14.66,14.66,0,0,1,3.3-3.42c2.58-2.15,5.78-4.42,9-3.5,1.15.32,2.16,1,3.33,1.3s2.65-.15,3-1.31S109,347,108.17,346.24Z" style="fill:#455a64"></path><path d="M88.2,362a9.87,9.87,0,0,1,6.51-3.68,53,53,0,0,1,7.65-.48c5.12.13,31.61,3.54,31.61,3.54l14-3.54,11.54-8.66s11.15-6.95,16.27-6.42a22.47,22.47,0,0,1,9.31,3.41l2.76,3.41,11.41,4.06s-1.18,4.46-3,5.77-4.85,2-8,2.76-9.58.66-12.46,4.85-9.71,11.28-9.71,11.28-5,11.68-10.1,13.91-13,4.85-19.54,3.15-29.39-11.94-29.91-12.07-5.38-3.41-8.53,1.44-5.77,10.1-15.48,13.78c0,0-3.8,1.83-4.33,5.11S75.73,417,75.73,417s-4.06-1.84-4.33-5.38,1.18-3.67,1.18-3.67l1-13s3.41-.78,6.43-4.85a40.65,40.65,0,0,0,4.51-7.63,105.27,105.27,0,0,1-.69-11.82C84,367.94,86.26,364.46,88.2,362Z" style="fill:#263238"></path><path d="M185.13,346.16a22.47,22.47,0,0,0-9.31-3.41c-2.75-.29-7.22,1.59-10.79,3.38l3.65,7.07a11.57,11.57,0,0,0,5.27,7.07,5.67,5.67,0,0,0,1.74.82,4.61,4.61,0,0,0,3.82-1.07c.76-.61,1.38-1.38,2.15-2a10.64,10.64,0,0,1,5.47-1.78,7.1,7.1,0,0,0,3.75-1.07,6.57,6.57,0,0,0,1.9-3.84l0-.05-4.87-1.73Z" style="fill:#455a64"></path><path d="M144.57,382.28s4.43,12.34,9.5,16.45S168.87,417,168.87,417h12.65s-2.34-4.39-6.69-5.23c0,0-5.75-2.56-6.64-5.85s-8-28.43-8-28.43-8.7-7.23-12.07-2.35S144.57,382.28,144.57,382.28Z" style="fill:#263238"></path><path d="M174.72,343.44a5.7,5.7,0,0,0-6.48-1.39,8.91,8.91,0,0,0-3.4,3.11,39.57,39.57,0,0,1-2.74,3.78,1.76,1.76,0,0,0-.5.82c-.07.49.32.91.68,1.25a7.81,7.81,0,0,0,1.46,1.17c1.8,1,4,.33,5.91-.45a11,11,0,0,0,3-1.65,4.25,4.25,0,0,0,1.6-2.94C174.07,347.33,174.89,343.63,174.72,343.44Z" style="fill:#455a64"></path><path d="M186.74,349.81c-.06.05-.26-.13-.63-.24a1.45,1.45,0,0,0-1.35.25,6.13,6.13,0,0,0-1,1.25c-.25.35-.44.55-.51.52s0-.3.17-.71a3.84,3.84,0,0,1,1-1.48,1.65,1.65,0,0,1,1-.38,1.61,1.61,0,0,1,.84.2C186.69,349.47,186.8,349.78,186.74,349.81Z" style="fill:#263238"></path><path d="M185.6,349.26a1,1,0,0,0-1,.37,1.33,1.33,0,0,0-.4,1.08.77.77,0,0,0,0,.37v0a1.23,1.23,0,0,0,.35.47.93.93,0,0,0,.38.2.78.78,0,0,0,.81-.4,1.94,1.94,0,0,0,.24-.92C186.08,350,186,349.42,185.6,349.26Z" style="fill:#263238"></path><path d="M197.73,353.05a1.37,1.37,0,0,0-1.61,1.56.28.28,0,0,0,.12.23c.13.06.27-.07.39-.15a.65.65,0,0,1,.62,0,.31.31,0,0,1,.18.38.66.66,0,0,1-.23.17.62.62,0,0,0-.13.78,1.72,1.72,0,0,0,.6.6.87.87,0,0,0,.61.22c.29-.05.45-.37.55-.64.3-.76.59-1.52.88-2.27a.35.35,0,0,0,0-.13.3.3,0,0,0-.15-.2,3.32,3.32,0,0,0-2-.59" style="fill:#455a64"></path><path d="M172.65,350.08a7.06,7.06,0,0,1-2.89,1.82,11.28,11.28,0,0,1-3.62,1,4.75,4.75,0,0,1-2.25-.37,7,7,0,0,1-1.93-1.46,1.84,1.84,0,0,1-.64-1.2,1.8,1.8,0,0,1,.63-1.16,19.89,19.89,0,0,0,1.32-1.69,28.78,28.78,0,0,1,2.2-3,8.15,8.15,0,0,1,1.91-1.64,2,2,0,0,1,.86-.35,10.61,10.61,0,0,0-2.48,2.23c-.66.81-1.31,1.86-2.08,3a15.78,15.78,0,0,1-1.34,1.76c-.26.29-.49.55-.48.81a1.28,1.28,0,0,0,.48.82,6.71,6.71,0,0,0,1.77,1.36,4.26,4.26,0,0,0,2,.35,11.36,11.36,0,0,0,3.49-.87,16.66,16.66,0,0,0,2.25-1A4.75,4.75,0,0,1,172.65,350.08Z" style="fill:#263238"></path><path d="M150,356.4c1.26,1.78.78,4.36-.57,6.07A13.2,13.2,0,0,1,144,366a23,23,0,0,0-5.8,3c-3.08,2.51-4.62,6.91-8.31,8.39a8.71,8.71,0,0,1-5.79,0,25.8,25.8,0,0,1-5.29-2.62c-2.63-1.56-5.58-3.62-5.69-6.67-2.89,0-6-.37-8.24-2.14s-2.36-5.92-.51-8.14l29.88,3.41L148,357.83Z" style="fill:#455a64"></path><path d="M152.18,396.75a9.68,9.68,0,0,1-1.48-1.86,45.94,45.94,0,0,1-5.31-10.14,9.33,9.33,0,0,1-.68-2.28c.16-.05,1.43,3.33,3.5,7.27S152.32,396.65,152.18,396.75Z" style="fill:#455a64"></path><path d="M146,381.85a5.49,5.49,0,0,1-.81-5.24c.15,0,0,1.22.26,2.64S146.17,381.78,146,381.85Z" style="fill:#263238"></path><path d="M147.62,383.1c-.13.07-.64-.62-1-1.6s-.4-1.84-.26-1.87.42.75.77,1.69S147.75,383,147.62,383.1Z" style="fill:#455a64"></path><path d="M103.59,377.75c-.16,0,0-1.67-.43-3.63s-1.27-3.39-1.13-3.47a7.79,7.79,0,0,1,1.56,7.1Z" style="fill:#455a64"></path><path d="M102.07,379.84c-.13-.08.28-.9.37-2s-.14-1.95,0-2,.65.83.52,2.06S102.18,379.93,102.07,379.84Z" style="fill:#455a64"></path><path d="M112.59,349.64c-.09,0,0-.45-.14-1.14a6.05,6.05,0,0,0-.92-2.47,6.14,6.14,0,0,0-1.9-1.84c-.59-.36-1-.5-1-.58s.48-.05,1.16.24a5.21,5.21,0,0,1,3,4.63C112.83,349.22,112.65,349.66,112.59,349.64Z" style="fill:#263238"></path><path d="M115.66,348a16,16,0,0,0-1.11-3,15.52,15.52,0,0,0-2.09-2.38,4.93,4.93,0,0,1,3.2,5.34Z" style="fill:#263238"></path></g><g id="freepik--Plants--inject-23"><path d="M718.19,374.56a8.17,8.17,0,0,1,5,3.94,14.39,14.39,0,0,1,1.73,6.27c.3,4.22-1.28,8.83-3.19,12.61-4-2.4-5.83-7.55-6.58-10.22-1.17-4.22-.72-12.57,3-12.6" style="fill:#5B9BD5"></path><path d="M727.07,403.45a7,7,0,0,1,1-6.91,9.24,9.24,0,0,1,6.31-3.33,3.89,3.89,0,0,1,3.19.78,3,3,0,0,1,.59,2.95,6,6,0,0,1-1.79,2.57c-2.67,2.45-5.7,4.34-9.3,3.94" style="fill:#5B9BD5"></path><path d="M725,417a5,5,0,0,1,0-.87c0-.62,0-1.41,0-2.37a24.42,24.42,0,0,1,1-7.78,14.9,14.9,0,0,1,4.22-6.57,9.8,9.8,0,0,1,2-1.35,5.1,5.1,0,0,1,.58-.27c.14-.06.22-.08.22-.07a15.78,15.78,0,0,0-2.63,1.85,15.36,15.36,0,0,0-4.08,6.51,26.08,26.08,0,0,0-1.09,7.68c0,1-.06,1.81-.09,2.38A5,5,0,0,1,725,417Z" style="fill:#263238"></path><path d="M718.41,381a1.62,1.62,0,0,1,.12.36c.06.27.15.62.26,1.05.22.92.52,2.25.88,3.9.72,3.29,1.65,7.86,2.57,12.92s1.64,9.67,2.12,13c.24,1.67.42,3,.53,4,.06.44.1.8.13,1.08a2.06,2.06,0,0,1,0,.37,1.38,1.38,0,0,1-.08-.37c-.05-.27-.11-.63-.18-1.07-.16-1-.37-2.3-.64-3.94-.53-3.33-1.29-7.92-2.2-13s-1.81-9.63-2.48-12.94c-.33-1.62-.6-2.95-.79-3.91-.08-.44-.15-.79-.2-1.07A1.71,1.71,0,0,1,718.41,381Z" style="fill:#263238"></path><path d="M721.51,407.09A16.26,16.26,0,0,0,710.6,397c-1.26-.34-2.85-.42-3.65.62s-.29,2.56.4,3.68a13.89,13.89,0,0,0,14.14,6.15" style="fill:#5B9BD5"></path><path d="M711.89,400.81a3.74,3.74,0,0,1,.8.18c.26.07.57.16.92.29s.76.26,1.19.47.9.41,1.38.69a16.13,16.13,0,0,1,1.52.94,18.31,18.31,0,0,1,3,2.7,17.86,17.86,0,0,1,2.3,3.37,16,16,0,0,1,.73,1.62,14.66,14.66,0,0,1,.48,1.47,10.93,10.93,0,0,1,.29,1.25,7,7,0,0,1,.15.95,4.14,4.14,0,0,1,.06.82c-.07,0-.16-1.16-.7-3-.15-.44-.3-.93-.52-1.43a14.87,14.87,0,0,0-.74-1.59,18.24,18.24,0,0,0-2.28-3.29,18.74,18.74,0,0,0-3-2.68,15.6,15.6,0,0,0-1.47-.94,14,14,0,0,0-1.35-.72C713,401.16,711.88,400.87,711.89,400.81Z" style="fill:#263238"></path><path d="M175,374.3a8.14,8.14,0,0,1,5,3.94,14.25,14.25,0,0,1,1.73,6.27c.3,4.22-1.27,8.83-3.19,12.61-4.05-2.4-5.83-7.55-6.57-10.22-1.17-4.23-.73-12.57,3-12.6" style="fill:#5B9BD5"></path><path d="M183.83,403.19a7,7,0,0,1,1-6.91,9.22,9.22,0,0,1,6.31-3.33,3.9,3.9,0,0,1,3.18.77,3,3,0,0,1,.59,3,6,6,0,0,1-1.79,2.57c-2.67,2.45-5.7,4.33-9.3,3.94" style="fill:#5B9BD5"></path><path d="M181.71,416.7a5,5,0,0,1,0-.87v-2.38a24.28,24.28,0,0,1,1-7.77,14.85,14.85,0,0,1,4.23-6.57,9.78,9.78,0,0,1,2-1.35,4.42,4.42,0,0,1,.59-.27c.13-.06.21-.08.21-.07a15.78,15.78,0,0,0-2.63,1.85,15.36,15.36,0,0,0-4.08,6.51,26.42,26.42,0,0,0-1.09,7.68c0,1-.06,1.81-.09,2.37A4.14,4.14,0,0,1,181.71,416.7Z" style="fill:#263238"></path><path d="M175.18,380.68a3.52,3.52,0,0,1,.11.37c.07.27.15.62.26,1.05.22.92.52,2.25.88,3.9.72,3.29,1.66,7.86,2.57,12.92s1.64,9.67,2.12,13c.24,1.67.42,3,.54,3.95l.12,1.08a1.37,1.37,0,0,1,0,.38,1.54,1.54,0,0,1-.08-.37c-.05-.28-.11-.63-.18-1.07-.16-1-.37-2.31-.63-3.94-.54-3.33-1.29-7.92-2.21-13s-1.81-9.63-2.48-12.93c-.33-1.62-.59-3-.79-3.91-.08-.44-.15-.79-.2-1.07A1.32,1.32,0,0,1,175.18,380.68Z" style="fill:#263238"></path><path d="M178.27,406.83a16.26,16.26,0,0,0-10.9-10.1c-1.27-.35-2.86-.43-3.65.62s-.3,2.56.39,3.67a13.9,13.9,0,0,0,14.14,6.16" style="fill:#5B9BD5"></path><path d="M168.66,400.55a3.18,3.18,0,0,1,.8.18,8.31,8.31,0,0,1,.91.29c.35.14.77.26,1.19.47s.91.41,1.39.69a17.41,17.41,0,0,1,1.51.94,17.87,17.87,0,0,1,3,2.7,17.1,17.1,0,0,1,2.3,3.37,15.1,15.1,0,0,1,.73,1.62c.21.52.35,1,.49,1.47s.2.88.29,1.24a6.94,6.94,0,0,1,.14,1,4.08,4.08,0,0,1,.06.81c-.07,0-.16-1.16-.7-3-.15-.44-.3-.93-.52-1.44a15.72,15.72,0,0,0-.74-1.58,18.3,18.3,0,0,0-2.28-3.3,18.6,18.6,0,0,0-3-2.67,17.31,17.31,0,0,0-1.48-1c-.47-.29-.93-.5-1.35-.71C169.77,400.89,168.64,400.61,168.66,400.55Z" style="fill:#263238"></path></g><g id="freepik--Floor--inject-23"><path d="M728,417.27c0,.15-158.05.26-353,.26s-353-.11-353-.26S180,417,375,417,728,417.13,728,417.27Z" style="fill:#263238"></path></g></svg>