<svg xmlns="http://www.w3.org/2000/svg" viewBox="0 0 577.58 602.6"><defs><style>.cls-1{fill:#fffacd;}</style></defs><title>Asset 5</title><g id="Layer_2" data-name="Layer 2"><g id="Layer_1-2" data-name="Layer 1"><path class="cls-1" d="M541.4,488.63a202.72,202.72,0,0,1-34.67,39c-44.9,39.39-97.54,62.14-156.2,71.16a286.38,286.38,0,0,1-48.64,3.72c-88.18-1.64-162.47-35.28-222.45-99.72-38-40.84-63-89-73.31-143.9C-10.66,269.3,6.7,186.44,62.65,114,108.8,54.24,170.2,17.36,245.14,4.06A283.82,283.82,0,0,1,311.8.57C339.27,2.19,365.91,8.36,393,18c-40,2.24-76,13.79-109.78,32.53-44.64,24.76-79.29,59.62-104.3,104.08-16.38,29.11-27.77,60-32.33,93.16-5.72,41.51-.91,81.79,15.61,120.6,17.46,41,41.19,77.41,75.8,106.16,36.32,30.19,77.67,49.62,124.5,55.45,58,7.21,112.81-3.7,163.44-33.67A126,126,0,0,1,541.4,488.63Z"/><path class="cls-1" d="M476.84,441.31c-13.81-.52-26.62-4.09-39-9.47-27.12-11.82-53.79-11.66-81.18-.35-11.35,4.69-23.84,7.28-36.06,9.08-21.53,3.16-42-8.62-51.89-28.64-11.94-24.12-8.29-47.06,5.83-69a88.43,88.43,0,0,1,26.9-26.4c15.46-10,27.87-22.53,35.57-39.46,8.74-19.21,22.75-32.16,44-36.17,5.36-1,10.84-1.4,14.13-1.82,27.93.64,48.09,10.77,59.46,34.62,9.15,19.18,23.38,33,40.86,44.6,21.41,14.16,35.66,33.8,37.34,60.06C535.17,415.35,505.08,442.38,476.84,441.31Z"/><path class="cls-1" d="M577.58,210c-1.67,30.14-14.71,53.59-38.86,70.7a36.47,36.47,0,0,1-27.43,6.4c-11.31-1.77-19.41-9.87-21.4-23.12-4.42-29.54,7.08-65,36.22-85,22.1-15.15,44.11-5.93,50.13,21.07C577,203.41,577.18,206.92,577.58,210Z"/><path class="cls-1" d="M492.5,146.81c.17,20.9-7.24,42.05-22.93,60.22-8.86,10.25-20.07,14.77-33.38,12.9-12.34-1.74-19.65-10.11-22.21-21.52-6.85-30.53-4.22-59.76,14.8-86a66.4,66.4,0,0,1,7.69-8.49c18.19-17.63,40.46-8.11,49.36,8.53C490.24,120.75,492.75,132.35,492.5,146.81Z"/><path class="cls-1" d="M384.74,163.88c.19,13.28-1.62,26.2-7.33,38.34-9.94,21.15-36.42,25.12-52.32,7.72-9.54-10.44-14.85-23.13-17.86-36.79-4.13-18.74-4.05-37.31,3.62-55.27s22.37-26.28,39.3-21.3c5.85,1.71,11.7,5.91,15.81,10.53C380.26,123.17,385.32,142.69,384.74,163.88Z"/><path class="cls-1" d="M303.77,249.09c-.44,4.28-.67,8.6-1.36,12.84-4.22,25.83-27.73,31.22-44.66,20.82-19.89-12.23-31.79-30.8-37-53.47-2.72-11.76-3.91-23.62.76-35.29,8.44-21.06,29-27.74,47.46-14.55,18.83,13.49,29.61,32.36,33.39,55.2.41,2.46.78,4.94,1,7.42.16,2.32,0,4.66,0,7Z"/></g></g></svg>