<svg xmlns="http://www.w3.org/2000/svg" viewBox="0 0 127.38 106.29"><defs><style>.cls-1{fill:#4ab6b8;}.cls-2{fill:#4b703c;}.cls-3{fill:#61aa54;}.cls-4{fill:#5c9a4d;}.cls-5{fill:#edb348;}.cls-6{fill:#eba737;}.cls-7{fill:#2b0020;}.cls-8{fill:#fff;}</style></defs><title>Asset 5</title><g id="Layer_2" data-name="Layer 2"><g id="OBJECTS"><circle class="cls-1" cx="53.15" cy="53.15" r="53.15"/><path class="cls-2" d="M35.44,22.3a7,7,0,0,0-4.12-1.57c-5.06,0-4.88,6.88-4.88,6.88s-4.62-7.24-8.92-6.88S11.78,26,11.78,26a11.93,11.93,0,0,0-1.95-3.63,53,53,0,0,0-3.94,6.46,96.65,96.65,0,0,1,26.88,5.76S32.64,27.07,35.44,22.3Z"/><path class="cls-2" d="M54.87,30.05s2.11-2.21,4.91-4.64c.39-3.33.35-6.62-1.32-6.87C55,18,52.67,24.71,52.67,24.71s-.72-7-4.34-7.23c-1.1-.06-2.25.92-3.32,2.32C50.18,22.78,54.87,30.05,54.87,30.05Z"/><path class="cls-3" d="M78.67,79.1l-.67.21Z"/><path class="cls-3" d="M80.39,78.52l-1.58.53Z"/><path class="cls-3" d="M81.12,78.26l-.72.25Z"/><path class="cls-3" d="M76.92,79.66l-.6.18Z"/><path class="cls-3" d="M82.52,77.74l-.51.19Z"/><path class="cls-3" d="M76.05,79.92l-.62.18Z"/><path class="cls-3" d="M75.17,80.18l-.68.19Z"/><path class="cls-3" d="M77.79,79.38l-.61.2Z"/><path class="cls-3" d="M81.83,78l-.56.2Z"/><path class="cls-3" d="M87.59,75.63l-.3.14Z"/><path class="cls-3" d="M83.18,77.48l-.47.19Z"/><path class="cls-3" d="M86.71,76l-.38.17Z"/><path class="cls-3" d="M88,75.45l-.29.14Z"/><path class="cls-3" d="M88.37,75.27l-.29.14Z"/><path class="cls-3" d="M87.16,75.83l-.32.14Z"/><path class="cls-3" d="M84.5,77l-.51.21Z"/><path class="cls-3" d="M83.84,77.23l-.47.18Z"/><path class="cls-3" d="M86.23,76.24l-.48.2Z"/><path class="cls-3" d="M85.72,76.46l-1.13.47Z"/><path class="cls-3" d="M74.27,80.43l-.86.23Z"/><path class="cls-3" d="M43.08,82.87c.6.09,1.19.16,1.78.23-.56-.06-1.13-.14-1.71-.22Z"/><path class="cls-3" d="M46.8,83.29a78.34,78.34,0,0,0,25.58-2.36,84,84,0,0,1-15.09,2.43A70.81,70.81,0,0,1,46.8,83.29Z"/><path class="cls-3" d="M88.43,75.25l.28-.14h0Z"/><path class="cls-4" d="M125,57.73c-4.07-5.43-11.94-4.16-11.94-4.16-6.87-1.82-12.48-10.4-31.81-13.32C78,39.75,76.11,36,76,32.68c0-1.14-.12-2.37-.26-3.62a1.37,1.37,0,0,1-1-.44A5.48,5.48,0,0,0,71,27a5.27,5.27,0,0,0-4,1.79,1.37,1.37,0,0,1-1,.42,1.35,1.35,0,0,1-1-2.29,8,8,0,0,1,6-2.64,7.74,7.74,0,0,1,4.13,1.24c-.78-3.68-2.24-6.67-5-6.45-2.87.24-7.13,3.43-10.44,6.31-2.8,2.43-4.91,4.64-4.91,4.64S50.18,22.78,45,19.8c-1.91-1.11-3.88-1.63-5.71-1a7.57,7.57,0,0,0-3.86,3.47c-2.8,4.77-2.67,12.27-2.67,12.27A96.65,96.65,0,0,0,5.89,28.81a53.22,53.22,0,0,0-2,44.26A63.82,63.82,0,0,0,17,70.8,25.19,25.19,0,0,0,29.45,63a23.63,23.63,0,0,0,3.32-5.33,5.42,5.42,0,0,1,.68-.88,17.62,17.62,0,0,0-3.92,2.6,1.36,1.36,0,0,1-1.84-2c3.24-3,11-7.26,17.25-2.15a53.39,53.39,0,0,1,4.63,4.43c4.21,4.36,7.85,8.13,17.93,8.3,18.56.33,23.1,5.11,23.55,5.65a1.35,1.35,0,0,1-.1,1.84,17.85,17.85,0,0,0,12.65,4.73c8.68-.27,9.76-7,9.76-7s2,.67,8.24-1.5S129.1,63.16,125,57.73ZM44.23,26.35a8.17,8.17,0,0,1,5.69,2.49,1.36,1.36,0,0,1-2,1.82,5.41,5.41,0,0,0-3.67-1.6,5.28,5.28,0,0,0-4,1.8,1.37,1.37,0,0,1-1,.42,1.34,1.34,0,0,1-.93-.37A1.36,1.36,0,0,1,38.26,29,8,8,0,0,1,44.23,26.35Zm-.16,22.21c-2.8,0-5.08-1.63-5.08-7.05,0-.35,0-.69,0-1s0-.61.07-.91c0-.14,0-.27,0-.41s0-.34.07-.51,0-.27.07-.41l.09-.46c0-.14.06-.27.1-.4s.07-.3.11-.44.07-.25.11-.38.08-.28.13-.41.08-.24.13-.36.09-.26.15-.38.09-.22.14-.33l.17-.36c.05-.1.1-.2.16-.3l.18-.33c.06-.09.12-.18.17-.27l.21-.29a2.5,2.5,0,0,1,.18-.24,2.75,2.75,0,0,1,.22-.26l.19-.21L42,32.6l.19-.17.26-.18.2-.13.28-.14.19-.09.32-.09.17-.05a2.83,2.83,0,0,1,.5-.05,2.44,2.44,0,0,1,.48.05l.18,0a1.52,1.52,0,0,1,.28.09l.22.08.22.11c.08,0,.16.09.24.15l.15.1a5.61,5.61,0,0,1,1.34,1.43h0a14.39,14.39,0,0,1,2,7.76C49.16,46.93,46.88,48.56,44.07,48.56Zm26.81-2c-2.81,0-5.08-1.63-5.08-7.05,0-.35,0-.69,0-1s0-.61.07-.91c0-.14,0-.27,0-.41s0-.34.07-.51,0-.27.07-.41l.09-.46c0-.14.06-.27.1-.4s.07-.3.1-.44l.12-.38c0-.14.08-.28.13-.41s.08-.24.13-.36.09-.26.15-.38.09-.22.14-.33.11-.24.17-.36.1-.2.16-.3l.18-.33.17-.27.21-.29a2.5,2.5,0,0,1,.18-.24,2.75,2.75,0,0,1,.22-.26l.19-.21.24-.22.19-.17.26-.18.2-.13a2.44,2.44,0,0,1,.28-.14l.19-.09a2,2,0,0,1,.33-.09l.16-.05a2.83,2.83,0,0,1,.5-.05,2.44,2.44,0,0,1,.48.05l.17,0a1.4,1.4,0,0,1,.29.09l.22.08.22.11.24.15.15.1A5.42,5.42,0,0,1,74,31.71h0a14.3,14.3,0,0,1,2,7.76C76,44.89,73.69,46.52,70.88,46.52Zm34.63,25c-7.81,3-7.91-4.57-3.17-5.08S108.85,70.28,105.51,71.53Zm15-6.37c-9.4,3.19-3.58-6.44,0-5.77S124.13,64,120.54,65.16Z"/><path class="cls-3" d="M73.35,80.68l-1,.25Z"/><polygon class="cls-3" points="20.36 94.98 20.36 94.98 43.08 82.87 30.5 89.58 20.36 94.98"/><path class="cls-3" d="M50.88,64.77l.22.16c-1.13-1-2.17-2.06-3.22-3.14A18,18,0,0,0,50.88,64.77Z"/><path class="cls-3" d="M46.77,83.29l-1.72-.17Z"/><path class="cls-5" d="M29.45,63A25.19,25.19,0,0,1,17,70.8c2.1,7.78,7.08,14,13.47,18.78l12.58-6.71h.07A32.94,32.94,0,0,1,29.45,63Z"/><path class="cls-6" d="M17,70.8A63.82,63.82,0,0,1,3.87,73.07,53.27,53.27,0,0,0,20.36,95l10.14-5.4C24.11,84.81,19.13,78.58,17,70.8Z"/><path class="cls-6" d="M57.29,83.36a51,51,0,0,1-6.41-18.59,18,18,0,0,1-3-3l-.26-.27a50.88,50.88,0,0,0-4.41-4.21c-3.29-2.7-7-1.88-9.76-.55a5.42,5.42,0,0,0-.68.88A23.63,23.63,0,0,1,29.45,63a32.94,32.94,0,0,0,13.7,19.91c.58.08,1.15.16,1.71.22l.19,0,1.72.17h0A70.81,70.81,0,0,0,57.29,83.36Z"/><path class="cls-5" d="M67.8,70.66h-.35c-8.33-.15-12.79-2.59-16.35-5.73l-.22-.16a51,51,0,0,0,6.41,18.59,84,84,0,0,0,15.09-2.43h0A32.25,32.25,0,0,1,67.8,70.66Z"/><path class="cls-6" d="M67.8,70.66a32.25,32.25,0,0,0,4.58,10.27h0l1-.25.06,0,.86-.23.22-.06.68-.19.26-.08.62-.18.27-.08.6-.18.26-.08.61-.2.21-.07.67-.21.14,0,1.58-.53h0l.72-.25.15-.06.56-.2.18-.07.51-.19.19-.07.47-.19.19-.07.47-.18.15-.06L84.5,77l.09,0,1.13-.47,0,0,.48-.2.1,0,.38-.17.13-.06.32-.14.13-.06.3-.14.11,0,.29-.14.09,0,.29-.14.06,0,.28-.14C87.6,74.22,82.52,71,67.8,70.66Z"/><path class="cls-7" d="M45,31.88l.22.08Z"/><path class="cls-7" d="M40.1,35.41c0-.11.09-.22.14-.33C40.19,35.19,40.14,35.3,40.1,35.41Z"/><path class="cls-7" d="M40.41,34.72c.05-.1.1-.2.16-.3C40.51,34.52,40.46,34.62,40.41,34.72Z"/><path class="cls-7" d="M39.82,36.15c0-.12.08-.24.13-.36C39.9,35.91,39.86,36,39.82,36.15Z"/><path class="cls-7" d="M41.13,33.53a2.5,2.5,0,0,1,.18-.24A2.5,2.5,0,0,0,41.13,33.53Z"/><path class="cls-7" d="M39.21,38.65c0-.14,0-.27.07-.41C39.26,38.38,39.23,38.51,39.21,38.65Z"/><path class="cls-7" d="M41.53,33l.19-.21Z"/><path class="cls-7" d="M39.37,37.78c0-.14.06-.27.1-.4C39.43,37.51,39.4,37.64,39.37,37.78Z"/><path class="cls-7" d="M39.58,36.94c0-.13.07-.25.11-.38C39.65,36.69,39.61,36.81,39.58,36.94Z"/><path class="cls-7" d="M39.09,39.57c0-.14,0-.27,0-.41C39.12,39.3,39.1,39.43,39.09,39.57Z"/><path class="cls-7" d="M45.45,32.07c.08,0,.16.09.24.15C45.61,32.16,45.53,32.12,45.45,32.07Z"/><path class="cls-7" d="M47.18,33.75a5.61,5.61,0,0,0-1.34-1.43A5.61,5.61,0,0,1,47.18,33.75Z"/><path class="cls-7" d="M49.16,41.51a14.39,14.39,0,0,0-2-7.76,9.42,9.42,0,0,1-3.4,5.44A9.65,9.65,0,0,1,39,40.49h0c0,.34,0,.68,0,1,0,5.42,2.28,7.05,5.08,7.05S49.16,46.93,49.16,41.51Z"/><path class="cls-7" d="M42,32.6l.19-.17Z"/><path class="cls-7" d="M44.55,31.75l.18,0Z"/><path class="cls-7" d="M42.41,32.25l.2-.13Z"/><path class="cls-7" d="M42.89,32l.19-.09Z"/><path class="cls-7" d="M43.4,31.8l.17-.05Z"/><path class="cls-7" d="M40.75,34.09c.06-.09.12-.18.17-.27C40.87,33.91,40.81,34,40.75,34.09Z"/><path class="cls-8" d="M43.78,39.19a9.42,9.42,0,0,0,3.4-5.44h0a5.61,5.61,0,0,0-1.34-1.43l-.15-.1c-.08-.06-.16-.1-.24-.15L45.23,32,45,31.88a1.52,1.52,0,0,0-.28-.09l-.18,0a2.44,2.44,0,0,0-.48-.05,2.83,2.83,0,0,0-.5.05l-.17.05-.32.09-.19.09-.28.14-.2.13-.26.18L42,32.6l-.24.22-.19.21a2.75,2.75,0,0,0-.22.26,2.5,2.5,0,0,0-.18.24l-.21.29c-.05.09-.11.18-.17.27l-.18.33c-.06.1-.11.2-.16.3l-.17.36c-.05.11-.1.22-.14.33s-.1.25-.15.38-.09.24-.13.36-.09.27-.13.41-.08.25-.11.38-.08.29-.11.44-.07.26-.1.4l-.09.46c0,.14-.05.27-.07.41s-.05.34-.07.51,0,.27,0,.41c0,.3-.06.6-.07.91h0A9.65,9.65,0,0,0,43.78,39.19Z"/><path class="cls-2" d="M38.26,29a1.36,1.36,0,0,0,.05,1.92,1.34,1.34,0,0,0,.93.37,1.37,1.37,0,0,0,1-.42,5.28,5.28,0,0,1,4-1.8,5.41,5.41,0,0,1,3.67,1.6,1.36,1.36,0,0,0,2-1.82,8.17,8.17,0,0,0-5.69-2.49A8,8,0,0,0,38.26,29Z"/><path class="cls-7" d="M68.34,31l.19-.21Z"/><path class="cls-7" d="M70.22,29.76l.16-.05Z"/><path class="cls-7" d="M69.22,30.21l.2-.13Z"/><path class="cls-7" d="M68.77,30.56l.19-.17Z"/><path class="cls-7" d="M71.82,29.84l.22.08Z"/><path class="cls-7" d="M74,31.71a5.42,5.42,0,0,0-1.33-1.43A5.42,5.42,0,0,1,74,31.71Z"/><path class="cls-7" d="M70.59,37.15a9.66,9.66,0,0,1-4.77,1.3h0c0,.34,0,.68,0,1,0,5.42,2.27,7.05,5.08,7.05S76,44.89,76,39.47a14.3,14.3,0,0,0-2-7.76A9.36,9.36,0,0,1,70.59,37.15Z"/><path class="cls-7" d="M72.26,30l.24.15Z"/><path class="cls-7" d="M71.36,29.71l.17,0Z"/><path class="cls-7" d="M69.7,29.94l.19-.09Z"/><path class="cls-7" d="M66.18,35.74c0-.14.06-.27.1-.4C66.24,35.47,66.21,35.6,66.18,35.74Z"/><path class="cls-7" d="M67.94,31.49a2.5,2.5,0,0,1,.18-.24A2.5,2.5,0,0,0,67.94,31.49Z"/><path class="cls-7" d="M66,36.61c0-.14,0-.27.07-.41C66.07,36.34,66,36.47,66,36.61Z"/><path class="cls-7" d="M65.9,37.53c0-.14,0-.27,0-.41C65.93,37.26,65.91,37.39,65.9,37.53Z"/><path class="cls-7" d="M66.38,34.9l.12-.38Z"/><path class="cls-7" d="M67.22,32.68c0-.1.1-.2.16-.3C67.32,32.48,67.27,32.58,67.22,32.68Z"/><path class="cls-7" d="M67.56,32.05l.17-.27Z"/><path class="cls-7" d="M66.63,34.11c0-.12.08-.24.13-.36C66.71,33.87,66.67,34,66.63,34.11Z"/><path class="cls-7" d="M66.91,33.37c0-.11.09-.22.14-.33C67,33.15,67,33.26,66.91,33.37Z"/><path class="cls-8" d="M70.59,37.15A9.36,9.36,0,0,0,74,31.71h0a5.42,5.42,0,0,0-1.33-1.43l-.15-.1L72.26,30,72,29.92l-.22-.08a1.4,1.4,0,0,0-.29-.09l-.17,0a2.44,2.44,0,0,0-.48-.05,2.83,2.83,0,0,0-.5.05l-.16.05a2,2,0,0,0-.33.09l-.19.09a2.44,2.44,0,0,0-.28.14l-.2.13-.26.18-.19.17-.24.22-.19.21a2.75,2.75,0,0,0-.22.26,2.5,2.5,0,0,0-.18.24l-.21.29-.17.27-.18.33c-.06.1-.11.2-.16.3s-.12.24-.17.36-.1.22-.14.33-.1.25-.15.38-.09.24-.13.36-.09.27-.13.41l-.12.38c0,.14-.07.29-.1.44s-.07.26-.1.4l-.09.46c0,.14,0,.27-.07.41s0,.34-.07.51,0,.27,0,.41c0,.3-.06.6-.07.91h0A9.66,9.66,0,0,0,70.59,37.15Z"/><path class="cls-2" d="M65.07,27a1.35,1.35,0,0,0,1,2.29,1.37,1.37,0,0,0,1-.42A5.27,5.27,0,0,1,71,27a5.48,5.48,0,0,1,3.67,1.59,1.37,1.37,0,0,0,1,.44,1.35,1.35,0,0,0,1-2.26,8.07,8.07,0,0,0-1.56-1.25A7.74,7.74,0,0,0,71,24.31,8,8,0,0,0,65.07,27Z"/><path class="cls-7" d="M102.34,66.45c-4.74.51-4.64,8,3.17,5.08C108.85,70.28,107.09,65.93,102.34,66.45Z"/><path class="cls-7" d="M120.54,59.39c-3.58-.67-9.4,9,0,5.77C124.13,64,124.12,60.06,120.54,59.39Z"/><path class="cls-2" d="M91.05,73.59c-.45-.54-5-5.32-23.55-5.65-10.08-.17-13.72-3.94-17.93-8.3a53.39,53.39,0,0,0-4.63-4.43c-6.24-5.11-14-.83-17.25,2.15a1.36,1.36,0,0,0,1.84,2,17.62,17.62,0,0,1,3.92-2.6c2.74-1.33,6.47-2.15,9.76.55a50.88,50.88,0,0,1,4.41,4.21l.26.27c1,1.08,2.09,2.15,3.22,3.14,3.56,3.14,8,5.58,16.35,5.73h.35c14.72.31,19.8,3.56,20.91,4.45h0a3.08,3.08,0,0,1,.26.22,1.36,1.36,0,0,0,1,.49,1.3,1.3,0,0,0,.87-.32.46.46,0,0,0,.07-.07A1.35,1.35,0,0,0,91.05,73.59Z"/></g></g></svg>