<svg xmlns="http://www.w3.org/2000/svg" viewBox="0 0 206.94 206.94"><defs><style>.cls-1{fill:#f6a7aa;}.cls-1,.cls-2,.cls-3,.cls-4,.cls-5,.cls-6,.cls-7{fill-rule:evenodd;}.cls-2{fill:#6a4733;}.cls-3{fill:#e7ccbd;}.cls-4{fill:#f4762f;}.cls-6{fill:#fff;}.cls-7{opacity:0.15;}</style></defs><title>Asset 2</title><g id="Layer_2" data-name="Layer 2"><g id="Objects"><path class="cls-1" d="M103.47,206.94A103.47,103.47,0,1,0,0,103.47,103.67,103.67,0,0,0,103.47,206.94Z"/><path class="cls-2" d="M142.5,91l19.52,58,10.6,31.49a103.15,103.15,0,0,1-69.13,26.51h0a103.11,103.11,0,0,1-69.13-26.51l10.6-31.49L64.44,91H142.5Z"/><path class="cls-3" d="M103.47,128.25c23.59,0,43.3,28.64,48.09,66.85a103.06,103.06,0,0,1-48,11.84h-.09a103,103,0,0,1-48-11.84C60.16,156.89,79.88,128.25,103.47,128.25Z"/><polygon class="cls-2" points="132.19 48.93 146.56 73.81 160.92 98.69 146.56 123.57 132.19 148.45 103.47 148.45 74.74 148.45 60.38 123.57 46.01 98.69 60.38 73.81 74.74 48.93 103.47 48.93 132.19 48.93"/><path class="cls-3" d="M103.47,73.3c12.52,0,22.77,31.64,23.65,71.75H79.81C80.7,104.94,91,73.3,103.47,73.3Z"/><path class="cls-4" d="M92.1,129.42c11.24-5.87,11.66-4.58,22.73,0L103,145.05Z"/><path class="cls-5" d="M80.54,84.86A6.09,6.09,0,1,1,74.46,91,6.09,6.09,0,0,1,80.54,84.86Z"/><path class="cls-6" d="M83.16,86A2.17,2.17,0,1,1,81,88.16,2.17,2.17,0,0,1,83.16,86Z"/><path class="cls-5" d="M126.39,84.86A6.09,6.09,0,1,1,120.31,91,6.09,6.09,0,0,1,126.39,84.86Z"/><path class="cls-6" d="M129,86a2.17,2.17,0,1,1-2.16,2.17A2.17,2.17,0,0,1,129,86Z"/><path class="cls-2" d="M74.74,32.53a16.41,16.41,0,1,1-16.4,16.4A16.4,16.4,0,0,1,74.74,32.53Z"/><path class="cls-2" d="M132.2,32.53a16.41,16.41,0,1,1-16.41,16.4A16.4,16.4,0,0,1,132.2,32.53Z"/><path class="cls-7" d="M103,0a103.47,103.47,0,0,1,0,206.94Z"/></g></g></svg>