<svg xmlns="http://www.w3.org/2000/svg" viewBox="0 0 206.94 206.94"><defs><style>.cls-1{fill:#f4762f;}.cls-2{fill:#b2b2b2;}.cls-10,.cls-2,.cls-3,.cls-5,.cls-6,.cls-7,.cls-8,.cls-9{fill-rule:evenodd;}.cls-3{fill:#e5e5e5;}.cls-4,.cls-5{fill:#fff;}.cls-6{fill:#d3d3d3;}.cls-7{fill:#57a9aa;}.cls-8{fill:#333;}.cls-9{fill:#84604b;}.cls-10{opacity:0.15;}</style></defs><title>Asset 8</title><g id="Layer_2" data-name="Layer 2"><g id="Objects"><circle class="cls-1" cx="103.47" cy="103.47" r="103.47" transform="translate(-15.22 17.88) rotate(-9.2)"/><path class="cls-2" d="M142.5,90.94l19.52,58,10.6,31.49a103.15,103.15,0,0,1-69.13,26.51h0a103.11,103.11,0,0,1-69.13-26.51l10.6-31.49L64.44,91H142.5Z"/><path class="cls-3" d="M129.86,102.34l13.19,52.3,10,39.66a103.12,103.12,0,0,1-49.57,12.64h0A103.12,103.12,0,0,1,53.88,194.3l10-39.66,13.2-52.3h52.78Z"/><path class="cls-2" d="M128.69,58.18l25.23,54.09c-36.78,46-64.12,46-100.9,0L64.87,86.84,78.24,58.18h50.45Z"/><path class="cls-3" d="M161.15,28.1c-7.89-4.85-51.78,34.46-32.25,50.58,5.41,4.46,22.57,8.23,19.88,2.93C144.61,73.39,166.85,31.61,161.15,28.1Z"/><path class="cls-2" d="M161.5,31.52c-4.84-3.86-31.54,22.63-28.32,41.19.88,5.1-2.43,7.37.8,9.94,2.74,2.18,16.45,2.21,14.8-1C145.24,74.63,166.61,35.59,161.5,31.52Z"/><path class="cls-3" d="M45.61,28.1c7.89-4.85,51.78,34.46,32.25,50.58C72.45,83.14,55.29,86.91,58,81.61,62.15,73.39,39.91,31.61,45.61,28.1Z"/><path class="cls-2" d="M45.26,31.52C50.1,27.66,76.8,54.15,73.58,72.71c-.88,5.1,2.42,7.37-.8,9.94-2.74,2.18-16.45,2.21-14.8-1C61.52,74.63,40.15,35.59,45.26,31.52Z"/><path class="cls-3" d="M132.2,48.93l28.72,56.6c-41.89,48.09-73,48.09-114.91,0l13.51-26.6,15.22-30H132.2Z"/><ellipse class="cls-4" cx="87.88" cy="117.37" rx="15.25" ry="9.25"/><path class="cls-5" d="M118.38,108.12c8.43,0,15.25,4.14,15.25,9.25s-6.82,9.24-15.25,9.24-15.25-4.14-15.25-9.24S110,108.12,118.38,108.12Z"/><path class="cls-2" d="M79.89,110.24c11.78-6.75,17-22,10.46-38.58C64.14,81,70.44,97.78,79.89,110.24Z"/><path class="cls-2" d="M132.2,48.93c-20.57,14.22-23.64,45.45-29.07,68.44-5-23.28-7.47-54-28.39-68.44H132.2Z"/><path class="cls-2" d="M127.05,110.24c-11.78-6.75-17-22-10.46-38.58C143.73,80.24,137.27,96.87,127.05,110.24Z"/><path class="cls-2" d="M103.33,114.34a12.11,12.11,0,0,0,5.36,7.56,22.39,22.39,0,0,0,13.18,4,24.44,24.44,0,0,0,2.73-.15c-9.4,18.8-32.79,18.51-42.18,0a25.64,25.64,0,0,0,2.64.14C94.46,125.89,102.21,120.85,103.33,114.34Z"/><path class="cls-6" d="M122.82,86.54a8.67,8.67,0,0,1,9.77-.93A8.65,8.65,0,0,1,120.2,96,8.65,8.65,0,0,1,122.82,86.54Z"/><path class="cls-6" d="M84.11,86.54a8.65,8.65,0,0,0-9.76-.93A8.65,8.65,0,0,0,86.73,96,8.62,8.62,0,0,0,84.11,86.54Z"/><path class="cls-7" d="M126.39,85.57a5.22,5.22,0,1,1-5.22,5.22A5.22,5.22,0,0,1,126.39,85.57Z"/><path class="cls-5" d="M128.64,86.54a1.87,1.87,0,1,1-1.86,1.87A1.87,1.87,0,0,1,128.64,86.54Z"/><path class="cls-8" d="M126.39,87.45c.63,0,1.13,1.5,1.13,3.34s-.5,3.35-1.13,3.35-1.12-1.5-1.12-3.35S125.77,87.45,126.39,87.45Z"/><path class="cls-7" d="M80.54,85.57a5.22,5.22,0,1,1-5.22,5.22A5.22,5.22,0,0,1,80.54,85.57Z"/><path class="cls-5" d="M82.79,86.55a1.86,1.86,0,1,1-1.86,1.86A1.86,1.86,0,0,1,82.79,86.55Z"/><path class="cls-8" d="M80.54,87.45c.62,0,1.13,1.5,1.13,3.34s-.51,3.35-1.13,3.35-1.12-1.5-1.12-3.35S79.92,87.45,80.54,87.45Z"/><path class="cls-3" d="M103.33,114.34a12.11,12.11,0,0,0,5.36,7.56,17.88,17.88,0,0,0,2.82,1.7,21.73,21.73,0,0,1-16,0C99.74,121.46,102.67,118.16,103.33,114.34Z"/><path class="cls-9" d="M95.31,109c3.77-3.07,12.29-3.36,16.4,0l-8.58,8.52Z"/><path class="cls-4" d="M92.25,115.73a.6.6,0,0,1-.53,1.07C83.07,112.52,72.59,111.29,63,112c-11.25.86-21.29,4.41-25.78,8.91a.6.6,0,0,1-.85-.85c4.68-4.68,15-8.37,26.54-9.26C72.68,110.08,83.39,111.34,92.25,115.73Z"/><path class="cls-4" d="M90.8,117.82a.6.6,0,0,1,.41.74.61.61,0,0,1-.75.41c-7.5-2.21-15.83-2.23-23.69-.89-9.15,1.56-17.64,5-23.42,8.93a.61.61,0,0,1-.83-.16.59.59,0,0,1,.16-.83c5.91-4.06,14.57-7.53,23.89-9.12C74.59,115.53,83.11,115.56,90.8,117.82Z"/><path class="cls-4" d="M89.73,120.13a.6.6,0,1,1-.13,1.19,51.27,51.27,0,0,0-19.95,2.07A66.68,66.68,0,0,0,49.82,133a.58.58,0,0,1-.83-.13.6.6,0,0,1,.13-.84,68.07,68.07,0,0,1,20.2-9.81A52.39,52.39,0,0,1,89.73,120.13Z"/><path class="cls-4" d="M114.69,115.73a.6.6,0,1,0,.53,1.07c8.65-4.28,19.13-5.51,28.75-4.77,11.25.86,21.28,4.41,25.78,8.91a.6.6,0,1,0,.84-.85c-4.68-4.68-15-8.37-26.53-9.26C134.25,110.08,123.55,111.34,114.69,115.73Z"/><path class="cls-4" d="M116.14,117.82a.6.6,0,1,0,.33,1.15c7.51-2.21,15.84-2.23,23.7-.89,9.14,1.56,17.63,5,23.41,8.93a.62.62,0,0,0,.84-.16.61.61,0,0,0-.16-.83c-5.91-4.06-14.57-7.53-23.89-9.12C132.35,115.53,123.83,115.56,116.14,117.82Z"/><path class="cls-4" d="M117.21,120.13a.6.6,0,1,0,.13,1.19,51.2,51.2,0,0,1,19.94,2.07A66.74,66.74,0,0,1,157.12,133a.58.58,0,0,0,.83-.13.61.61,0,0,0-.14-.84,67.89,67.89,0,0,0-20.19-9.81A52.43,52.43,0,0,0,117.21,120.13Z"/><path class="cls-10" d="M103.47,0a103.47,103.47,0,0,1,0,206.94Z"/></g></g></svg>