<svg xmlns="http://www.w3.org/2000/svg" viewBox="0 0 137.32 116.84"><defs><style>.cls-1{isolation:isolate;}.cls-2{fill:#edb348;}.cls-3{fill:#7f867e;}.cls-4{fill:#666f65;}.cls-5{opacity:0.15;mix-blend-mode:overlay;}.cls-6{fill:#f87671;}.cls-7{fill:#f98c87;}.cls-8{fill:#2b0020;}.cls-9{fill:#fff;}.cls-10{fill:#360e2b;}</style></defs><title>Asset 9</title><g class="cls-1"><g id="Layer_2" data-name="Layer 2"><g id="OBJECTS"><circle class="cls-2" cx="68.66" cy="63.7" r="53.15"/><path class="cls-3" d="M88.24,86.75c-6-5.43-31.62-7-36.5-1.58-5.68,6.21-9.42,12.7-8.89,25a53.19,53.19,0,0,0,55.5-2.38C96.7,99.32,94.66,92.5,88.24,86.75Z"/><path class="cls-4" d="M81.32,99.32c-6-4.34-15.92-3.8-21.34,0-4.08,2.72-5.87,10.55-8.24,14.77a53.31,53.31,0,0,0,37.45-1.37C86.88,109.67,84.71,101.58,81.32,99.32Z"/><path class="cls-5" d="M95.71,97.79a27.2,27.2,0,0,0-7.47-11c-6-5.43-31.62-7-36.5-1.58-3.88,4.25-6.86,8.63-8.19,14.9C60.94,104.6,79.63,105.94,95.71,97.79Z"/><path class="cls-4" d="M37.75,32.44S35.18,22.3,26.17,19.1s-19.69,3.64-23,20.26-4.95,30.93,0,34.07,9.55-4.61,9.55-4.61-2.47,7.25,3.14,9.64S22.54,73,22.54,73s-.08,6.47,6.12,7.33S39.31,72,39.31,72Z"/><path class="cls-6" d="M20.87,42.39a17.76,17.76,0,0,1,11.06,6.23v-9s.66-9.87-6.76-12.2C18,25.12,11.6,32.74,10.07,42.89A29.59,29.59,0,0,1,20.87,42.39Z"/><path class="cls-7" d="M20.87,42.39a29.59,29.59,0,0,0-10.8.5c-.06.41-.12.82-.16,1.24C8.74,54.89,12.74,63.89,19.08,65.9s12.86-3.51,12.86-3.51V48.62A17.76,17.76,0,0,0,20.87,42.39Z"/><path class="cls-4" d="M99.57,32.44s2.58-10.14,11.58-13.34,19.69,3.64,23,20.26,4.94,30.93,0,34.07-9.56-4.61-9.56-4.61,2.47,7.25-3.14,9.64-6.7-5.5-6.7-5.5.08,6.47-6.13,7.33S98,72,98,72Z"/><path class="cls-6" d="M116.46,42.39a17.76,17.76,0,0,0-11.07,6.23v-9s-.67-9.87,6.75-12.2c7.14-2.25,13.57,5.37,15.1,15.52A29.54,29.54,0,0,0,116.46,42.39Z"/><path class="cls-7" d="M116.46,42.39a29.54,29.54,0,0,1,10.79.5c.06.41.12.82.16,1.24,1.17,10.76-2.83,19.76-9.17,21.77s-12.86-3.51-12.86-3.51V48.62A17.76,17.76,0,0,1,116.46,42.39Z"/><path class="cls-3" d="M118.86,58.66C118.86,85.71,95,93.8,67.3,93.8S18.46,85.71,18.46,58.66s22.48-49,50.2-49S118.86,31.61,118.86,58.66Z"/><path class="cls-8" d="M76.32,85.92a11.71,11.71,0,0,1-7.69-3.23c-1.56,1.26-4.81,3.4-8.39,3-2.64-.27-4.91-1.81-6.73-4.58a1.36,1.36,0,0,1,2.27-1.5c1.35,2.06,2.94,3.19,4.74,3.38,3.6.36,7.14-3.08,7.18-3.12a1.36,1.36,0,0,1,1.91,0c2.37,2.33,4.77,3.44,7.14,3.29C80.4,83,82.92,79.83,83,79.8a1.36,1.36,0,0,1,2.13,1.68c-.13.17-3.26,4.1-8.14,4.42Z"/><path class="cls-8" d="M49.29,60c0,7.43-3.12,9.66-7,9.66s-7-2.23-7-9.66,3.12-13.45,7-13.45S49.29,52.61,49.29,60Z"/><path class="cls-9" d="M46.57,49.4c-1.18-1.76-2.65-2.81-4.25-2.81-3.61,0-6.58,5.28-6.94,12a13.2,13.2,0,0,0,6.54-1.79A12.81,12.81,0,0,0,46.57,49.4Z"/><path class="cls-8" d="M102.18,60c0,7.43-3.12,9.66-7,9.66s-7-2.23-7-9.66,3.12-13.45,7-13.45S102.18,52.61,102.18,60Z"/><path class="cls-9" d="M99.46,49.4c-1.18-1.76-2.65-2.81-4.25-2.81-3.61,0-6.57,5.28-6.94,12a13.2,13.2,0,0,0,6.54-1.79A12.81,12.81,0,0,0,99.46,49.4Z"/><path class="cls-4" d="M35.14,44.05a1.32,1.32,0,0,1-.93-.37,1.36,1.36,0,0,1-.06-1.92A10.45,10.45,0,0,1,42,38.3a10.61,10.61,0,0,1,7.42,3.25,1.36,1.36,0,0,1-2,1.81A8,8,0,0,0,42,41a7.8,7.8,0,0,0-5.85,2.62A1.37,1.37,0,0,1,35.14,44.05Z"/><path class="cls-4" d="M87.26,44.05a1.35,1.35,0,0,1-1-2.29A10.42,10.42,0,0,1,94.1,38.3a10.58,10.58,0,0,1,7.42,3.25,1.36,1.36,0,0,1-2,1.81A8,8,0,0,0,94.1,41a7.81,7.81,0,0,0-5.85,2.62A1.37,1.37,0,0,1,87.26,44.05Z"/><path class="cls-10" d="M62.69,50.3c6.29,4,12.16,1.07,16.29-4-2.34-5.11-5.87-8.62-10.32-9.21C64.38,36.52,61,41,58.84,46.61A10,10,0,0,0,62.69,50.3Z"/><path class="cls-8" d="M79,46.3c-4.13,5.07-10,8-16.29,4a10,10,0,0,1-3.85-3.69,40.5,40.5,0,0,0-2.66,15.47c.26,4.3,1.45,15.53,12.48,14.63,13.53-1.11,13.76-8.57,13.57-15.13A40,40,0,0,0,79,46.3Z"/><path class="cls-3" d="M57.26,11.94s-.54-8.5,3.08-9.59,1.63,6,1.63,6S68.66-.18,74.45,0s-3,7.6-3,7.6S81.64,3.44,84,7.42s-12.64,4.52-12.64,4.52Z"/></g></g></g></svg>