<svg xmlns="http://www.w3.org/2000/svg" viewBox="0 0 206.94 206.94"><defs><style>.cls-1{fill:#f6a7aa;}.cls-2{fill:#c99d6d;}.cls-10,.cls-2,.cls-3,.cls-4,.cls-5,.cls-6,.cls-8,.cls-9{fill-rule:evenodd;}.cls-3{fill:#a07747;}.cls-4{fill:#e1c19e;}.cls-6{fill:#fff;}.cls-7{fill:#755530;}.cls-8{fill:#4d4d4d;}.cls-9{fill:#333;}.cls-10{opacity:0.15;}</style></defs><title>Asset 7</title><g id="Layer_2" data-name="Layer 2"><g id="Objects"><circle class="cls-1" cx="103.47" cy="103.47" r="103.47" transform="translate(-42.86 103.47) rotate(-45)"/><path class="cls-2" d="M141.83,15.75c-13.69-4.43-38.5,77.81-14,85.74S155.52,20.19,141.83,15.75Z"/><path class="cls-3" d="M144.25,20.53c-7-3.05-17.74,26.59-7,51.65,2.91,6.83-7.41,27.31-2.76,29.34C151.6,109,153.83,24.72,144.25,20.53Z"/><path class="cls-2" d="M142.5,91l19.52,58,10.6,31.49a103.11,103.11,0,0,1-69.14,26.51h0a103.11,103.11,0,0,1-69.14-26.51l10.6-31.49L64.44,91H142.5Z"/><path class="cls-4" d="M129.86,167.85l13.19,19.55,6,8.95a103.6,103.6,0,0,1-91.26,0l6-8.95,13.2-19.55h52.78Z"/><path class="cls-2" d="M65.71,15.75c13.69-4.43,38.5,77.81,14,85.74S52,20.19,65.71,15.75Z"/><path class="cls-3" d="M63.29,20.53c7-3.05,17.74,26.59,7,51.65-2.91,6.83,7.41,27.31,2.76,29.34C55.94,109,53.71,24.72,63.29,20.53Z"/><polygon class="cls-2" points="132.2 60.56 155.79 115.32 125.01 148.45 81.92 148.45 51.15 115.32 74.74 60.56 132.2 60.56"/><path class="cls-3" d="M81.27,79.86c-6.52,1.81-11.21,5.41-10.48,8s6.61,3.3,13.13,1.5,11.2-5.41,10.47-8S87.79,78.06,81.27,79.86Z"/><path class="cls-3" d="M124.85,79.86c6.52,1.81,11.21,5.41,10.47,8s-6.6,3.3-13.12,1.5-11.2-5.41-10.47-8S118.33,78.06,124.85,79.86Z"/><path class="cls-5" d="M84.28,83.57a6.09,6.09,0,1,1-6.08,6.08A6.09,6.09,0,0,1,84.28,83.57Z"/><path class="cls-6" d="M86.91,84.7a2.17,2.17,0,1,1-2.17,2.17A2.17,2.17,0,0,1,86.91,84.7Z"/><path class="cls-5" d="M122.65,83.57a6.09,6.09,0,1,1-6.08,6.08A6.09,6.09,0,0,1,122.65,83.57Z"/><path class="cls-6" d="M125.27,84.7a2.17,2.17,0,1,1-2.17,2.17A2.17,2.17,0,0,1,125.27,84.7Z"/><polygon class="cls-4" points="125.01 148.45 155.79 115.32 104.35 90.95 51.15 115.32 81.92 148.45 125.01 148.45"/><polygon class="cls-3" points="121.38 148.45 126.64 130.68 131.91 112.91 118.13 101.93 104.35 90.95 90.57 101.93 76.79 112.91 82.05 130.68 87.32 148.45 104.35 148.45 121.38 148.45"/><rect class="cls-7" x="103.1" y="119.65" width="2.5" height="28.8"/><path class="cls-8" d="M104.35,112.94c6.33,0,11.45,3,11.45,6.71s-5.12,6.7-11.45,6.7-11.46-3-11.46-6.7S98,112.94,104.35,112.94Z"/><path class="cls-9" d="M115.73,120.41c-.44,2.28-2.84,4.22-6.2,5.22a4.32,4.32,0,0,1-.34-1.69,4.22,4.22,0,0,1,4.2-4.25A4.12,4.12,0,0,1,115.73,120.41Z"/><path class="cls-9" d="M99.16,125.63c-3.35-1-5.75-2.94-6.19-5.22a4.1,4.1,0,0,1,2.34-.72,4.22,4.22,0,0,1,4.2,4.25A4.16,4.16,0,0,1,99.16,125.63Z"/><path class="cls-10" d="M103.47,0a103.47,103.47,0,0,1,0,206.94Z"/></g></g></svg>