<svg xmlns="http://www.w3.org/2000/svg" viewBox="0 0 206.94 206.94"><defs><style>.cls-1{fill:#57a9aa;}.cls-1,.cls-2,.cls-3,.cls-4,.cls-5,.cls-6,.cls-7{fill-rule:evenodd;}.cls-2{fill:#f4762f;}.cls-3{fill:#a2450f;}.cls-5{fill:#fff;}.cls-6{fill:#1a1a1a;}.cls-7{opacity:0.15;}</style></defs><title>Asset 4</title><g id="Layer_2" data-name="Layer 2"><g id="Objects"><path class="cls-1" d="M103.47,206.94A103.47,103.47,0,1,0,0,103.47,103.67,103.67,0,0,0,103.47,206.94Z"/><path class="cls-2" d="M142.5,91l19.52,58,10.6,31.49a103.11,103.11,0,0,1-69.14,26.51h0a103.09,103.09,0,0,1-69.14-26.51l10.6-31.49L64.44,91H142.5Z"/><path class="cls-2" d="M157.72,27.79c-8.12-4.45-50,37-29.68,52.13S165.84,32.24,157.72,27.79Z"/><path class="cls-3" d="M158.23,31.19c-5-3.62-19.2,10-15.07,28.33,1.14,5-13.2,21.7-9.85,24.11C145.65,92.51,165.13,36.14,158.23,31.19Z"/><path class="cls-2" d="M49.94,27.79c8.12-4.45,50,37,29.68,52.13S41.82,32.24,49.94,27.79Z"/><path class="cls-3" d="M49.42,31.19c5-3.62,19.21,10,15.07,28.33-1.13,5,13.21,21.7,9.86,24.11C62,92.51,42.52,36.14,49.42,31.19Z"/><polygon class="cls-2" points="137.01 48.93 170.55 106.64 103.47 148.45 36.39 106.64 69.93 48.93 137.01 48.93"/><path class="cls-3" d="M102.43,148.45l68.12-41.81C137,48.93,103.47,48.93,103,132.1c.52-83.17-25.74-83.17-67.6-25.46Z"/><path class="cls-4" d="M84.28,79.23a6.09,6.09,0,1,1-6.08,6.08A6.09,6.09,0,0,1,84.28,79.23Z"/><path class="cls-5" d="M86.9,80.36a2.17,2.17,0,1,1-2.16,2.17A2.17,2.17,0,0,1,86.9,80.36Z"/><path class="cls-4" d="M122.65,79.23a6.09,6.09,0,1,1-6.08,6.08A6.09,6.09,0,0,1,122.65,79.23Z"/><path class="cls-5" d="M125.27,80.36a2.17,2.17,0,1,1-2.17,2.17A2.17,2.17,0,0,1,125.27,80.36Z"/><path class="cls-6" d="M91.58,120.22c7.38-4.28,15.71-4.59,22.73,0L102.43,132.1Z"/><path class="cls-5" d="M102.43,148.45l68.12-41.81c-30.78-14.19-52.72-4.07-67.6,25.46-14.88-29.53-36.82-39.65-67.6-25.46Z"/><path class="cls-7" d="M103,0a103.47,103.47,0,0,1,0,206.94Z"/></g></g></svg>