<svg xmlns="http://www.w3.org/2000/svg" viewBox="0 0 206.94 206.94"><defs><style>.cls-1{fill:#57a9aa;}.cls-2{fill:#6a4733;}.cls-2,.cls-3,.cls-4,.cls-5,.cls-6,.cls-7{fill-rule:evenodd;}.cls-3{fill:#84604b;}.cls-5{fill:#fff;}.cls-6{fill:#e7ccbd;}.cls-7{opacity:0.15;}</style></defs><title>Asset 6</title><g id="Layer_2" data-name="Layer 2"><g id="Objects"><circle class="cls-1" cx="103.47" cy="103.47" r="103.47" transform="translate(-16.97 20.37) rotate(-10.4)"/><path class="cls-2" d="M134.08,112.83l15.31,49.75,8.83,28.69a103.5,103.5,0,0,1-109.51,0l8.83-28.69,15.31-49.75h61.23Z"/><path class="cls-3" d="M70,22.5c9.31-.87,30.47,68.43,5.51,75.18S60.68,23.38,70,22.5Z"/><path class="cls-2" d="M68.1,26.13c6.13-1.53,16.49,44.69,5,63.59-3.15,5.19.06,8.46-4,9.48C54.09,102.94,59.7,28.22,68.1,26.13Z"/><path class="cls-3" d="M136.4,22.5c-9.32-.87-30.48,68.43-5.52,75.18S145.71,23.38,136.4,22.5Z"/><path class="cls-2" d="M138.29,26.13c-6.12-1.53-16.49,44.69-5,63.59,3.15,5.19-.07,8.46,4,9.48C152.3,102.94,146.69,28.22,138.29,26.13Z"/><polygon class="cls-3" points="127.35 62.98 151.23 99.76 121.38 195.35 85.56 195.35 55.71 99.77 79.59 62.98 127.35 62.98"/><path class="cls-4" d="M78.3,103.79A5.22,5.22,0,1,1,73.08,109,5.22,5.22,0,0,1,78.3,103.79Z"/><path class="cls-5" d="M80.55,104.76a1.86,1.86,0,1,1-1.87,1.86A1.86,1.86,0,0,1,80.55,104.76Z"/><path class="cls-4" d="M128.64,103.79a5.22,5.22,0,1,1-5.22,5.22A5.22,5.22,0,0,1,128.64,103.79Z"/><path class="cls-5" d="M130.89,104.76a1.86,1.86,0,1,1-1.86,1.86A1.86,1.86,0,0,1,130.89,104.76Z"/><polygon class="cls-6" points="129.02 170.88 121.38 195.35 85.56 195.35 77.92 170.88 89.58 152.91 117.35 152.91 129.02 170.88"/><path class="cls-3" d="M85.89,174c1.42-.26,3.28,3.25,4.13,7.85s.39,8.55-1,8.82-3.28-3.25-4.13-7.86S84.46,174.29,85.89,174Z"/><path class="cls-3" d="M121.05,174c-1.43-.26-3.28,3.25-4.13,7.85s-.39,8.55,1,8.82,3.28-3.25,4.13-7.86S122.48,174.29,121.05,174Z"/><path class="cls-6" d="M112.73,86.19,122,124.46l-11.58,70.89H96.52L84.94,124.46,94.2,86.19h.09c5.66,8.2,8.58,19,5,33.21,7.5-6.27,13.33-20.44,13.43-33.21Z"/><path class="cls-7" d="M103.47,0a103.47,103.47,0,0,1,0,206.94Z"/></g></g></svg>