<svg xmlns="http://www.w3.org/2000/svg" viewBox="0 0 106.29 120.65"><defs><style>.cls-1{isolation:isolate;}.cls-2{fill:#2b0020;}.cls-3{fill:#e39635;}.cls-4{opacity:0.15;mix-blend-mode:overlay;}.cls-5{fill:#edb348;}.cls-6{fill:#f3c07b;}.cls-7{fill:#df3140;}.cls-8{fill:#fff;}.cls-9{fill:#f6db99;}.cls-10{fill:#de8316;}</style></defs><title>Asset 1</title><g class="cls-1"><g id="Layer_2" data-name="Layer 2"><g id="OBJECTS"><circle class="cls-2" cx="53.15" cy="67.5" r="53.15" transform="translate(-22.11 108.94) rotate(-80.63)"/><path class="cls-3" d="M53.15,120.65A53,53,0,0,0,92,103.75c-8.15-18.65-25.39-32-38.86-32.48-11.49-.41-32,12.34-38.86,32.48A53,53,0,0,0,53.15,120.65Z"/><path class="cls-4" d="M86.31,93.52C77.28,80.39,64,71.65,53.15,71.27c-9.77-.35-26,8.81-34.91,23.93C38.86,108.43,65,105,86.31,93.52Z"/><path class="cls-5" d="M98.65,26.42C92,11,72.85,6.23,60.9,5c2.67-1.77,3-4.92.17-5C57.54,0,55,4.45,55,4.45,53.44,1.55,48.33.76,47.62,2.6c-.33.86.7,1.53,1.89,2-10.7.4-35,4-42.73,21.82C-2,46.73,2,75.53,5.09,78.31,7,80,7.56,77.74,7.74,75.74c0,3.25.34,8.85,2.59,9.92,1.72.81,2.61-1.25,3.08-3.36-.14,2.47.14,5.37,2,6,3.39,1.22,4.06-6.06,4.06-6.06s0,9,3.39,9.82,4.44-7.82,4.44-7.82.47,7.42,2.84,7.87,3.59-5.46,3.59-5.46,1.18,6.59,9,6.93c3.69.16,5.17-1.59,5.7-3.48.23,1.89.88,3.66,2.58,3.49.82-.08,1.38-4.91,1.75-12.29.38,7.38.94,12.21,1.76,12.29,1.7.17,2.35-1.6,2.57-3.49.54,1.89,2,3.64,5.71,3.48,7.77-.34,8.94-6.93,8.94-6.93s1.23,5.91,3.6,5.46,2.84-7.87,2.84-7.87,1.05,8.66,4.44,7.82S86,82.28,86,82.28s.67,7.28,4.06,6.06c1.86-.67,2.13-3.57,2-6,.47,2.11,1.36,4.17,3.08,3.36,2.25-1.07,2.59-6.67,2.59-9.92.18,2,.77,4.29,2.65,2.57C103.39,75.53,107.45,46.73,98.65,26.42Z"/><path class="cls-4" d="M17.35,28.66c3.6-3.2,1.8-9.31-.72-14.19a29,29,0,0,0-9.85,12c-.51,1.18-1,2.39-1.4,3.62C9.69,30.55,15.83,29.55,17.35,28.66Z"/><path class="cls-4" d="M88.07,28.66c-3.6-3.2-1.8-9.31.72-14.19a29.08,29.08,0,0,1,9.85,12c.51,1.18,1,2.39,1.4,3.62C95.73,30.55,89.59,29.55,88.07,28.66Z"/><path class="cls-4" d="M90.78,59c0,23.2-37.32,34.63-37.32,34.63S16.15,82.21,16.15,59,32.86,17,53.46,17,90.78,35.8,90.78,59Z"/><path class="cls-3" d="M90.78,49.69c0,20.31-16.71,25.38-37.32,25.38S16.15,70,16.15,49.69,32.86,12.92,53.46,12.92,90.78,29.38,90.78,49.69Z"/><path class="cls-6" d="M66.54,99.32H39.75a4.43,4.43,0,0,1-4.41-3.83L32.47,69.33a4.5,4.5,0,0,1,4.34-5.22H69.48a4.51,4.51,0,0,1,4.35,5.22L71,95.49A4.44,4.44,0,0,1,66.54,99.32Z"/><path class="cls-2" d="M40,90.7,37.82,70.45a2.36,2.36,0,0,1,2.34-2.61h26a2.36,2.36,0,0,1,2.35,2.61L66.25,90.7a2.35,2.35,0,0,1-2.34,2.1H42.38A2.35,2.35,0,0,1,40,90.7Z"/><path class="cls-7" d="M42.38,92.8H63.91a2.35,2.35,0,0,0,2.34-2.1l.57-5.18a21.43,21.43,0,0,0-27.35,0L40,90.7A2.35,2.35,0,0,0,42.38,92.8Z"/><path class="cls-8" d="M64,92.8s-.58-2.87-2.22-3.46-3.16,3.46-3.16,3.46Z"/><path class="cls-8" d="M42.27,92.8s.59-2.87,2.22-3.46,3.16,3.46,3.16,3.46Z"/><path class="cls-8" d="M39.47,76.17S40.21,81,42.26,82s4-5.83,4-5.83Z"/><path class="cls-8" d="M66.82,76.17S66.09,81,64,82s-4-5.83-4-5.83Z"/><path class="cls-9" d="M53.46,55.87c-11.07,0-27.53.19-25.13,16.38,1.47,10,19.72,8.08,24.16.92a1.13,1.13,0,0,1,1.94,0c4.44,7.16,22.7,9,24.17-.92C81,56.06,64.54,55.87,53.46,55.87Z"/><path class="cls-2" d="M64.64,60c0,3.23-5,3.67-11.18,3.67S42.27,63.23,42.27,60s5-5.83,11.19-5.83S64.64,56.78,64.64,60Z"/><path class="cls-2" d="M42.27,48.47c0,5.06-2.12,6.58-4.75,6.58s-4.75-1.52-4.75-6.58,2.13-9.16,4.75-9.16S42.27,43.41,42.27,48.47Z"/><path class="cls-8" d="M40.42,41.22a3.68,3.68,0,0,0-2.9-1.91c-2.45,0-4.47,3.6-4.72,8.21a9,9,0,0,0,4.45-1.22A8.74,8.74,0,0,0,40.42,41.22Z"/><path class="cls-2" d="M74.14,48.47c0,5.06-2.13,6.58-4.75,6.58s-4.75-1.52-4.75-6.58,2.13-9.16,4.75-9.16S74.14,43.41,74.14,48.47Z"/><path class="cls-8" d="M72.29,41.22a3.69,3.69,0,0,0-2.9-1.91c-2.45,0-4.47,3.6-4.72,8.21a9,9,0,0,0,4.45-1.22A8.74,8.74,0,0,0,72.29,41.22Z"/><path class="cls-10" d="M32.64,38a1.38,1.38,0,0,1-.94-.38,1.36,1.36,0,0,1-.05-1.91,7.52,7.52,0,0,1,5.64-2.5,7.69,7.69,0,0,1,5.38,2.36,1.36,1.36,0,0,1-2,1.81A5,5,0,0,0,37.29,36a4.84,4.84,0,0,0-3.67,1.64A1.34,1.34,0,0,1,32.64,38Z"/><path class="cls-10" d="M64,38a1.37,1.37,0,0,1-1-2.29,7.53,7.53,0,0,1,5.64-2.5A7.66,7.66,0,0,1,74,35.59a1.35,1.35,0,0,1-2,1.81A5.1,5.1,0,0,0,68.63,36,4.84,4.84,0,0,0,65,37.59,1.34,1.34,0,0,1,64,38Z"/><path class="cls-3" d="M77.65,18.54a1.69,1.69,0,0,1-.77-2.37c2.21-3.46,7.7-10.64,14.27-8.64,8.11,2.46,8.13,16.19-1.78,21.14a1.75,1.75,0,0,1-2.23-.88A27.6,27.6,0,0,0,77.65,18.54Z"/><path class="cls-9" d="M91.2,15.09c-1.08-2.71-4.88-3.8-8.14-2.17a14.55,14.55,0,0,0-4.72,6,27.17,27.17,0,0,1,7.9,7.53C90.13,24.09,93.2,19.59,91.2,15.09Z"/><path class="cls-3" d="M27.78,18.54a1.69,1.69,0,0,0,.77-2.37c-2.21-3.46-7.7-10.64-14.27-8.64C6.16,10,6.15,23.72,16.06,28.67a1.75,1.75,0,0,0,2.23-.88A27.6,27.6,0,0,1,27.78,18.54Z"/><path class="cls-9" d="M14.23,15.09c1.08-2.71,4.88-3.8,8.14-2.17a14.55,14.55,0,0,1,4.72,6,27,27,0,0,0-7.9,7.53C15.3,24.09,12.23,19.59,14.23,15.09Z"/></g></g></g></svg>