<svg xmlns="http://www.w3.org/2000/svg" viewBox="0 0 131.03 135.62"><defs><style>.cls-1{isolation:isolate;}.cls-2{fill:#8ebb6a;}.cls-3{fill:none;}.cls-4{fill:#8f2a18;}.cls-5{fill:#edb348;}.cls-6{fill:#aa4529;}.cls-7{fill:#e39635;}.cls-8{opacity:0.15;mix-blend-mode:overlay;}.cls-9{fill:#2b0020;}.cls-10{fill:#fff;}.cls-11{fill:#a33418;}</style></defs><title>Asset 6</title><g class="cls-1"><g id="Layer_2" data-name="Layer 2"><g id="OBJECTS"><circle class="cls-2" cx="58.69" cy="82.48" r="53.15" transform="translate(-34.27 122.55) rotate(-77.89)"/><path class="cls-3" d="M68.25,31.37l.4.24-.09-.31Z"/><path class="cls-3" d="M62.89,26.6a19.94,19.94,0,0,1,3.92-.44c-.2-.54-.4-1.09-.61-1.64A24.15,24.15,0,0,1,62.89,26.6Z"/><path class="cls-4" d="M77.4,41.42c.35.6.7,1.21,1,1.82a6.8,6.8,0,0,1,2.68,1.69,1.31,1.31,0,0,1-.1,1.84,1.25,1.25,0,0,1-.61.3l.65,1.32a17.33,17.33,0,0,0,7.7,1.86c6.2,0,3.51-5.33-1.85-9.42A29.22,29.22,0,0,0,77.4,41.42Z"/><path class="cls-5" d="M66.89,21.25c1.85.74.8,2.11-.69,3.27.21.55.41,1.1.61,1.64,2.17,0,4.58.43,5.3,2.3.54,1.43-1.21,2.31-3.55,2.84l.09.31c3.74,2.29,6.51,6,8.75,9.81a29.22,29.22,0,0,1,9.5-.59H87c14.15,1,16.37.4,18.34-13.36C108.94,2.36,98-1.63,94.18,3.16s3.39,21.93,0,23.09S89.8,19.31,88.6,10.33,79.43-2.92,77,2.26s5.58,23.23,4.38,25.82-6.18,4.58-7-5.78S66.07,3.56,62.88,6.94C60.94,9,62.77,15.06,64.94,21.1A3.86,3.86,0,0,1,66.89,21.25Z"/><path class="cls-6" d="M34.91,43.55c-4.43.69-12.7,3-16.55,10.52-4,7.79,9.52,4.64,16.13-2.28a55.58,55.58,0,0,1,2.33-6.62C36.21,44.74,35.64,44.15,34.91,43.55Z"/><path class="cls-6" d="M127.12,62.51c.24.31.48.63.69,1C127.6,63.14,127.36,62.82,127.12,62.51Z"/><path class="cls-6" d="M109.66,103.16h0Z"/><path class="cls-6" d="M126.17,61.43c.28.29.55.59.8.9C126.72,62,126.45,61.72,126.17,61.43Z"/><path class="cls-6" d="M125.21,60.52c.31.27.6.54.88.82C125.81,61.06,125.52,60.79,125.21,60.52Z"/><path class="cls-6" d="M111.33,103.08l-.67,0Z"/><path class="cls-6" d="M112.77,54.93c.51.11,1,.23,1.51.36C113.78,55.16,113.28,55,112.77,54.93Z"/><path class="cls-6" d="M110.43,103.14l-.48,0Z"/><path class="cls-6" d="M127.92,63.65a10.5,10.5,0,0,1,.63,1.08A10.5,10.5,0,0,0,127.92,63.65Z"/><path class="cls-6" d="M118.92,56.8q.64.26,1.26.54Q119.57,57.05,118.92,56.8Z"/><path class="cls-6" d="M120.35,57.42c.42.2.83.41,1.23.62C121.18,57.83,120.77,57.62,120.35,57.42Z"/><path class="cls-6" d="M116,55.76c1,.29,1.9.61,2.8,1C117.85,56.37,116.91,56.05,116,55.76Z"/><path class="cls-6" d="M122.9,58.81c.36.23.71.46,1,.71C123.61,59.27,123.26,59,122.9,58.81Z"/><path class="cls-6" d="M121.6,58.05c.39.21.78.44,1.15.67C122.38,58.49,122,58.26,121.6,58.05Z"/><path class="cls-6" d="M124.13,59.65c.34.25.66.51,1,.78C124.79,60.16,124.47,59.9,124.13,59.65Z"/><path class="cls-6" d="M87.59,69.16C91.13,60,99,55.71,107.91,54.07q.81.1,1.62.24C97.32,52.34,84.2,54,84.2,54a42.53,42.53,0,0,1-3.15-5.64l-.65-1.32a1.3,1.3,0,0,1-1.23-.39,3.9,3.9,0,0,0-2.63-1.14,3.81,3.81,0,0,0-2.88,1.29A1.31,1.31,0,0,1,71.76,45a6.47,6.47,0,0,1,4.78-2.11,5.85,5.85,0,0,1,1.89.31c-.33-.61-.68-1.22-1-1.82-2.24-3.84-5-7.52-8.75-9.81l-.4-.24a48.59,48.59,0,0,1-8.35.78H47.7a21.1,21.1,0,0,0-4.09,2.94c2.57.14,5.32.48,6.52,3.15C52.89,44.36,47,48.79,37.8,45.69a3.69,3.69,0,0,1-1-.52,55.58,55.58,0,0,0-2.33,6.62c-.32,1.13-.62,2.3-.91,3.51C29.76,71.6,13.71,78.5,5.68,78.8c-.08,1.22-.14,2.44-.14,3.68a52.93,52.93,0,0,0,14.12,36.06c.05-5,6.89-14.41,13.57-21.28h0l.93-.94,0,0c.61-.61,1.22-1.19,1.82-1.75l0,0,.87-.79.05,0c.57-.5,1.13-1,1.68-1.42l.08-.07.77-.6.09-.07c.51-.38,1-.73,1.46-1l.11-.07c.22-.14.43-.28.64-.4l.11-.06a10.22,10.22,0,0,1,1.19-.6l.1,0,.5-.18.09,0a4.4,4.4,0,0,1,.47-.1A22.55,22.55,0,0,1,56,90.81s23.3,7.48,40.64,10.8l-1.19-.23C86.33,94.83,83.14,80.28,87.59,69.16ZM52.94,47a1.31,1.31,0,0,1,0-1.85A6.92,6.92,0,0,1,58,42.93a7,7,0,0,1,4.87,2.13,1.31,1.31,0,0,1-1.94,1.75A4.34,4.34,0,0,0,58,45.54,4.21,4.21,0,0,0,54.79,47a1.32,1.32,0,0,1-.95.4A1.29,1.29,0,0,1,52.94,47ZM58.2,62.5c-2.34,0-4.24-1.36-4.24-5.88,0-.29,0-.58,0-.86L54,55c0-.11,0-.22.05-.34s0-.28,0-.42,0-.23.07-.35,0-.25.07-.38,0-.22.08-.34l.09-.35a3,3,0,0,1,.1-.32,3.37,3.37,0,0,1,.1-.34l.11-.3.12-.32a2.39,2.39,0,0,1,.13-.28c0-.1.09-.2.13-.29s.09-.18.14-.26l.15-.27c0-.08.1-.15.14-.23l.17-.24.15-.2c.06-.08.13-.15.19-.22l.16-.17.2-.18a1.07,1.07,0,0,1,.16-.14l.21-.15L57,48.8a1.67,1.67,0,0,1,.23-.12l.16-.07a1.38,1.38,0,0,1,.27-.08l.14,0a2,2,0,0,1,.42,0,1.81,1.81,0,0,1,.4,0l.14,0,.24.07.18.08.18.09.21.12.12.09a4.51,4.51,0,0,1,1.11,1.18h0a12,12,0,0,1,1.66,6.47C62.44,61.14,60.54,62.5,58.2,62.5Zm19-1.42c-2.16,0-3.91-1.26-3.91-5.42,0-.27,0-.54,0-.8s0-.47,0-.7,0-.2,0-.3l.06-.4c0-.1,0-.21,0-.31s0-.24.07-.36,0-.21.07-.31l.09-.33c0-.1.06-.2.08-.3s.07-.21.1-.31a2.31,2.31,0,0,0,.1-.28l.12-.29c0-.09.07-.17.11-.26s.08-.18.13-.27l.12-.23.14-.25a2.39,2.39,0,0,0,.13-.21l.16-.23.14-.18a1.63,1.63,0,0,1,.17-.2l.14-.16.19-.17.15-.13.2-.14.15-.1.21-.1.15-.07.25-.08.13,0a1.67,1.67,0,0,1,.39,0,2.2,2.2,0,0,1,.36,0l.14,0,.22.06.16.07.17.09.19.11.12.08a4.3,4.3,0,0,1,1,1.09h0a11.11,11.11,0,0,1,1.52,6C81.07,59.82,79.32,61.08,77.17,61.08Z"/><path class="cls-6" d="M97.85,101.83l-1.15-.21Z"/><path class="cls-6" d="M107.2,103.09l-.57,0Z"/><path class="cls-6" d="M106.32,103l-.64-.06Z"/><path class="cls-6" d="M105.4,102.94l-.75-.08Z"/><path class="cls-6" d="M108.06,103.13l-.53,0Z"/><path class="cls-6" d="M108.88,103.16h0Z"/><path class="cls-6" d="M114.41,55.33c.49.12,1,.26,1.45.4C115.39,55.59,114.9,55.45,114.41,55.33Z"/><path class="cls-6" d="M109.57,54.32c1.08.17,2.15.37,3.2.61C111.72,54.69,110.65,54.49,109.57,54.32Z"/><path class="cls-6" d="M45.32,126.38c-3.13-.52-1.56-9.91-1.56-9.91s-1.74,9.91-5.92,9c-3.5-.78-1.14-6.42-.28-8.23-1.05,2.07-4.89,9.17-7.72,8.13-3.3-1.22,1.57-8.17,1.57-8.17s-3.91,5.09-7.53,5.47a53.11,53.11,0,0,0,22.66,11.59l.09-.11A39.61,39.61,0,0,0,52,125c-1.75-1.85-2-7.18-2-7.18S48.45,126.91,45.32,126.38Z"/><path class="cls-6" d="M103.46,102.72c-1.39-.18-2.87-.4-4.41-.67C100.59,102.32,102.07,102.54,103.46,102.72Z"/><path class="cls-6" d="M99,102.05l-1.15-.21Z"/><path class="cls-6" d="M104.44,102.84l-1-.12Z"/><path class="cls-7" d="M110.43,103.14h.23l.67,0c13-1.31,25-23,17.22-38.35a10.5,10.5,0,0,0-.63-1.08,1.74,1.74,0,0,0-.11-.18c-.21-.33-.45-.65-.69-1l-.15-.18c-.25-.31-.52-.61-.8-.9l-.08-.09c-.28-.28-.57-.55-.88-.82l-.11-.09c-.31-.27-.63-.53-1-.78l-.18-.13c-.34-.25-.69-.48-1-.71l-.15-.09c-.37-.23-.76-.46-1.15-.67h0c-.4-.21-.81-.42-1.23-.62l-.17-.08q-.62-.29-1.26-.54l-.17-.07c-.9-.36-1.84-.68-2.8-1l-.09,0c-.47-.14-1-.28-1.45-.4l-.13,0c-.5-.13-1-.25-1.51-.36h0c-1-.24-2.12-.44-3.2-.61h0q-.81-.14-1.62-.24C99,55.71,91.13,60,87.59,69.16c-4.45,11.12-1.26,25.67,7.88,32.22l1.19.23h0l1.15.21h0l1.15.21h0c1.54.27,3,.49,4.41.67h0l1,.12.21,0,.75.08.28,0,.64.06.31,0,.57,0,.33,0,.53,0,.32,0H110Zm10.14-34.41c4.51.41,1.57,16.19-.85,17.43C112.58,89.79,116.06,68.32,120.57,68.73ZM106.42,86.05c-4.78,6.43-11.21-14.34-7-16S108,83.87,106.42,86.05Z"/><path class="cls-7" d="M57.55,96c.06.34.1.69.15,1C57.65,96.7,57.61,96.35,57.55,96Z"/><path class="cls-7" d="M57.7,97.12q.07.55.12,1.14Q57.78,97.68,57.7,97.12Z"/><path class="cls-7" d="M56.93,93c.08.26.15.54.21.82C57.08,93.58,57,93.3,56.93,93Z"/><path class="cls-7" d="M56,90.81c.11.19.22.39.32.61C56.24,91.2,56.13,91,56,90.81Z"/><path class="cls-7" d="M56.36,91.46c.09.21.19.44.27.67C56.54,91.9,56.45,91.67,56.36,91.46Z"/><path class="cls-7" d="M56.66,92.21a7.14,7.14,0,0,1,.24.74A7.14,7.14,0,0,0,56.66,92.21Z"/><path class="cls-7" d="M57.17,94c.07.29.13.59.19.89C57.3,94.55,57.24,94.25,57.17,94Z"/><path class="cls-7" d="M57.38,95c.06.32.11.64.16,1C57.49,95.59,57.44,95.27,57.38,95Z"/><path class="cls-7" d="M36.07,94.5l.87-.79Z"/><path class="cls-7" d="M38.75,92.17l.77-.6Z"/><path class="cls-7" d="M37,93.66c.57-.51,1.13-1,1.68-1.42C38.12,92.68,37.56,93.16,37,93.66Z"/><path class="cls-7" d="M33.25,97.25l.93-.94Z"/><path class="cls-7" d="M34.2,96.29c.61-.61,1.22-1.19,1.82-1.75C35.42,95.1,34.81,95.68,34.2,96.29Z"/><path class="cls-7" d="M39.61,91.5c.51-.38,1-.73,1.46-1C40.6,90.77,40.12,91.12,39.61,91.5Z"/><path class="cls-7" d="M43.22,89.3l.5-.18Z"/><path class="cls-7" d="M43.81,89.09a4.4,4.4,0,0,1,.47-.1A4.4,4.4,0,0,0,43.81,89.09Z"/><path class="cls-7" d="M41.93,89.94a8.86,8.86,0,0,1,1.19-.6A10.22,10.22,0,0,0,41.93,89.94Z"/><path class="cls-7" d="M41.18,90.4c.22-.14.43-.28.64-.4C41.61,90.12,41.4,90.26,41.18,90.4Z"/><path class="cls-7" d="M57.82,98.26q0-.58-.12-1.14v-.06c-.05-.36-.09-.71-.15-1v-.08c0-.34-.1-.66-.16-1l0-.1c-.06-.3-.12-.6-.19-.89l0-.1c-.06-.28-.13-.56-.21-.82l0-.09a7.14,7.14,0,0,0-.24-.74l0-.08c-.08-.23-.18-.46-.27-.67l0,0c-.1-.22-.21-.42-.32-.61A22.55,22.55,0,0,0,44.28,89a4.4,4.4,0,0,0-.47.1l-.09,0-.5.18-.1,0a8.86,8.86,0,0,0-1.19.6l-.11.06c-.21.12-.42.26-.64.4l-.11.07c-.47.3-1,.65-1.46,1l-.09.07-.77.6-.08.07c-.55.44-1.11.91-1.68,1.42l-.05,0-.87.79,0,0c-.6.56-1.21,1.14-1.82,1.75l0,0-.93.94h0l-.83.87-.22.23-.82.89h0c-6,6.59-11.64,14.74-11.69,19.28a51,51,0,0,0,4.22,4.1c3.62-.38,7.53-5.47,7.53-5.47s-4.87,7-1.57,8.17c2.83,1,6.67-6.06,7.72-8.13-.86,1.81-3.22,7.45.28,8.23,4.18.94,5.92-9,5.92-9s-1.57,9.39,1.56,9.91,4.7-8.52,4.7-8.52.21,5.33,2,7.18a1.74,1.74,0,0,0,2,.47C56.81,124.45,58.78,108.61,57.82,98.26Z"/><path class="cls-8" d="M44.28,89a4.4,4.4,0,0,0-.47.1l-.09,0-.5.18-.1,0a8.86,8.86,0,0,0-1.19.6l-.11.06c-.21.12-.42.26-.64.4l-.11.07c-.47.3-1,.65-1.46,1l-.09.07-.77.6-.08.07c-.55.44-1.11.91-1.68,1.42l-.05,0-.87.79,0,0c-.6.56-1.21,1.14-1.82,1.75l0,0-.93.94h0c-.63.65-1.25,1.31-1.88,2a43.08,43.08,0,0,1,26.47-1h0q0-.58-.12-1.14v-.06c-.05-.36-.09-.71-.15-1v-.08c0-.34-.1-.66-.16-1l0-.1c-.06-.3-.12-.6-.19-.89l0-.1c-.06-.28-.13-.56-.21-.82l0-.09a7.14,7.14,0,0,0-.24-.74l0-.08c-.08-.23-.18-.46-.27-.67l0,0c-.1-.22-.21-.42-.32-.61A22.55,22.55,0,0,0,44.28,89Z"/><path class="cls-9" d="M99.43,70.07c-4.22,1.64,2.21,22.41,7,16C108,83.87,103.64,68.43,99.43,70.07Z"/><path class="cls-9" d="M119.72,86.16c2.42-1.24,5.36-17,.85-17.43S112.58,89.79,119.72,86.16Z"/><path class="cls-5" d="M37.8,45.69c9.16,3.1,15.09-1.33,12.33-7.45-1.2-2.67-4-3-6.52-3.15-3.33-.17-6.39,0-5.48-4.11,1.6-7.28,7.81-21.79,4.44-25s-10.48,5.55-10.72,16-5.32,8.67-6.66,6.15,5.66-21,3-26-10.41-.35-11.12,8.68S15.8,27.92,12.35,26.94s2.8-18.49-1.24-23.06-14.77,0-9.84,24.89C4,42.4,6.22,42.88,20.31,41.12c9.19-1.15,12.53.71,14.6,2.43.73.6,1.3,1.19,1.91,1.62A3.69,3.69,0,0,0,37.8,45.69Z"/><path class="cls-6" d="M59.9,32.15a48.59,48.59,0,0,0,8.35-.78l.31-.07c2.34-.53,4.09-1.41,3.55-2.84-.72-1.87-3.13-2.31-5.3-2.3a19.94,19.94,0,0,0-3.92.44,24.15,24.15,0,0,0,3.31-2.08c1.49-1.16,2.54-2.53.69-3.27a3.86,3.86,0,0,0-2-.15c-4.2.6-10.75,5.64-10.75,5.64s5.05-6.28,1.39-5.41S47.7,32.15,47.7,32.15H59.9Z"/><path class="cls-9" d="M55.14,51c0-.09.09-.18.14-.26C55.23,50.79,55.19,50.88,55.14,51Z"/><path class="cls-9" d="M54.88,51.54a2.39,2.39,0,0,1,.13-.28A2.39,2.39,0,0,0,54.88,51.54Z"/><path class="cls-9" d="M55.43,50.44c0-.08.1-.15.14-.23C55.53,50.29,55.48,50.36,55.43,50.44Z"/><path class="cls-9" d="M54.28,53.51c0-.11,0-.22.08-.34C54.33,53.29,54.3,53.4,54.28,53.51Z"/><path class="cls-9" d="M54.65,52.16l.11-.3Z"/><path class="cls-9" d="M59.34,48.76l.21.12Z"/><path class="cls-9" d="M54.45,52.82a3,3,0,0,1,.1-.32A3,3,0,0,0,54.45,52.82Z"/><path class="cls-9" d="M58.6,48.49l.14,0Z"/><path class="cls-9" d="M57.21,48.68l.16-.07Z"/><path class="cls-9" d="M56.81,48.91,57,48.8Z"/><path class="cls-9" d="M56.44,49.2a1.07,1.07,0,0,1,.16-.14A1.07,1.07,0,0,0,56.44,49.2Z"/><path class="cls-9" d="M57.64,48.53l.14,0Z"/><path class="cls-9" d="M55.74,50l.15-.2Z"/><path class="cls-9" d="M56.08,49.55l.16-.17Z"/><path class="cls-9" d="M59,48.59l.18.08Z"/><path class="cls-9" d="M54,55c0-.11,0-.22.05-.34C54.07,54.78,54.06,54.89,54,55Z"/><path class="cls-9" d="M60.78,50.15A4.51,4.51,0,0,0,59.67,49,4.51,4.51,0,0,1,60.78,50.15Z"/><path class="cls-9" d="M58,54.69a8,8,0,0,1-4,1.08h0c0,.28,0,.57,0,.86,0,4.52,1.9,5.88,4.24,5.88s4.24-1.36,4.24-5.88a12,12,0,0,0-1.66-6.47A7.79,7.79,0,0,1,58,54.69Z"/><path class="cls-9" d="M54.14,54.24c0-.12,0-.23.07-.35C54.19,54,54.16,54.12,54.14,54.24Z"/><path class="cls-10" d="M58,54.69a7.79,7.79,0,0,0,2.82-4.54h0A4.51,4.51,0,0,0,59.67,49l-.12-.09-.21-.12-.18-.09L59,48.59l-.24-.07-.14,0a1.81,1.81,0,0,0-.4,0,2,2,0,0,0-.42,0l-.14,0a1.38,1.38,0,0,0-.27.08l-.16.07a1.67,1.67,0,0,0-.23.12l-.17.11-.21.15a1.07,1.07,0,0,0-.16.14l-.2.18-.16.17c-.06.07-.13.14-.19.22l-.15.2-.17.24c0,.08-.09.15-.14.23l-.15.27c-.05.08-.09.17-.14.26s-.09.19-.13.29a2.39,2.39,0,0,0-.13.28l-.12.32-.11.3a3.37,3.37,0,0,0-.1.34,3,3,0,0,0-.1.32l-.09.35c0,.12-.06.23-.08.34s-.05.26-.07.38-.05.23-.07.35,0,.28,0,.42,0,.23-.05.34l-.06.76h0A8,8,0,0,0,58,54.69Z"/><path class="cls-9" d="M76.94,53.87a7.36,7.36,0,0,1-3.66,1h0c0,.26,0,.53,0,.8,0,4.16,1.75,5.42,3.91,5.42s3.9-1.26,3.9-5.42a11.11,11.11,0,0,0-1.52-6A7.19,7.19,0,0,1,76.94,53.87Z"/><path class="cls-9" d="M74.61,50a2.39,2.39,0,0,0,.13-.21A2.39,2.39,0,0,1,74.61,50Z"/><path class="cls-9" d="M74.9,49.52l.14-.18Z"/><path class="cls-9" d="M74.35,50.44l.12-.23Z"/><path class="cls-9" d="M75.21,49.14l.14-.16Z"/><path class="cls-9" d="M73.89,51.54a2.31,2.31,0,0,0,.1-.28A2.31,2.31,0,0,1,73.89,51.54Z"/><path class="cls-9" d="M74.11,51c0-.09.07-.17.11-.26C74.18,50.8,74.14,50.88,74.11,51Z"/><path class="cls-9" d="M75.54,48.81l.15-.13Z"/><path class="cls-9" d="M76.65,48.19l.13,0Z"/><path class="cls-9" d="M76.25,48.34l.15-.07Z"/><path class="cls-9" d="M75.89,48.54l.15-.1Z"/><path class="cls-9" d="M77.53,48.16l.14,0Z"/><path class="cls-9" d="M73.71,52.15c0-.1.06-.2.08-.3C73.77,52,73.73,52.05,73.71,52.15Z"/><path class="cls-9" d="M78.22,48.41l.19.11Z"/><path class="cls-9" d="M77.89,48.25l.16.07Z"/><path class="cls-9" d="M79.55,49.69a4.3,4.3,0,0,0-1-1.09A4.3,4.3,0,0,1,79.55,49.69Z"/><path class="cls-9" d="M73.43,53.46c0-.1,0-.21,0-.31C73.46,53.25,73.44,53.36,73.43,53.46Z"/><path class="cls-9" d="M73.55,52.79c0-.1,0-.21.07-.31C73.6,52.58,73.57,52.69,73.55,52.79Z"/><path class="cls-9" d="M73.33,54.16c0-.1,0-.2,0-.3C73.36,54,73.34,54.06,73.33,54.16Z"/><path class="cls-10" d="M76.94,53.87a7.19,7.19,0,0,0,2.61-4.18h0a4.3,4.3,0,0,0-1-1.09l-.12-.08-.19-.11-.17-.09-.16-.07-.22-.06-.14,0a2.2,2.2,0,0,0-.36,0,1.67,1.67,0,0,0-.39,0l-.13,0-.25.08-.15.07-.21.1-.15.1-.2.14-.15.13-.19.17-.14.16a1.63,1.63,0,0,0-.17.2l-.14.18-.16.23a2.39,2.39,0,0,1-.13.21l-.14.25-.12.23c0,.09-.09.18-.13.27s-.08.17-.11.26l-.12.29a2.31,2.31,0,0,1-.1.28c0,.1-.06.21-.1.31s-.06.2-.08.3l-.09.33c0,.1-.05.21-.07.31s0,.24-.07.36,0,.21,0,.31l-.06.4c0,.1,0,.2,0,.3s0,.47,0,.7h0A7.36,7.36,0,0,0,76.94,53.87Z"/><path class="cls-11" d="M58,45.54a4.34,4.34,0,0,1,2.93,1.27,1.31,1.31,0,0,0,1.94-1.75A7,7,0,0,0,58,42.93a6.92,6.92,0,0,0-5.1,2.25,1.31,1.31,0,0,0,0,1.85,1.29,1.29,0,0,0,.9.35,1.32,1.32,0,0,0,.95-.4A4.21,4.21,0,0,1,58,45.54Z"/><path class="cls-11" d="M81.11,44.93a6.8,6.8,0,0,0-2.68-1.69,5.85,5.85,0,0,0-1.89-.31A6.47,6.47,0,0,0,71.76,45a1.31,1.31,0,0,0,0,1.84,1.31,1.31,0,0,0,1.85-.05,3.81,3.81,0,0,1,2.88-1.29,3.9,3.9,0,0,1,2.63,1.14,1.3,1.3,0,0,0,1.23.39,1.25,1.25,0,0,0,.61-.3A1.31,1.31,0,0,0,81.11,44.93Z"/></g></g></g></svg>