<svg xmlns="http://www.w3.org/2000/svg" viewBox="0 0 206.94 206.94"><defs><style>.cls-1{fill:#57a9aa;}.cls-2{fill:#333;}.cls-2,.cls-3,.cls-4,.cls-5,.cls-6,.cls-7,.cls-8{fill-rule:evenodd;}.cls-3{fill:#666;}.cls-4{fill:#fff;}.cls-5{fill:#f4762f;}.cls-7{fill:#c3c3c3;}.cls-8{opacity:0.15;}</style></defs><title>Asset 1</title><g id="Layer_2" data-name="Layer 2"><g id="Objects"><circle class="cls-1" cx="103.47" cy="103.47" r="103.47" transform="translate(-42.86 103.47) rotate(-45)"/><path class="cls-2" d="M142.5,91l19.52,58,10.59,31.49a103.1,103.1,0,0,1-69.12,26.51h0a103.11,103.11,0,0,1-69.13-26.51l10.6-31.49L64.44,91H142.5Z"/><path class="cls-3" d="M129.86,117l13.19,45,9.56,32.55a103,103,0,0,1-49.13,12.4h0a103,103,0,0,1-49.13-12.4L63.88,162,77.08,117h52.78Z"/><polygon class="cls-2" points="58.02 33.84 85.28 76.58 51.22 84.08 58.02 33.84"/><polygon class="cls-2" points="148.94 33.84 121.68 76.58 155.74 84.08 148.94 33.84"/><polygon class="cls-2" points="153.23 65.66 160.04 115.94 104.91 132.93 46.9 115.94 53.71 65.66 103.47 49.45 153.23 65.66"/><path class="cls-4" d="M80.54,66.87A24.08,24.08,0,1,1,56.2,91,24.21,24.21,0,0,1,80.54,66.87Z"/><path class="cls-4" d="M126.39,66.87A24.08,24.08,0,1,1,102.05,91,24.21,24.21,0,0,1,126.39,66.87Z"/><path class="cls-5" d="M97,105c1-15.36,12.19-14.84,13,0l-6.5,13.78Z"/><path class="cls-6" d="M80.54,84.86A6.09,6.09,0,1,1,74.46,91,6.09,6.09,0,0,1,80.54,84.86Z"/><path class="cls-4" d="M83.72,84.86a2.91,2.91,0,1,1-2.91,2.91A2.91,2.91,0,0,1,83.72,84.86Z"/><path class="cls-6" d="M126.39,84.86A6.09,6.09,0,1,1,120.31,91,6.09,6.09,0,0,1,126.39,84.86Z"/><path class="cls-4" d="M129.57,84.86a2.91,2.91,0,1,1-2.9,2.91A2.91,2.91,0,0,1,129.57,84.86Z"/><path class="cls-7" d="M89.37,149A4.14,4.14,0,1,1,83,149a4.14,4.14,0,0,0,6.41,0Z"/><path class="cls-7" d="M101.6,149a4.14,4.14,0,1,1-6.41,0,4.14,4.14,0,0,0,6.41,0Z"/><path class="cls-7" d="M113.83,149a4.09,4.09,0,0,1,.94,2.62,4.14,4.14,0,0,1-8.28,0,4.09,4.09,0,0,1,.94-2.62,4.13,4.13,0,0,0,6.4,0Z"/><path class="cls-7" d="M126.06,149a4.14,4.14,0,0,1-3.2,6.76,4.14,4.14,0,0,1-4.14-4.14,4.09,4.09,0,0,1,.94-2.62,4.13,4.13,0,0,0,6.4,0Z"/><path class="cls-7" d="M95.7,139.09a4.15,4.15,0,1,1-6.41,0,4.14,4.14,0,0,0,6.41,0Z"/><path class="cls-7" d="M107.93,139.09a4.14,4.14,0,1,1-6.41,0,4.14,4.14,0,0,0,6.41,0Z"/><path class="cls-7" d="M120.16,139.09a4.14,4.14,0,1,1-6.41,0,4.14,4.14,0,0,0,6.41,0Z"/><path class="cls-7" d="M95.7,159.89a4.15,4.15,0,1,1-6.41,0,4.16,4.16,0,0,0,6.41,0Z"/><path class="cls-7" d="M107.93,159.89a4.14,4.14,0,1,1-6.41,0,4.16,4.16,0,0,0,6.41,0Z"/><path class="cls-7" d="M120.16,159.89a4.14,4.14,0,1,1-6.41,0,4.16,4.16,0,0,0,6.41,0Z"/><path class="cls-7" d="M132.39,159.89a4.07,4.07,0,0,1,.94,2.62,4.14,4.14,0,0,1-8.28,0,4.07,4.07,0,0,1,.94-2.62,4.15,4.15,0,0,0,6.4,0Z"/><path class="cls-7" d="M83.46,159.89a4.07,4.07,0,0,1,.94,2.62,4.14,4.14,0,0,1-8.28,0,4.07,4.07,0,0,1,.94-2.62,4.15,4.15,0,0,0,6.4,0Z"/><path class="cls-7" d="M89.37,170.45a4.14,4.14,0,1,1-6.41,0,4.14,4.14,0,0,0,6.41,0Z"/><path class="cls-7" d="M101.6,170.45a4.14,4.14,0,1,1-6.41,0,4.14,4.14,0,0,0,6.41,0Z"/><path class="cls-7" d="M113.83,170.45a4.09,4.09,0,0,1,.94,2.62,4.14,4.14,0,0,1-8.28,0,4.09,4.09,0,0,1,.94-2.62,4.13,4.13,0,0,0,6.4,0Z"/><path class="cls-7" d="M126.06,170.45a4.14,4.14,0,0,1-3.2,6.76,4.14,4.14,0,0,1-4.14-4.14,4.09,4.09,0,0,1,.94-2.62,4.13,4.13,0,0,0,6.4,0Z"/><path class="cls-7" d="M77.13,170.45a4.14,4.14,0,0,1-3.2,6.76,4.14,4.14,0,0,1-4.14-4.14,4.09,4.09,0,0,1,.94-2.62,4.13,4.13,0,0,0,6.4,0Z"/><path class="cls-7" d="M138.29,170.45a4.14,4.14,0,0,1-3.2,6.76,4.14,4.14,0,0,1-3.2-6.76,4.13,4.13,0,0,0,6.4,0Z"/><path class="cls-7" d="M95.7,181.85a4.15,4.15,0,1,1-6.41,0,4.14,4.14,0,0,0,6.41,0Z"/><path class="cls-7" d="M107.93,181.85a4.14,4.14,0,1,1-6.41,0,4.14,4.14,0,0,0,6.41,0Z"/><path class="cls-7" d="M120.16,181.85a4.14,4.14,0,1,1-6.41,0,4.14,4.14,0,0,0,6.41,0Z"/><path class="cls-7" d="M132.39,181.85a4.14,4.14,0,1,1-6.4,0,4.13,4.13,0,0,0,6.4,0Z"/><path class="cls-7" d="M83.46,181.85a4.14,4.14,0,1,1-6.4,0,4.13,4.13,0,0,0,6.4,0Z"/><path class="cls-7" d="M89.37,193.45a4.14,4.14,0,1,1-6.41,0,4.14,4.14,0,0,0,6.41,0Z"/><path class="cls-7" d="M101.6,193.45a4.14,4.14,0,1,1-6.41,0,4.14,4.14,0,0,0,6.41,0Z"/><path class="cls-7" d="M113.83,193.45a4.07,4.07,0,0,1,.94,2.62,4.14,4.14,0,0,1-8.28,0,4.07,4.07,0,0,1,.94-2.62,4.13,4.13,0,0,0,6.4,0Z"/><path class="cls-7" d="M126.06,193.45a4.07,4.07,0,0,1,.94,2.62,4.14,4.14,0,0,1-8.28,0,4.07,4.07,0,0,1,.94-2.62,4.13,4.13,0,0,0,6.4,0Z"/><path class="cls-8" d="M103.47,0a103.47,103.47,0,0,1,0,206.94Z"/></g></g></svg>