<svg xmlns="http://www.w3.org/2000/svg" viewBox="0 0 206.94 206.94"><defs><style>.cls-1{fill:#f6a7aa;}.cls-1,.cls-2,.cls-3,.cls-4,.cls-5,.cls-6{fill-rule:evenodd;}.cls-2{fill:#333;}.cls-3{fill:#fff;}.cls-4{fill:#f4762f;}.cls-6{opacity:0.15;}</style></defs><title>Asset 5</title><g id="Layer_2" data-name="Layer 2"><g id="Objects"><path class="cls-1" d="M103.47,206.94A103.47,103.47,0,1,0,0,103.47,103.67,103.67,0,0,0,103.47,206.94Z"/><path class="cls-2" d="M142.5,91l19.52,58,10.6,31.49a103.15,103.15,0,0,1-69.13,26.51h0a103.11,103.11,0,0,1-69.13-26.51l10.6-31.49L64.44,91H142.5Z"/><polygon class="cls-2" points="132.2 52.51 153.6 73.28 160.92 102.27 153.63 131.19 132.19 152.03 103.5 160.18 74.74 152.03 53.34 131.25 46.01 102.27 53.3 73.35 74.74 52.51 103.43 44.36 132.2 52.51"/><path class="cls-3" d="M129.86,102.34l13.19,52.3,10,39.66a103.12,103.12,0,0,1-49.57,12.64h0A103.12,103.12,0,0,1,53.88,194.3l10-39.66,13.2-52.29h52.78Z"/><path class="cls-4" d="M83.47,113c15.1,0,13.77-19.31,20.21-19.31,6.89,0,3.47,19.31,19.78,19.31l-20.91,15.63Z"/><path class="cls-3" d="M80.54,66.23c11.35,0,20.54,11.06,20.54,24.72s-9.19,24.71-20.54,24.71S60,104.6,60,91,69.2,66.23,80.54,66.23Z"/><path class="cls-3" d="M126.39,66.23c11.35,0,20.54,11.06,20.54,24.72s-9.19,24.71-20.54,24.71S105.86,104.6,105.86,91,115.05,66.23,126.39,66.23Z"/><path class="cls-5" d="M80.54,84.86A6.09,6.09,0,1,1,74.46,91,6.09,6.09,0,0,1,80.54,84.86Z"/><path class="cls-3" d="M83.72,84.86a2.91,2.91,0,1,1-2.91,2.91A2.91,2.91,0,0,1,83.72,84.86Z"/><path class="cls-5" d="M126.39,84.86A6.09,6.09,0,1,1,120.31,91,6.09,6.09,0,0,1,126.39,84.86Z"/><path class="cls-3" d="M129.57,84.86a2.91,2.91,0,1,1-2.91,2.91A2.91,2.91,0,0,1,129.57,84.86Z"/><path class="cls-6" d="M103,0a103.47,103.47,0,0,1,0,206.94Z"/></g></g></svg>