<svg xmlns="http://www.w3.org/2000/svg" viewBox="0 0 206.94 206.94"><defs><style>.cls-1{fill:#f4762f;}.cls-2,.cls-6{fill:#f6a7aa;}.cls-2,.cls-3,.cls-4,.cls-5,.cls-7{fill-rule:evenodd;}.cls-3{fill:#ffd7da;}.cls-5{fill:#fff;}.cls-7{opacity:0.15;}</style></defs><title>Asset 3</title><g id="Layer_2" data-name="Layer 2"><g id="Objects"><circle class="cls-1" cx="103.47" cy="103.47" r="103.47" transform="translate(-21.03 26.59) rotate(-13.3)"/><path class="cls-2" d="M142.5,91l19.52,58,10.59,31.49a103.06,103.06,0,0,1-69.13,26.51h0a103.09,103.09,0,0,1-69.14-26.51l10.6-31.49L64.44,91H142.5Z"/><polygon class="cls-3" points="133.37 73.82 142.18 70.28 150.99 66.73 153.68 45.84 132.57 44.02 127.28 51.9 121.99 59.79 127.68 66.81 133.37 73.82"/><polygon class="cls-2" points="134.41 68.89 140.29 66.52 146.19 64.15 147.69 50.02 133.87 48.96 130.33 54.23 126.79 59.5 130.6 64.19 134.41 68.89"/><polygon class="cls-3" points="74.16 73.82 65.35 70.28 56.55 66.73 53.85 45.84 74.96 44.02 80.25 51.9 85.54 59.79 79.85 66.81 74.16 73.82"/><polygon class="cls-2" points="73.13 68.89 67.23 66.52 61.34 64.14 59.84 50.02 73.66 48.95 77.2 54.23 80.74 59.5 76.93 64.19 73.13 68.89"/><polygon class="cls-3" points="137.24 58.92 147.68 87.05 158.11 115.18 130.79 132.56 103.47 149.94 76.14 132.56 48.82 115.18 59.26 87.05 69.7 58.92 103.47 58.92 137.24 58.92"/><path class="cls-4" d="M80,83.57a6.09,6.09,0,1,1-6.09,6.08A6.08,6.08,0,0,1,80,83.57Z"/><path class="cls-5" d="M82.62,84.7a2.17,2.17,0,1,1-2.17,2.17A2.17,2.17,0,0,1,82.62,84.7Z"/><path class="cls-4" d="M126.94,83.57a6.09,6.09,0,1,1-6.09,6.08A6.08,6.08,0,0,1,126.94,83.57Z"/><path class="cls-5" d="M129.56,84.7a2.17,2.17,0,1,1-2.17,2.17A2.17,2.17,0,0,1,129.56,84.7Z"/><ellipse class="cls-6" cx="103.47" cy="110.02" rx="26.09" ry="20.21"/><path class="cls-3" d="M95.32,105a5,5,0,1,1-5,5A5,5,0,0,1,95.32,105Z"/><path class="cls-3" d="M111.62,105a5,5,0,1,1-5,5A5,5,0,0,1,111.62,105Z"/><path class="cls-7" d="M103.47,0a103.47,103.47,0,0,1,0,206.94Z"/></g></g></svg>