<svg xmlns="http://www.w3.org/2000/svg" viewBox="0 0 165.71 120.61"><defs><style>.cls-1{isolation:isolate;}.cls-2{fill:#4ab6b8;}.cls-3{fill:#f98c87;}.cls-4{fill:#f6caa6;}.cls-5{opacity:0.2;mix-blend-mode:overlay;}.cls-6{fill:#2b0020;}.cls-7{fill:#fff;}</style></defs><title>Asset 3</title><g class="cls-1"><g id="Layer_2" data-name="Layer 2"><g id="OBJECTS"><circle class="cls-2" cx="82.86" cy="67.46" r="53.15" transform="translate(-23.43 78.35) rotate(-45)"/><path class="cls-3" d="M95.18,93.13c-6-5.43-19-5.43-23.88,0A94.56,94.56,0,0,0,57,113.92a53.17,53.17,0,0,0,55.51-2.37A122.9,122.9,0,0,0,95.18,93.13Z"/><path class="cls-4" d="M92.92,104.83c-6-4.34-10.81-3.79-16.24,0-4.08,2.72-8.37,8.8-10.75,13a53.25,53.25,0,0,0,37.46-1.36C101.08,113.43,96.31,107.09,92.92,104.83Z"/><path class="cls-5" d="M103.39,100.93c-2.61-2.67-5.37-5.26-8.21-7.8-6-5.43-19-5.43-23.88,0a90.67,90.67,0,0,0-9.6,12.62C84.79,115.2,104.64,102.2,103.39,100.93Z"/><path class="cls-3" d="M76.68,30.77S71,2.74,46.61.18-10.69,23.38,3.37,41C16.64,57.67,45.22,16.79,45.22,16.79s13.88.75,23.68,16.56Z"/><path class="cls-4" d="M49.62,13.17a11.6,11.6,0,0,0-4.31,3.62c1.09.09,14.21,1.42,23.59,16.56l3.89-1.82c-2-7.64-4.88-14.51-11.43-18A12.81,12.81,0,0,0,49.62,13.17Z"/><path class="cls-3" d="M89,30.77s5.7-28,30.07-30.59S176.4,23.38,162.34,41c-13.27,16.65-41.85-24.23-41.85-24.23s-13.88.75-23.68,16.56Z"/><path class="cls-4" d="M116.09,13.17a11.6,11.6,0,0,1,4.31,3.62c-1.09.09-14.21,1.42-23.59,16.56l-3.89-1.82c2-7.64,4.88-14.51,11.44-18A12.79,12.79,0,0,1,116.09,13.17Z"/><path class="cls-4" d="M83.79,77.94c-11.94-7.6-27.68-11.4-40.71-6.52a16.75,16.75,0,0,0-3.25,1.63C40,91.89,56.55,102.3,90.77,97.52c14.41-2,33.29-5.92,35.1-24.35a19.25,19.25,0,0,0,0-3.48C111.34,66.05,96.2,69.49,83.79,77.94Z"/><path class="cls-3" d="M85.7,26.3C70.77,24.49,42.6,46.78,40.07,68.47a38,38,0,0,0-.24,4.58,16.75,16.75,0,0,1,3.25-1.63c13-4.88,28.77-1.08,40.71,6.52,12.41-8.45,27.55-11.89,42.09-8.25C124.4,51.56,99.73,28,85.7,26.3Z"/><path class="cls-6" d="M84.24,78.39c2-.5,3.69-3,3.69-3s6.41.58,4.63-3.49c-1.9-4.34-18.68-2-18,1.41s4.54,2,4.54,2S82,78.94,84.24,78.39Z"/><path class="cls-3" d="M84.74,27.05s3.66-.81,3.12-2.71-2.81-1.94-4.18,0c0,0,2.89-3.39,0-4.2s-2.61,4.47-2.61,4.47-.54-2.32-1.9-2.11-1.76,4.15,0,5.37S84.74,27.05,84.74,27.05Z"/><path class="cls-6" d="M75.87,86.52h-.22c-2.66-.07-5-1.45-7.05-4.07a1.36,1.36,0,1,1,2.15-1.66c1.5,1.95,3.17,3,5,3,3.62.12,6.9-3.6,6.94-3.64a1.35,1.35,0,0,1,1.9-.15c2.53,2.15,5,3.08,7.36,2.76,3.63-.5,5.91-3.81,5.94-3.84a1.35,1.35,0,0,1,2.25,1.51c-.12.18-3,4.34-7.79,5a11.53,11.53,0,0,1-8.53-2.58C82.36,84.22,79.37,86.52,75.87,86.52Z"/><path class="cls-6" d="M74.91,61.15c0,5.81-2.44,7.56-5.46,7.56S64,67,64,61.15s2.44-10.51,5.45-10.51S74.91,55.35,74.91,61.15Z"/><path class="cls-7" d="M72.78,52.83a4.2,4.2,0,0,0-3.33-2.19c-2.81,0-5.13,4.13-5.42,9.42a10.23,10.23,0,0,0,5.11-1.4A10,10,0,0,0,72.78,52.83Z"/><path class="cls-6" d="M103.52,61.15c0,5.81-2.44,7.56-5.45,7.56S92.62,67,92.62,61.15s2.44-10.51,5.45-10.51S103.52,55.35,103.52,61.15Z"/><path class="cls-7" d="M101.4,52.83a4.2,4.2,0,0,0-3.33-2.19c-2.82,0-5.13,4.13-5.42,9.42a10.23,10.23,0,0,0,5.11-1.4A10,10,0,0,0,101.4,52.83Z"/><path class="cls-6" d="M63.84,49a1.34,1.34,0,0,1-.93-.37,1.36,1.36,0,0,1,0-1.92,8.45,8.45,0,0,1,6.33-2.8,8.6,8.6,0,0,1,6,2.64,1.35,1.35,0,1,1-2,1.81,6,6,0,0,0-4-1.73,5.73,5.73,0,0,0-4.36,2A1.37,1.37,0,0,1,63.84,49Z"/><path class="cls-6" d="M91.86,49a1.34,1.34,0,0,1-.93-.37,1.36,1.36,0,0,1-.06-1.92,8.46,8.46,0,0,1,6.34-2.8,8.63,8.63,0,0,1,6,2.64,1.36,1.36,0,1,1-2,1.81,6,6,0,0,0-4-1.73,5.72,5.72,0,0,0-4.36,2A1.37,1.37,0,0,1,91.86,49Z"/></g></g></g></svg>