<svg xmlns="http://www.w3.org/2000/svg" viewBox="0 0 106.3 121.19"><defs><style>.cls-1{isolation:isolate;}.cls-2{fill:#4ab6b8;}.cls-3{fill:#e38027;}.cls-4{fill:#f6caa6;}.cls-5{opacity:0.2;}.cls-5,.cls-7{mix-blend-mode:overlay;}.cls-6{fill:#2b0020;}.cls-7{opacity:0.32;}.cls-8{fill:#e36127;}.cls-9{fill:#fff;}</style></defs><title>Asset 7</title><g class="cls-1"><g id="Layer_2" data-name="Layer 2"><g id="OBJECTS"><circle class="cls-2" cx="53.15" cy="68.05" r="53.15"/><path class="cls-3" d="M63.94,94.4C58.3,88.63,45.3,87.86,40.1,93a94.71,94.71,0,0,0-15.46,19.92,53.19,53.19,0,0,0,55.55.89A122.88,122.88,0,0,0,63.94,94.4Z"/><path class="cls-4" d="M61,106c-5.71-4.69-10.58-4.43-16.22-1-4.23,2.47-8.87,8.29-11.49,12.36a53.21,53.21,0,0,0,37.47.84C68.63,115,64.24,108.4,61,106Z"/><path class="cls-5" d="M71.68,102.66c-2.45-2.82-5.05-5.56-7.74-8.26C58.3,88.63,45.3,87.86,40.1,93a91.18,91.18,0,0,0-10.33,12C52.27,115.82,72.85,104,71.68,102.66Z"/><path class="cls-6" d="M78,23.05S96.18,16.86,94.34,10s-14.26-12.34-19-8.88-3.8,17.68-3.8,17.68Z"/><path class="cls-4" d="M78,20.44s9.64-5.07,9.79-8.23-4.52-6.92-7.08-6.92-6.17,12-6.17,12Z"/><path class="cls-6" d="M29.5,23.05S11.3,16.86,13.15,10s14.26-12.34,19-8.88,3.8,17.68,3.8,17.68Z"/><path class="cls-4" d="M29.52,20.44s-9.63-5.07-9.78-8.23,4.51-6.92,7.07-6.92,6.17,12,6.17,12Z"/><path class="cls-3" d="M103.41,59.69c0,28.41-22.5,33-50.25,33S2.91,88.1,2.91,59.69,33.47,8.27,53.16,8.27C72.26,8.27,103.41,31.29,103.41,59.69Z"/><path class="cls-4" d="M97.53,64.69c0,26-19.86,30.27-44.37,30.27S8.78,90.71,8.78,64.69s27-47.12,44.38-47.12C70,17.57,97.53,38.67,97.53,64.69Z"/><path class="cls-7" d="M20.24,57.34A41.12,41.12,0,0,0,3.63,67.88C7.69,89,28.32,92.73,53.16,92.73S98.55,89,102.66,68C81,49.64,46.65,49.32,20.24,57.34Z"/><path class="cls-4" d="M94.59,85.08c0,13.15-18.55,15.36-41.43,15.36S11.72,98.23,11.72,85.08,30.27,61.26,53.16,61.26,94.59,71.92,94.59,85.08Z"/><path class="cls-8" d="M70.78,63.52S64.91,10.13,58.84,8.27,48.26,7.18,44.93,9.92s-9,51.83-8.42,54.67S66.07,71.06,70.78,63.52Z"/><path class="cls-6" d="M70.78,69.1c2.07-2.34,3.73-6.08-4.1-7.84s-26.91-.68-30.21,2-.24,7.53,2,7.59c5.44.15,6.27-3.13,8.82,0s4.41,5.34,7.35,5,5.19-5.93,7.93-6.13S69.36,70.7,70.78,69.1Z"/><path class="cls-6" d="M101.43,72.54,90.59,61a.8.8,0,0,1,.69-1.34l12.1,1.57S103.07,68.83,101.43,72.54Z"/><path class="cls-6" d="M100.78,45.38H92a.8.8,0,0,1-.69-1.21l4.9-8A58.6,58.6,0,0,1,100.78,45.38Z"/><path class="cls-6" d="M89.05,26.89l-7.57,4.72a.8.8,0,0,1-1.2-.87L82.7,21A51.39,51.39,0,0,1,89.05,26.89Z"/><path class="cls-6" d="M4.86,72.54,15.7,61A.8.8,0,0,0,15,59.69L2.91,61.26S3.22,68.83,4.86,72.54Z"/><path class="cls-6" d="M5.51,45.38h8.78A.8.8,0,0,0,15,44.17l-4.9-8A58.6,58.6,0,0,0,5.51,45.38Z"/><path class="cls-6" d="M17.24,26.89l7.57,4.72a.8.8,0,0,0,1.2-.87L23.59,21A51.39,51.39,0,0,0,17.24,26.89Z"/><path class="cls-6" d="M33.85,52.77a15.59,15.59,0,0,0-2.15-8.41A10.15,10.15,0,0,1,28,50.25a10.49,10.49,0,0,1-5.17,1.41v0c0,.37,0,.75,0,1.13,0,5.86,2.47,7.63,5.51,7.63S33.85,58.63,33.85,52.77Z"/><path class="cls-9" d="M28,50.25a10.15,10.15,0,0,0,3.67-5.89h0a6.31,6.31,0,0,0-1.44-1.54l-.17-.11-.26-.16-.24-.12-.23-.09-.31-.09-.19-.05a3,3,0,0,0-.52,0,3.41,3.41,0,0,0-.55,0l-.17.05a2.47,2.47,0,0,0-.36.11,1.76,1.76,0,0,0-.2.09l-.31.15-.21.14-.28.2-.21.18-.26.24-.21.23-.24.28-.19.26a3.46,3.46,0,0,0-.22.31l-.19.3c-.07.11-.13.23-.2.35l-.17.33c-.06.13-.12.25-.18.39s-.11.23-.16.36-.11.27-.16.41l-.14.39c-.05.14-.09.29-.14.44l-.12.42-.12.47c0,.14-.07.28-.1.43s-.07.33-.1.5-.06.3-.08.45S23,50,23,50.22l-.06.44c0,.32-.06.65-.08,1v0A10.49,10.49,0,0,0,28,50.25Z"/><path class="cls-8" d="M22,39.21a1.47,1.47,0,1,0,2.13,2,5.73,5.73,0,0,1,4.34-1.94,5.93,5.93,0,0,1,4,1.72,1.46,1.46,0,0,0,2.06.11A1.47,1.47,0,0,0,34.67,39a8.85,8.85,0,0,0-6.16-2.69A8.63,8.63,0,0,0,22,39.21Z"/><path class="cls-6" d="M77.17,49.85A10.46,10.46,0,0,1,72,51.26h0c0,.36,0,.74,0,1.12C72,58.23,74.44,60,77.48,60S83,58.23,83,52.37A15.5,15.5,0,0,0,80.84,44,10.15,10.15,0,0,1,77.17,49.85Z"/><path class="cls-9" d="M77.17,49.85A10.15,10.15,0,0,0,80.84,44h0a5.8,5.8,0,0,0-1.44-1.54l-.17-.12a2.26,2.26,0,0,0-.26-.16L78.73,42l-.23-.1a1.81,1.81,0,0,0-.31-.09L78,41.79a3,3,0,0,0-.52,0,2.48,2.48,0,0,0-.54.06l-.18,0a2,2,0,0,0-.35.11L76.2,42l-.31.16-.21.13-.28.2-.21.18a3.07,3.07,0,0,0-.26.25,11.41,11.41,0,0,0-.44.5,2.56,2.56,0,0,0-.2.26l-.22.32-.19.29c-.06.12-.13.23-.2.35s-.11.22-.17.33l-.18.39c0,.12-.11.23-.16.36s-.11.27-.16.41l-.14.39c-.05.14-.09.29-.14.44l-.12.42-.12.47c0,.14-.07.28-.1.43s-.07.33-.1.5-.05.3-.08.45,0,.37-.07.55l-.06.44c0,.32-.06.65-.08,1h0A10.46,10.46,0,0,0,77.17,49.85Z"/><path class="cls-8" d="M71.18,38.81a1.47,1.47,0,0,0,.06,2.08,1.47,1.47,0,0,0,2.08-.06,5.7,5.7,0,0,1,4.33-1.94,6,6,0,0,1,4,1.72,1.44,1.44,0,0,0,1.08.48,1.51,1.51,0,0,0,1-.37,1.47,1.47,0,0,0,.11-2.07,8.61,8.61,0,0,0-1.68-1.37A8.43,8.43,0,0,0,77.65,36,8.63,8.63,0,0,0,71.18,38.81Z"/><path class="cls-6" d="M61.52,89.17a11.71,11.71,0,0,1-7.68-3.23c-1.57,1.26-4.81,3.4-8.4,3-2.64-.27-4.9-1.82-6.73-4.59A1.36,1.36,0,1,1,41,82.9c1.35,2.06,3,3.19,4.74,3.38,3.59.37,7.15-3.09,7.18-3.12a1.36,1.36,0,0,1,1.91,0c2.37,2.33,4.76,3.44,7.14,3.29,3.65-.22,6.18-3.36,6.2-3.39a1.36,1.36,0,0,1,1.9-.22,1.34,1.34,0,0,1,.23,1.9c-.13.17-3.26,4.1-8.14,4.42Z"/><path class="cls-6" d="M53.86,85.48a1.36,1.36,0,0,1-1.36-1.36V71.77a1.36,1.36,0,0,1,2.72,0V84.12A1.36,1.36,0,0,1,53.86,85.48Z"/></g></g></g></svg>